<?xml version="1.0" encoding="iso-8859-1"?><!-- Generator: Adobe Illustrator 22.1.0, SVG Export Plug-In . SVG Version: 6.00 Build 0)  --><svg xmlns="http://www.w3.org/2000/svg" xmlns:xlink="http://www.w3.org/1999/xlink" viewBox="0 0 48 48" width="48px" height="48px"><rect x="2" y="9" style="fill:#FF3D00;" width="44" height="30"/><path style="fill:#ECEFF1;" d="M23.919,23.769c-6.507-2.739-3.623-11.178,2.601-10.754c-1.259,0.644-1.442,1.847-0.723,2.96  c0.805,1.247-0.074,3.253-1.163,3.741C22.846,20.518,22.487,22.656,23.919,23.769L23.919,23.769z"/><path style="fill:#FF3D00;" d="M23.567,17.675l-0.366,0.572l-0.133-0.666l-0.66-0.17l0.595-0.332l-0.041-0.677l0.5,0.461  l0.634-0.249l-0.285,0.616l0.433,0.524L23.567,17.675z"/><path style="fill:#FF3D00;" d="M23.955,23.698c-0.787-0.402-1.422-1.241-1.698-2.243c-0.316-1.149-0.134-2.385,0.5-3.388  l-0.136-0.086c-0.658,1.042-0.847,2.323-0.518,3.516c0.292,1.06,0.941,1.914,1.78,2.343L23.955,23.698z"/><path style="fill:#ECEFF1;" d="M23.925,23.771c0.605-7.009,9.557-6.885,11.075-0.86c-1.004-0.993-2.209-0.795-3.051,0.231  c-0.942,1.148-3.13,0.935-3.932,0.055C26.699,21.75,24.546,22.071,23.925,23.771L23.925,23.771z"/><path style="fill:#FF3D00;" d="M29.637,21.554l-0.66-0.17l0.595-0.331l-0.042-0.678l0.501,0.461l0.634-0.249l-0.286,0.616  l0.434,0.524l-0.677-0.08L29.77,22.22L29.637,21.554z"/><path style="fill:#FF3D00;" d="M24.005,23.784c0.141-0.87,0.746-1.73,1.617-2.301c1-0.655,2.236-0.864,3.39-0.574l0.04-0.156  c-1.199-0.301-2.481-0.084-3.519,0.596c-0.922,0.604-1.538,1.482-1.688,2.409L24.005,23.784z"/><path style="fill:#ECEFF1;" d="M23.926,23.778c6.881-1.593,9.529,6.923,4.244,10.222c0.638-1.258,0.076-2.338-1.163-2.818  c-1.387-0.538-1.86-2.675-1.268-3.707C26.713,25.78,25.741,23.841,23.926,23.778L23.926,23.778z"/><path style="fill:#FF3D00;" d="M27.808,28.502l-0.042-0.677l0.5,0.461l0.634-0.249l-0.286,0.617l0.433,0.524l-0.677-0.08  l-0.366,0.572l-0.133-0.665l-0.659-0.17L27.808,28.502z"/><path style="fill:#FF3D00;" d="M23.938,23.857c0.874-0.135,1.883,0.172,2.698,0.82c0.934,0.745,1.516,1.851,1.596,3.034l0.161-0.01  c-0.083-1.228-0.687-2.375-1.656-3.148c-0.862-0.687-1.891-0.998-2.823-0.854L23.938,23.857z"/><path style="fill:#ECEFF1;" d="M23.92,23.78c3.648,6.024-3.667,11.164-8.452,7.178c1.399,0.216,2.256-0.65,2.332-1.972  c0.085-1.48,1.98-2.589,3.149-2.346C22.869,27.038,24.42,25.519,23.92,23.78L23.92,23.78z"/><path style="fill:#FF3D00;" d="M20.607,28.916l0.634-0.249l-0.286,0.616l0.434,0.524l-0.677-0.08L20.346,30.3l-0.132-0.666  l-0.66-0.17l0.594-0.332l-0.041-0.677L20.607,28.916z"/><path style="fill:#FF3D00;" d="M23.848,23.816c0.399,0.786,0.418,1.836,0.05,2.808c-0.423,1.115-1.299,2.008-2.404,2.449l0.06,0.149  c1.147-0.458,2.056-1.384,2.495-2.541c0.389-1.029,0.369-2.099-0.057-2.937L23.848,23.816z"/><path style="fill:#ECEFF1;" d="M23.915,23.775c-4.627,5.317-11.796-0.023-9.467-5.786c0.226,1.391,1.318,1.936,2.604,1.599  c1.44-0.377,3.084,1.076,3.214,2.257C20.479,23.787,22.41,24.787,23.915,23.775L23.915,23.775z"/><path style="fill:#FF3D00;" d="M17.986,22.225l0.433,0.523l-0.677-0.08l-0.366,0.573l-0.133-0.666l-0.66-0.17l0.595-0.331  l-0.042-0.677l0.5,0.46l0.634-0.248L17.986,22.225z"/><path style="fill:#FF3D00;" d="M23.859,23.718c-0.627,0.621-1.624,0.963-2.667,0.915c-1.195-0.056-2.319-0.61-3.082-1.52  l-0.124,0.103c0.792,0.945,1.958,1.52,3.198,1.578c1.103,0.051,2.119-0.299,2.788-0.961L23.859,23.718z"/></svg>