<svg xmlns="http://www.w3.org/2000/svg" xmlns:xlink="http://www.w3.org/1999/xlink" viewBox="0,0,256,256" width="50px" height="50px" fill-rule="nonzero"><g fill="#679941" fill-rule="nonzero" stroke="none" stroke-width="1" stroke-linecap="butt" stroke-linejoin="miter" stroke-miterlimit="10" stroke-dasharray="" stroke-dashoffset="0" font-family="none" font-weight="none" font-size="none" text-anchor="none" style="mix-blend-mode: normal"><g transform="scale(5.12,5.12)"><path d="M25,1.43945l-0.76758,0.91992c0,0 -1.02797,1.22811 -2.06055,2.75c-0.51629,0.76095 -1.03644,1.59741 -1.44336,2.42188c-0.40692,0.82447 -0.72852,1.6147 -0.72852,2.46875c0,2.40715 1.72542,4.43155 4,4.89844v1.10156h-1c-1.64497,0 -3,1.35503 -3,3v9h-9c-3.30163,0 -6,2.69837 -6,6v0.89844c-0.00599,0.06301 -0.00599,0.12644 0,0.18945v6.91211h-3v1c0,2.74952 2.25048,5 5,5h36c2.74952,0 5,-2.25048 5,-5v-1h-3v-6.85156c0.02315,-0.12261 0.02315,-0.24848 0,-0.37109v-0.77734c0,-3.30163 -2.69837,-6 -6,-6h-9v-9c0,-1.64497 -1.35503,-3 -3,-3h-1v-1.10156c2.27458,-0.46689 4,-2.49129 4,-4.89844c0,-0.85405 -0.3216,-1.64428 -0.72852,-2.46875c-0.40692,-0.82447 -0.92707,-1.66093 -1.44336,-2.42187c-1.03258,-1.52189 -2.06055,-2.75 -2.06055,-2.75zM25,4.66602c0.37265,0.47198 0.58724,0.70473 1.17188,1.56641c0.48371,0.71293 0.96356,1.48847 1.30664,2.18359c0.34308,0.69513 0.52148,1.33353 0.52148,1.58398c0,1.31485 -0.83292,2.40877 -2,2.81836v-0.81836c0.0037,-0.2703 -0.10218,-0.53059 -0.29351,-0.72155c-0.19133,-0.19097 -0.45182,-0.29634 -0.72212,-0.29212c-0.55152,0.00862 -0.99193,0.46214 -0.98437,1.01367v0.81836c-1.16708,-0.40959 -2,-1.50351 -2,-2.81836c0,-0.25045 0.1784,-0.88886 0.52148,-1.58398c0.34308,-0.69513 0.82293,-1.47067 1.30664,-2.18359c0.58463,-0.86167 0.79923,-1.09442 1.17188,-1.56641zM23,18h1.83203c0.10799,0.01785 0.21818,0.01785 0.32617,0h1.8418c0.56503,0 1,0.43497 1,1v9h-6v-9c0,-0.56503 0.43497,-1 1,-1zM11,30h28c2.22037,0 4,1.77962 4,4v0.7207c-0.26582,0.45175 -1.48072,2.2793 -4,2.2793c-2.85627,0 -5.24023,-2.64844 -5.24023,-2.64844c-0.18097,-0.21191 -0.44215,-0.3387 -0.72059,-0.34983c-0.27845,-0.01112 -0.54891,0.09443 -0.7462,0.29123c0,0 -2.69297,2.70703 -7.29297,2.70703c-4.6,0 -7.29297,-2.70703 -7.29297,-2.70703c-0.1973,-0.1968 -0.46776,-0.30236 -0.7462,-0.29123c-0.27845,0.01112 -0.53962,0.13792 -0.72059,0.34983c0,0 -2.38397,2.64844 -5.24023,2.64844c-2.51928,0 -3.73418,-1.82754 -4,-2.2793v-0.7207c0,-2.22038 1.77963,-4 4,-4zM17.07617,36.25977c0.89635,0.76612 3.4315,2.74023 7.92383,2.74023c4.49233,0 7.02748,-1.97411 7.92383,-2.74023c0.77783,0.81718 2.78982,2.74023 6.07617,2.74023c1.734,0 3.04424,-0.66316 4,-1.41211v4.41211h-36v-4.41211c0.95576,0.74895 2.266,1.41211 4,1.41211c3.28635,0 5.29835,-1.92305 6.07617,-2.74023zM4.41211,44h41.17578c-0.43709,1.11247 -1.31204,2 -2.58789,2h-36c-1.27585,0 -2.1508,-0.88753 -2.58789,-2z"></path></g></g></svg>