<svg xmlns="http://www.w3.org/2000/svg" xmlns:xlink="http://www.w3.org/1999/xlink" viewBox="0,0,256,256" width="50px" height="50px" fill-rule="nonzero"><g fill="#4192ec" fill-rule="nonzero" stroke="none" stroke-width="1" stroke-linecap="butt" stroke-linejoin="miter" stroke-miterlimit="10" stroke-dasharray="" stroke-dashoffset="0" font-family="none" font-weight="none" font-size="none" text-anchor="none" style="mix-blend-mode: normal"><g transform="scale(5.12,5.12)"><path d="M36.26367,2.02539c-0.3855,0.00285 -0.73504,0.22701 -0.89844,0.57617l-1.42187,3.0293c-0.11564,0.24733 -0.12514,0.53119 -0.02629,0.78569c0.09885,0.25451 0.29746,0.45753 0.54973,0.56196l1.0625,0.44141l-0.75977,1.91016l-0.04297,-0.01758c-0.0013,-0.00065 -0.0026,-0.0013 -0.00391,-0.00195c-0.24727,-0.1 -0.44012,-0.18338 -0.67578,-0.25195c-0.23566,-0.06857 -0.60119,-0.14547 -1.00391,0.02539c-0.40271,0.17086 -0.60261,0.48873 -0.7168,0.70703c-0.11185,0.21383 -0.18531,0.41063 -0.28125,0.65234v0.00195c-0.0018,0.0045 -0.00406,0.0072 -0.00586,0.01172l-4.08594,9.88281c-0.02626,0.06357 -0.0459,0.12967 -0.05859,0.19727c-0.00198,0.00389 -0.00393,0.0078 -0.00586,0.01172l-0.78711,2.11523c-0.08896,0.24074 -0.08197,0.50646 0.01953,0.74219l1.08594,2.53516c0.10415,0.24382 0.30085,0.43631 0.54688,0.53516l3.61914,1.44727c0.2464,0.09844 0.52182,0.09492 0.76563,-0.00977l2.53516,-1.08594c0.25136,-0.10785 0.44758,-0.31396 0.54297,-0.57031l0.78516,-2.11328c0.01643,-0.04586 0.02948,-0.09286 0.03906,-0.14062l0.00195,-0.00586l1.29688,-3.12891l0.34375,0.14063c0,0.00065 0,0.0013 0,0.00195c1.08106,0.44157 1.60811,1.953 1.13867,3.11328l-2.17969,5.20508c0,0.00065 0,0.0013 0,0.00195c-1.25405,0.45374 -2.29955,1.34748 -2.94336,2.49805l-12.30469,-4.77344c-0.12407,-0.04997 -0.25689,-0.07454 -0.39062,-0.07227c-0.481,0.00777 -0.88832,0.35689 -0.96957,0.83104c-0.08126,0.47415 0.18657,0.93897 0.63754,1.10646l12.38867,4.80664c-0.03592,0.25288 -0.06055,0.509 -0.06055,0.77148c0,0.87316 0.21092,1.69689 0.57617,2.43164c-0.69474,0.74156 -1.23167,1.08008 -3.57812,1.08008c-1.486,0 -5.86155,-1.67028 -8.31055,-2.73828c-0.278,-0.108 -0.56256,-0.16427 -0.85156,-0.19727l1.27344,2.54492c2.034,0.839 6.03963,2.39063 7.89063,2.39063c2.7332,0 3.76595,-0.45357 4.79688,-1.46094c0.72678,0.66507 1.62803,1.14188 2.62891,1.3418c-0.06754,0.14055 -0.14051,0.27987 -0.20703,0.41406c-0.13712,0.27659 -0.27834,0.51867 -0.39258,0.70313h-13.02148l0.37695,0.75391c0.203,0.405 0.34269,0.82781 0.42969,1.25781h18.73047c0.307,0 0.64844,0.40347 0.64844,0.98047v0.98047h-19.38281c-0.116,0.572 -0.32553,1.12948 -0.64453,1.64648c-0.079,0.129 -0.17172,0.24623 -0.26172,0.36523h21.29492c0.556,0 1.00586,-0.44986 1.00586,-1.00586v-1.98633c0,-1.65 -1.19316,-2.99219 -2.66016,-2.99219h-4.23828c0.20942,-0.42919 0.40537,-0.83963 0.56641,-1.13867c2.469,-0.53967 4.33008,-2.74497 4.33008,-5.37109c0,-1.05075 -0.30297,-2.03041 -0.81836,-2.86719c0.01575,-0.02858 0.03009,-0.05791 0.04297,-0.08789l2.09766,-5.00586c0.00133,-0.0039 0.00263,-0.0078 0.00391,-0.01172c1.88609,-4.65802 -0.38258,-10.013 -5.04687,-11.91211c-0.00454,-0.00199 -0.0091,-0.00394 -0.01367,-0.00586l-0.2832,-0.10937l0.13672,-0.32812c0.00199,-0.00454 0.00394,-0.0091 0.00586,-0.01367c0.09892,-0.24805 0.18275,-0.44379 0.25,-0.68164c0.06725,-0.23785 0.13947,-0.59596 -0.02148,-0.99219c-0.16097,-0.3962 -0.47498,-0.61141 -0.69727,-0.73242c-0.22228,-0.12101 -0.42592,-0.1964 -0.67773,-0.29687l-0.05078,-0.01953l0.75,-1.88281l0.89453,0.37109c0.49163,0.20333 1.05639,-0.01382 1.28516,-0.49414l1.4375,-3.02344c0.11704,-0.24749 0.1275,-0.53214 0.02895,-0.78756c-0.09855,-0.25542 -0.2975,-0.45927 -0.55044,-0.56401l-7.11914,-2.95312c-0.12379,-0.0513 -0.25663,-0.07721 -0.39062,-0.07617zM36.76953,4.31641l5.26563,2.18359l-0.57617,1.21289l-5.25977,-2.18164zM37.37695,8.18555l1.45313,0.60156l-0.75391,1.89258l-1.45508,-0.59375zM33.91992,11.14453c0.02582,0.01036 0.02509,0.01029 0.05273,0.02149l5.25781,2.14258c0.0026,0.00131 0.0052,0.00262 0.00781,0.00391c0.03161,0.01261 0.02962,0.01364 0.05859,0.02539c-0.01214,0.03088 -0.01195,0.03263 -0.02539,0.06641l-3.76953,9.08789l-5.38281,-2.15625l3.77344,-9.12695c0.00199,-0.00454 0.00394,-0.0091 0.00586,-0.01367c0.01069,-0.02688 0.01142,-0.02569 0.02148,-0.05078zM40.2168,16.34766l0.30859,0.12109c3.6617,1.49089 5.42518,5.65862 3.94727,9.30859l-1.7832,4.25391c-0.78847,-0.56508 -1.72897,-0.92585 -2.74805,-1.00781l1.73047,-4.13672c0.00198,-0.00389 0.00393,-0.0078 0.00586,-0.01172c0.87036,-2.15121 -0.0085,-4.80381 -2.23633,-5.71484h-0.00195l-0.33203,-0.13672zM8.23242,22c-0.36064,-0.0051 -0.69608,0.18438 -0.87789,0.49587c-0.18181,0.3115 -0.18181,0.69676 0,1.00825c0.18181,0.3115 0.51725,0.50097 0.87789,0.49587h1v5.79102l-5.68945,13.00586c-0.85191,1.94849 0.62324,4.20313 2.75,4.20313h14.70508c2.18864,0 3.66277,-2.38491 2.68359,-4.3418l-6.44922,-12.89453v-5.76367h1c0.36064,0.0051 0.69608,-0.18438 0.87789,-0.49587c0.18181,-0.3115 0.18181,-0.69676 0,-1.00825c-0.18181,-0.3115 -0.51725,-0.50097 -0.87789,-0.49587zM29.40625,22.20508l5.38086,2.15625l-0.29492,0.79688l-1.75977,0.75391l-2.84961,-1.13867l-0.76562,-1.78711zM11.23242,24h4v6.23633l1.38281,2.76367h-6.60352l1.2207,-2.79102zM39.5,30.74219c2.08502,0 3.75781,1.67184 3.75781,3.75781c0,2.0862 -1.67161,3.75781 -3.75781,3.75781c-2.08502,0 -3.75781,-1.67184 -3.75781,-3.75781c0,-2.08597 1.6728,-3.75781 3.75781,-3.75781zM9.13672,35h8.47852l4.27734,8.55273c0.35082,0.70111 -0.10917,1.44727 -0.89453,1.44727h-14.70508c-0.75924,0 -1.22206,-0.70684 -0.91797,-1.40234zM11.23242,37c-0.55228,0 -1,0.44772 -1,1c0,0.55228 0.44772,1 1,1c0.55228,0 1,-0.44772 1,-1c0,-0.55228 -0.44772,-1 -1,-1zM14.73242,39c-0.82843,0 -1.5,0.67157 -1.5,1.5c0,0.82843 0.67157,1.5 1.5,1.5c0.82843,0 1.5,-0.67157 1.5,-1.5c0,-0.82843 -0.67157,-1.5 -1.5,-1.5z"></path></g></g></svg>