<svg xmlns="http://www.w3.org/2000/svg" xmlns:xlink="http://www.w3.org/1999/xlink" viewBox="0,0,256,256" width="50px" height="50px" fill-rule="nonzero"><g fill="#679941" fill-rule="nonzero" stroke="none" stroke-width="1" stroke-linecap="butt" stroke-linejoin="miter" stroke-miterlimit="10" stroke-dasharray="" stroke-dashoffset="0" font-family="none" font-weight="none" font-size="none" text-anchor="none" style="mix-blend-mode: normal"><g transform="scale(5.12,5.12)"><path d="M25,1c-0.55228,0 -1,0.44772 -1,1c0,0.55228 0.44772,1 1,1c0.55228,0 1,-0.44772 1,-1c0,-0.55228 -0.44772,-1 -1,-1zM19.04688,1.7832c-0.55228,0 -1,0.44772 -1,1c0,0.55228 0.44772,1 1,1c0.55228,0 1,-0.44772 1,-1c0,-0.55228 -0.44772,-1 -1,-1zM30.95313,1.7832c-0.55228,0 -1,0.44772 -1,1c0,0.55228 0.44772,1 1,1c0.55228,0 1,-0.44772 1,-1c0,-0.55228 -0.44772,-1 -1,-1zM13.5,4.08008c-0.55228,0 -1,0.44772 -1,1c0,0.55228 0.44772,1 1,1c0.55228,0 1,-0.44772 1,-1c0,-0.55228 -0.44772,-1 -1,-1zM36.5,4.08008c-0.55228,0 -1,0.44772 -1,1c0,0.55228 0.44772,1 1,1c0.55228,0 1,-0.44772 1,-1c0,-0.55228 -0.44772,-1 -1,-1zM25,5c-11.03385,0 -20,8.96615 -20,20c0,11.03385 8.96615,20 20,20c11.03385,0 20,-8.96615 20,-20c0,-11.03385 -8.96615,-20 -20,-20zM25,7c3.52021,0 6.79083,1.02213 9.5625,2.76367c-0.22727,0.55598 -0.56772,1.37406 -1.03516,2.40039c-0.35289,0.77483 -0.73614,1.56506 -1.07617,2.17383c-0.17002,0.30438 -0.33095,0.56453 -0.45703,0.74023c-0.12608,0.17571 -0.25291,0.26451 -0.14844,0.19922l-2.06445,1.26563c-0.06664,0.04084 -0.12825,0.08935 -0.18359,0.14453c-0.5057,0.5057 -0.69929,1.2751 -0.5332,1.93945c0.04261,0.17216 0.13024,0.3299 0.25391,0.45703l0.57031,0.58398c-0.29521,0.09943 -0.59441,0.19004 -0.90625,0.36328c-0.2066,0.11478 -0.42126,0.25857 -0.61914,0.49414c-0.19788,0.23557 -0.36328,0.59961 -0.36328,0.97461c0,0.65362 0.19666,1.21697 0.42969,1.83789c0.11651,0.31046 0.24241,0.60208 0.4043,0.87305c0.08095,0.13548 0.16648,0.2669 0.31055,0.41211c0.14407,0.14521 0.3776,0.37695 0.85547,0.37695c1.61901,0 2.70874,-0.69638 3.32813,-1.43555c0.61938,-0.73916 0.90453,-1.3367 1.49023,-1.74219c0.67222,-0.4652 1.09439,-0.5219 1.44727,-0.61328c0.07164,0.10644 0.06788,0.06043 0.16016,0.23828c0.27297,0.52609 0.55451,1.33774 0.56836,2.47266c-0.00978,-0.01071 -0.04375,0.13661 -0.17773,0.30469c-0.18288,0.22943 -0.49079,0.52318 -0.87695,0.79297c-0.77232,0.53957 -1.84871,0.98242 -2.93945,0.98242c-1.99733,0 -3.34346,0.58915 -4.11328,1.4707c-0.76982,0.88155 -0.88672,1.90803 -0.88672,2.5293c0,1.92529 1.2005,3.25034 2.32422,3.9707c0.56186,0.36018 1.11818,0.59961 1.56641,0.75781c0.18184,0.06418 0.26624,0.06884 0.39844,0.10742c0.15841,0.29434 0.37555,0.75495 0.9707,2.16406c0.30165,0.71543 0.99549,2.21183 1.43164,3.1582c-2.79826,1.79114 -6.11714,2.8418 -9.69141,2.8418c-1.03835,0 -2.04917,-0.1072 -3.03906,-0.27539c0.2064,-1.16972 0.59636,-2.52426 0.99023,-3.68359c0.41706,-1.22756 0.74759,-2.02755 0.91797,-2.50586c0.58831,-0.39106 2.13086,-1.54548 2.13086,-4.16016c0,-0.52722 -0.15155,-0.93018 -0.50586,-1.41406c-0.35431,-0.48388 -1.03081,-0.96094 -1.86914,-0.96094c-0.46284,0 -0.49126,-0.01278 -0.66602,-0.11914c-0.17476,-0.10636 -0.52844,-0.42794 -1.16406,-1c-0.00065,0 -0.0013,0 -0.00195,0c-0.82275,-0.73982 -1.81773,-0.88086 -2.54297,-0.88086h-1.5h-2.625c-0.72917,0 -0.81848,-0.21703 -0.96484,-0.50977c-0.14637,-0.29274 -0.16016,-0.61523 -0.16016,-0.61523v-1.875h0.625c0.13654,0 0.08863,-0.00611 0.08594,-0.00781c0.02659,0.08909 0.0434,0.21445 0.24023,0.4668c0.24137,0.30944 0.76557,0.54102 1.17383,0.54102c0.6622,0 1.33186,-0.383 1.60742,-0.85937c0.27556,-0.47637 0.26758,-0.89535 0.26758,-1.14062c0,-0.50296 0.05817,-1.04508 0.26367,-1.36914c0.2055,-0.32406 0.51855,-0.63086 1.73633,-0.63086c0.58036,0 1.29642,-0.1095 1.93359,-0.59375c0.63717,-0.48425 1.06641,-1.36298 1.06641,-2.40625v-3.5c0,-0.16833 0.01208,-0.75853 -0.35742,-1.36914c-0.3695,-0.61061 -1.21201,-1.13086 -2.26758,-1.13086c-0.70073,0 -1.16963,-0.1019 -1.30078,-0.16992c-0.13115,-0.06802 -0.07422,0.07412 -0.07422,-0.20508c0,0.0266 0.04484,-0.35468 0.15625,-0.78711c0.11141,-0.43243 0.27757,-0.97441 0.48047,-1.54492c0.35525,-0.99892 0.8388,-2.0733 1.29883,-2.81641c1.30778,-0.30148 2.66411,-0.47656 4.06445,-0.47656zM8.73633,7.73633c-0.55228,0 -1,0.44772 -1,1c0,0.55228 0.44772,1 1,1c0.55228,0 1,-0.44772 1,-1c0,-0.55228 -0.44772,-1 -1,-1zM41.26367,7.73633c-0.55228,0 -1,0.44772 -1,1c0,0.55228 0.44772,1 1,1c0.55228,0 1,-0.44772 1,-1c0,-0.55228 -0.44772,-1 -1,-1zM18.26758,8.31055c-0.18634,0.43813 -0.36257,0.88018 -0.51562,1.31055c-0.2216,0.62311 -0.40349,1.21528 -0.5332,1.71875c-0.12971,0.50347 -0.21875,0.86006 -0.21875,1.28516c0,0.8008 0.48045,1.63099 1.1543,1.98047c0.67385,0.34948 1.39143,0.39453 2.2207,0.39453c0.54243,0 0.51314,0.09413 0.55664,0.16602c0.0435,0.07189 0.06836,0.23232 0.06836,0.33398v3.5c0,0.58173 -0.13327,0.703 -0.27734,0.8125c-0.14408,0.1095 -0.42801,0.1875 -0.72266,0.1875c-1.66222,0 -2.84933,0.65266 -3.42383,1.55859c-0.4508,0.71088 -0.52376,1.40309 -0.54492,1.96875c-0.07075,-0.07197 -0.07061,-0.14213 -0.16211,-0.20312c-0.35568,-0.23712 -0.78318,-0.32422 -1.24414,-0.32422h-0.875c-0.63322,0 -1.32682,0.42138 -1.56055,0.91406c-0.23372,0.49269 -0.18945,0.87644 -0.18945,1.08594v1.80664c-0.83178,-0.61162 -1.43434,-1.05283 -1.96484,-1.99023c-0.15427,-0.27273 -0.35294,-0.54776 -0.625,-0.79102c-0.00065,-0.00065 -0.0013,-0.0013 -0.00195,-0.00195l-0.29883,-0.26563c-0.00065,0 -0.0013,0 -0.00195,0c-0.54683,-0.48557 -1.25228,-0.7559 -1.98437,-0.75781c0.7396,-6.69137 5.12814,-12.26461 11.14453,-14.68945zM36.23633,10.94531c4.12047,3.29647 6.76367,8.35834 6.76367,14.05469c0,5.64668 -2.59356,10.67432 -6.65234,13.97266c-0.45568,-0.99353 -1.01815,-2.21115 -1.24609,-2.75195c-0.6806,-1.61142 -0.94064,-2.24767 -1.25391,-2.75c-0.15866,-0.25457 -0.42321,-0.42448 -0.7207,-0.46289c0.10502,0.01338 -0.23665,-0.04756 -0.57227,-0.16602c-0.33561,-0.11845 -0.75737,-0.30274 -1.15039,-0.55469c-0.78603,-0.50389 -1.4043,-1.1554 -1.4043,-2.28711c0,-0.36874 0.0706,-0.84194 0.39453,-1.21289c0.32393,-0.37095 0.9778,-0.78711 2.60547,-0.78711c1.60926,0 3.03326,-0.60637 4.08594,-1.3418c0.52634,-0.36772 0.96218,-0.7681 1.29492,-1.18555c0.33274,-0.41744 0.61914,-0.82173 0.61914,-1.47266c0,-1.51975 -0.39309,-2.68692 -0.80078,-3.47266c-0.40769,-0.78574 -0.88672,-1.25391 -0.88672,-1.25391c-0.22968,-0.21682 -0.54828,-0.3124 -0.85937,-0.25781c0,0 -1.43037,0.23401 -2.77148,1.16211c-1.03929,0.71951 -1.48485,1.62198 -1.88672,2.10156c-0.32772,0.39109 -0.65662,0.58188 -1.35742,0.6543c-0.04684,-0.10063 -0.08864,-0.17073 -0.13672,-0.29883c-0.13956,-0.37187 -0.19937,-0.70885 -0.23828,-0.89453c0.16971,-0.08098 0.42562,-0.18159 0.75391,-0.29102c0.08428,-0.0283 0.16442,-0.06771 0.23828,-0.11719c0.59286,-0.39524 0.686,-0.8534 0.79102,-1.18945c0.10502,-0.33605 0.14453,-0.62695 0.14453,-0.62695c0.0436,-0.30752 -0.05816,-0.61785 -0.27539,-0.83984l-0.59375,-0.60937l1.77734,-1.08984c0.00196,-0.0013 0.00391,-0.0026 0.00586,-0.00391c0.35447,-0.22154 0.51963,-0.45647 0.71484,-0.72852c0.19521,-0.27205 0.38486,-0.58368 0.57813,-0.92969c0.38653,-0.69201 0.78453,-1.51897 1.15039,-2.32226c0.34633,-0.76042 0.6514,-1.479 0.88867,-2.04688zM5.08008,12.5c-0.55228,0 -1,0.44772 -1,1c0,0.55228 0.44772,1 1,1c0.55228,0 1,-0.44772 1,-1c0,-0.55228 -0.44772,-1 -1,-1zM44.91992,12.5c-0.55228,0 -1,0.44772 -1,1c0,0.55228 0.44772,1 1,1c0.55228,0 1,-0.44772 1,-1c0,-0.55228 -0.44772,-1 -1,-1zM2.7832,18.04688c-0.55228,0 -1,0.44772 -1,1c0,0.55228 0.44772,1 1,1c0.55228,0 1,-0.44772 1,-1c0,-0.55228 -0.44772,-1 -1,-1zM47.2168,18.04688c-0.55228,0 -1,0.44772 -1,1c0,0.55228 0.44772,1 1,1c0.55228,0 1,-0.44772 1,-1c0,-0.55228 -0.44772,-1 -1,-1zM2,24c-0.55228,0 -1,0.44772 -1,1c0,0.55228 0.44772,1 1,1c0.55228,0 1,-0.44772 1,-1c0,-0.55228 -0.44772,-1 -1,-1zM48,24c-0.55228,0 -1,0.44772 -1,1c0,0.55228 0.44772,1 1,1c0.55228,0 1,-0.44772 1,-1c0,-0.55228 -0.44772,-1 -1,-1zM7,25h0.11523c0.2451,0 0.48084,0.08926 0.66406,0.25195l0.29883,0.26563c0.06761,0.06088 0.1476,0.16087 0.2168,0.2832c0.83297,1.47184 1.91354,2.15659 2.87695,2.87891c0.53244,0.39933 1.23841,0.75207 1.85547,1.25195c0.61706,0.49989 0.97461,1.00817 0.97461,1.44336c0,1.74786 0.54705,3.42168 1.05469,4.86719c0.50764,1.4455 0.94531,2.72818 0.94531,3.25781v1.08398c-5.38265,-3.10611 -9.00195,-8.91268 -9.00195,-15.58398zM2.7832,29.95313c-0.55228,0 -1,0.44772 -1,1c0,0.55228 0.44772,1 1,1c0.55228,0 1,-0.44772 1,-1c0,-0.55228 -0.44772,-1 -1,-1zM47.2168,29.95313c-0.55228,0 -1,0.44772 -1,1c0,0.55228 0.44772,1 1,1c0.55228,0 1,-0.44772 1,-1c0,-0.55228 -0.44772,-1 -1,-1zM15.67188,30h2.07813h1.5c0.53397,0 0.8386,0.04031 1.20508,0.36914c0.61438,0.55294 0.97015,0.91886 1.46289,1.21875c0.49274,0.29989 1.08987,0.41211 1.70703,0.41211c0.16167,0 0.17266,0.02896 0.25586,0.14258c0.0832,0.11362 0.11914,0.39964 0.11914,0.23242c0,2.11706 -1.44727,2.73047 -1.44727,2.73047c-0.23738,0.1185 -0.41794,0.32646 -0.50195,0.57813c-0.03378,0.10135 -0.51815,1.3176 -0.99219,2.71289c-0.40167,1.18228 -0.81503,2.56613 -1.05469,3.88867c-0.68713,-0.19782 -1.35133,-0.44816 -2.00195,-0.72266v-2.0625c0,-1.27037 -0.56428,-2.51988 -1.05664,-3.92187c-0.49236,-1.402 -0.94336,-2.89099 -0.94336,-4.20312c0,-0.51282 -0.12825,-0.96926 -0.33008,-1.375zM5.08008,35.5c-0.55228,0 -1,0.44772 -1,1c0,0.55228 0.44772,1 1,1c0.55228,0 1,-0.44772 1,-1c0,-0.55228 -0.44772,-1 -1,-1zM44.91992,35.5c-0.55228,0 -1,0.44772 -1,1c0,0.55228 0.44772,1 1,1c0.55228,0 1,-0.44772 1,-1c0,-0.55228 -0.44772,-1 -1,-1zM8.73633,40.26367c-0.55228,0 -1,0.44772 -1,1c0,0.55228 0.44772,1 1,1c0.55228,0 1,-0.44772 1,-1c0,-0.55228 -0.44772,-1 -1,-1zM41.26367,40.26367c-0.55228,0 -1,0.44772 -1,1c0,0.55228 0.44772,1 1,1c0.55228,0 1,-0.44772 1,-1c0,-0.55228 -0.44772,-1 -1,-1zM13.5,43.91992c-0.55228,0 -1,0.44772 -1,1c0,0.55228 0.44772,1 1,1c0.55228,0 1,-0.44772 1,-1c0,-0.55228 -0.44772,-1 -1,-1zM36.5,43.91992c-0.55228,0 -1,0.44772 -1,1c0,0.55228 0.44772,1 1,1c0.55228,0 1,-0.44772 1,-1c0,-0.55228 -0.44772,-1 -1,-1zM19.04688,46.2168c-0.55228,0 -1,0.44772 -1,1c0,0.55228 0.44772,1 1,1c0.55228,0 1,-0.44772 1,-1c0,-0.55228 -0.44772,-1 -1,-1zM30.95313,46.2168c-0.55228,0 -1,0.44772 -1,1c0,0.55228 0.44772,1 1,1c0.55228,0 1,-0.44772 1,-1c0,-0.55228 -0.44772,-1 -1,-1zM25,47c-0.55228,0 -1,0.44772 -1,1c0,0.55228 0.44772,1 1,1c0.55228,0 1,-0.44772 1,-1c0,-0.55228 -0.44772,-1 -1,-1z"></path></g></g></svg>