<svg xmlns="http://www.w3.org/2000/svg" xmlns:xlink="http://www.w3.org/1999/xlink" viewBox="0,0,256,256" width="50px" height="50px" fill-rule="nonzero"><g fill="#4192ec" fill-rule="nonzero" stroke="none" stroke-width="1" stroke-linecap="butt" stroke-linejoin="miter" stroke-miterlimit="10" stroke-dasharray="" stroke-dashoffset="0" font-family="none" font-weight="none" font-size="none" text-anchor="none" style="mix-blend-mode: normal"><g transform="scale(5.12,5.12)"><path d="M19.98438,0.98438c-0.55078,0.01172 -0.99219,0.46484 -0.98437,1.01563v6c-0.00391,0.35938 0.18359,0.69531 0.49609,0.87891c0.3125,0.17969 0.69531,0.17969 1.00781,0c0.3125,-0.18359 0.5,-0.51953 0.49609,-0.87891v-6c0.00391,-0.26953 -0.10156,-0.53125 -0.29297,-0.72266c-0.19141,-0.19141 -0.45312,-0.29687 -0.72266,-0.29297zM10.98828,3.99219c-0.40625,0 -0.76953,0.24609 -0.92578,0.62109c-0.15234,0.37891 -0.0625,0.80859 0.23047,1.09375l4,4c0.25,0.26172 0.625,0.36719 0.97266,0.27344c0.35156,-0.08984 0.625,-0.36328 0.71484,-0.71484c0.09375,-0.34766 -0.01172,-0.72266 -0.27344,-0.97266l-4,-4c-0.1875,-0.19531 -0.44531,-0.30078 -0.71875,-0.30078zM28.98047,3.99219c-0.26172,0.00391 -0.50781,0.11328 -0.6875,0.30078l-4,4c-0.26172,0.25 -0.36719,0.625 -0.27344,0.97266c0.08984,0.35156 0.36328,0.625 0.71484,0.71484c0.34766,0.09375 0.72266,-0.01172 0.97266,-0.27344l4,-4c0.29688,-0.28906 0.38281,-0.72656 0.22266,-1.10547c-0.16016,-0.38281 -0.53516,-0.625 -0.94922,-0.60937zM39.17188,5.00781c-0.98047,0 -1.96484,0.37109 -2.70703,1.11328l-18.23828,18.23828c-0.30078,-0.55078 -0.44922,-0.84375 -1.00781,-1.80078c-0.92969,-1.58203 -1.96484,-3.29687 -2.90625,-4.24219c-1.44531,-1.44531 -3.44531,-2.44531 -5.32031,-2.95703c-0.93359,-0.25391 -1.83984,-0.38672 -2.66797,-0.35547c-0.82812,0.03125 -1.62891,0.20703 -2.23828,0.8125l-1.79297,1.79297c-0.39062,0.39063 -0.39062,1.02734 0,1.41797l5.48828,5.48828l4.26953,12.80078c0.05078,0.14844 0.13281,0.28125 0.24219,0.39063l7.85156,7.85156c3.22656,3.22656 8.48438,3.22656 11.71094,0l1.73047,-1.73047h-0.41406c0.26563,0 0.51953,-0.10547 0.70703,-0.29297l9,-9c1.48438,-1.48828 1.48438,-3.92578 0,-5.41406c-0.59766,-0.59766 -1.35547,-0.88672 -2.13281,-1.00391c0.47656,-1.35156 0.20703,-2.92187 -0.86719,-3.99609c-0.59766,-0.59766 -1.35547,-0.88672 -2.13281,-1.00391c0.47656,-1.35156 0.20703,-2.92187 -0.86719,-3.99609c-0.47656,-0.47656 -1.0625,-0.74219 -1.67187,-0.91406l6.67188,-6.67187c1.48828,-1.48828 1.48828,-3.92578 0,-5.41406c-0.74219,-0.74219 -1.72656,-1.11328 -2.70703,-1.11328zM39.17188,6.99219c0.46484,0 0.92969,0.17969 1.29297,0.54297c0.72266,0.72266 0.72266,1.86328 0,2.58594l-9,9c-0.37891,0.39453 -0.37109,1.01563 0.01563,1.39844c0.38281,0.38672 1.00391,0.39453 1.39844,0.01563c0.72266,-0.72266 1.86328,-0.72266 2.58594,0c0.72266,0.72266 0.72266,1.86328 0,2.58594l-1,1c-0.37891,0.39453 -0.37109,1.01563 0.01563,1.39844c0.38281,0.38672 1.00391,0.39453 1.39844,0.01563c0.72266,-0.72266 1.86328,-0.72266 2.58594,0c0.72266,0.72266 0.72266,1.86328 0,2.58594l-1,1c-0.37891,0.39453 -0.37109,1.01563 0.01563,1.39844c0.38281,0.38672 1.00391,0.39453 1.39844,0.01563c0.72266,-0.72266 1.86328,-0.72266 2.58594,0c0.72266,0.72266 0.72266,1.86328 0,2.58984l-9,8.99609l-2.02344,2.02344c-2.46094,2.46094 -6.42187,2.46094 -8.88281,0l-7.68359,-7.6875l-4.26953,-12.80078c-0.05078,-0.14453 -0.13281,-0.27734 -0.24219,-0.39062l-4.94922,-4.94922l1.08594,-1.08594c0.04688,-0.04687 0.35547,-0.20703 0.90234,-0.22656c0.54688,-0.01953 1.28125,0.07422 2.06641,0.28906c1.56641,0.42578 3.32422,1.33203 4.43359,2.44141c0.52344,0.52734 1.6875,2.29297 2.58984,3.83203c0.90234,1.54297 1.625,2.90234 1.625,2.90234c0.14844,0.28125 0.42188,0.47266 0.73438,0.51953c0.3125,0.04688 0.63281,-0.05859 0.85547,-0.28125l19.17188,-19.17187c0.36328,-0.36328 0.82813,-0.54297 1.29297,-0.54297z"></path></g></g></svg>