<?xml version="1.0" encoding="UTF-8" standalone="no"?><!DOCTYPE svg PUBLIC "-//W3C//DTD SVG 1.1//EN" "http://www.w3.org/Graphics/SVG/1.1/DTD/svg11.dtd"><svg width="100%" height="100%" viewBox="0 0 50 50" version="1.1" xmlns="http://www.w3.org/2000/svg" xmlns:xlink="http://www.w3.org/1999/xlink" xml:space="preserve" xmlns:serif="http://www.serif.com/" style="fill-rule:evenodd;clip-rule:evenodd;stroke-linejoin:round;stroke-miterlimit:2;"><g><g><path d="M6,3c-2.199,0 -4,1.801 -4,4c0,2.199 1.801,4 4,4c2.199,0 4,-1.801 4,-4c0,-2.199 -1.801,-4 -4,-4Zm0,2c1.117,0 2,0.883 2,2c0,1.117 -0.883,2 -2,2c-1.117,0 -2,-0.883 -2,-2c0,-1.117 0.883,-2 2,-2Zm6,1c-0.551,0 -1,0.449 -1,1c0,0.551 0.449,1 1,1c0.551,0 1,-0.449 1,-1c0,-0.551 -0.449,-1 -1,-1Zm4,0c-0.551,0 -1,0.449 -1,1c0,0.551 0.449,1 1,1c0.551,0 1,-0.449 1,-1c0,-0.551 -0.449,-1 -1,-1Zm4,0c-0.551,0 -1,0.449 -1,1c0,0.551 0.449,1 1,1c0.551,0 1,-0.449 1,-1c0,-0.551 -0.449,-1 -1,-1Zm4,0c-0.551,0 -1,0.449 -1,1c0,0.551 0.449,1 1,1c0.551,0 1,-0.449 1,-1c0,-0.551 -0.449,-1 -1,-1Zm4,0c-0.551,0 -1,0.449 -1,1c0,0.551 0.449,1 1,1c0.551,0 1,-0.449 1,-1c0,-0.551 -0.449,-1 -1,-1Zm4,0c-0.551,0 -1,0.449 -1,1c0,0.551 0.449,1 1,1c0.551,0 1,-0.449 1,-1c0,-0.551 -0.449,-1 -1,-1Zm4,0c-0.551,0 -1,0.449 -1,1c0,0.551 0.449,1 1,1c0.551,0 1,-0.449 1,-1c0,-0.551 -0.449,-1 -1,-1Zm4,0c-0.551,0 -1,0.449 -1,1c0,0.551 0.449,1 1,1c0.551,0 1,-0.449 1,-1c0,-0.551 -0.449,-1 -1,-1Zm4,0c-0.551,0 -1,0.449 -1,1c0,0.551 0.449,1 1,1c0.551,0 1,-0.449 1,-1c0,-0.551 -0.449,-1 -1,-1Zm0,4c-0.551,0 -1,0.449 -1,1c0,0.551 0.449,1 1,1c0.551,0 1,-0.449 1,-1c0,-0.551 -0.449,-1 -1,-1Zm-20,4c-3.301,0 -6,2.699 -6,6c0,0.992 0.367,2.051 0.855,3.258c0.485,1.207 1.125,2.519 1.758,3.738c1.27,2.442 2.532,4.524 2.532,4.524c0.179,0.3 0.503,0.48 0.855,0.48c0.352,0 0.676,-0.18 0.855,-0.48c0,-0 1.262,-2.082 2.532,-4.524c0.633,-1.219 1.273,-2.531 1.758,-3.738c0.488,-1.207 0.855,-2.266 0.855,-3.258c0,-3.301 -2.699,-6 -6,-6Zm20,0c-0.551,0 -1,0.449 -1,1c0,0.551 0.449,1 1,1c0.551,0 1,-0.449 1,-1c0,-0.551 -0.449,-1 -1,-1Zm-20,2c2.219,0 4,1.781 4,4c0,0.387 -0.258,1.398 -0.707,2.512c-0.453,1.109 -1.063,2.379 -1.68,3.562c-0.804,1.547 -1.152,2.09 -1.613,2.879c-0.461,-0.789 -0.809,-1.332 -1.613,-2.879c-0.617,-1.183 -1.227,-2.453 -1.68,-3.562c-0.449,-1.114 -0.707,-2.125 -0.707,-2.512c0,-2.219 1.781,-4 4,-4Zm20,1c-2.199,0 -4,1.801 -4,4c0,2.199 1.801,4 4,4c2.199,0 4,-1.801 4,-4c0,-2.199 -1.801,-4 -4,-4Zm-20,1c-1.105,0 -2,0.895 -2,2c0,1.105 0.895,2 2,2c1.105,0 2,-0.895 2,-2c0,-1.105 -0.895,-2 -2,-2Zm20,1c1.117,0 2,0.883 2,2c0,1.117 -0.883,2 -2,2c-1.117,0 -2,-0.883 -2,-2c0,-1.117 0.883,-2 2,-2Zm0,7c-0.551,0 -1,0.449 -1,1c0,0.551 0.449,1 1,1c0.551,0 1,-0.449 1,-1c0,-0.551 -0.449,-1 -1,-1Zm-40,4c-0.551,0 -1,0.449 -1,1c0,0.551 0.449,1 1,1c0.551,0 1,-0.449 1,-1c0,-0.551 -0.449,-1 -1,-1Zm4,0c-0.551,0 -1,0.449 -1,1c0,0.551 0.449,1 1,1c0.551,0 1,-0.449 1,-1c0,-0.551 -0.449,-1 -1,-1Zm4,0c-0.551,0 -1,0.449 -1,1c0,0.551 0.449,1 1,1c0.551,0 1,-0.449 1,-1c0,-0.551 -0.449,-1 -1,-1Zm4,0c-0.551,0 -1,0.449 -1,1c0,0.551 0.449,1 1,1c0.551,0 1,-0.449 1,-1c0,-0.551 -0.449,-1 -1,-1Zm4,0c-0.551,0 -1,0.449 -1,1c0,0.551 0.449,1 1,1c0.551,0 1,-0.449 1,-1c0,-0.551 -0.449,-1 -1,-1Zm8,0c-0.551,0 -1,0.449 -1,1c0,0.551 0.449,1 1,1c0.551,0 1,-0.449 1,-1c0,-0.551 -0.449,-1 -1,-1Zm4,0c-0.551,0 -1,0.449 -1,1c0,0.551 0.449,1 1,1c0.551,0 1,-0.449 1,-1c0,-0.551 -0.449,-1 -1,-1Zm4,0c-0.551,0 -1,0.449 -1,1c0,0.551 0.449,1 1,1c0.551,0 1,-0.449 1,-1c0,-0.551 -0.449,-1 -1,-1Zm4,0c-0.551,0 -1,0.449 -1,1c0,0.551 0.449,1 1,1c0.551,0 1,-0.449 1,-1c0,-0.551 -0.449,-1 -1,-1Zm4,0c-0.551,0 -1,0.449 -1,1c0,0.551 0.449,1 1,1c0.551,0 1,-0.449 1,-1c0,-0.551 -0.449,-1 -1,-1Zm-40,4c-0.551,0 -1,0.449 -1,1c0,0.551 0.449,1 1,1c0.551,0 1,-0.449 1,-1c0,-0.551 -0.449,-1 -1,-1Zm0,4c-0.551,0 -1,0.449 -1,1c0,0.551 0.449,1 1,1c0.551,0 1,-0.449 1,-1c0,-0.551 -0.449,-1 -1,-1Zm39,1c-2.199,0 -4,1.801 -4,4c0,2.199 1.801,4 4,4c2.199,0 4,-1.801 4,-4c0,-2.199 -1.801,-4 -4,-4Zm0,2c1.117,0 2,0.883 2,2c0,1.117 -0.883,2 -2,2c-1.117,0 -2,-0.883 -2,-2c0,-1.117 0.883,-2 2,-2Zm-39,1c-0.551,0 -1,0.449 -1,1c0,0.551 0.449,1 1,1c0.551,0 1,-0.449 1,-1c0,-0.551 -0.449,-1 -1,-1Zm4,0c-0.551,0 -1,0.449 -1,1c0,0.551 0.449,1 1,1c0.551,0 1,-0.449 1,-1c0,-0.551 -0.449,-1 -1,-1Zm4,0c-0.551,0 -1,0.449 -1,1c0,0.551 0.449,1 1,1c0.551,0 1,-0.449 1,-1c0,-0.551 -0.449,-1 -1,-1Zm4,0c-0.551,0 -1,0.449 -1,1c0,0.551 0.449,1 1,1c0.551,0 1,-0.449 1,-1c0,-0.551 -0.449,-1 -1,-1Zm4,0c-0.551,0 -1,0.449 -1,1c0,0.551 0.449,1 1,1c0.551,0 1,-0.449 1,-1c0,-0.551 -0.449,-1 -1,-1Zm4,0c-0.551,0 -1,0.449 -1,1c0,0.551 0.449,1 1,1c0.551,0 1,-0.449 1,-1c0,-0.551 -0.449,-1 -1,-1Zm4,0c-0.551,0 -1,0.449 -1,1c0,0.551 0.449,1 1,1c0.551,0 1,-0.449 1,-1c0,-0.551 -0.449,-1 -1,-1Zm4,0c-0.551,0 -1,0.449 -1,1c0,0.551 0.449,1 1,1c0.551,0 1,-0.449 1,-1c0,-0.551 -0.449,-1 -1,-1Zm4,0c-0.551,0 -1,0.449 -1,1c0,0.551 0.449,1 1,1c0.551,0 1,-0.449 1,-1c0,-0.551 -0.449,-1 -1,-1Z" style="fill:#d7dce3;fill-rule:nonzero;"/></g></g></svg>