<svg xmlns="http://www.w3.org/2000/svg" xmlns:xlink="http://www.w3.org/1999/xlink" viewBox="0,0,256,256" width="50px" height="50px" fill-rule="nonzero"><g fill="#679941" fill-rule="nonzero" stroke="none" stroke-width="1" stroke-linecap="butt" stroke-linejoin="miter" stroke-miterlimit="10" stroke-dasharray="" stroke-dashoffset="0" font-family="none" font-weight="none" font-size="none" text-anchor="none" style="mix-blend-mode: normal"><g transform="scale(5.12,5.12)"><path d="M26.96484,2c-0.0248,0.00103 -0.04956,0.00299 -0.07422,0.00586c-11.28835,1.18198 -20.83056,10.35892 -21.81055,21.73242c-0.58103,6.73618 2.22849,14.20874 6.14648,18.90234c0.26975,0.32286 0.71271,0.44238 1.10826,0.29902c0.39554,-0.14336 0.65907,-0.51893 0.65932,-0.93965v-7c0,-1.37248 0.40064,-2.78861 1.09375,-3.98828c0.1188,1.05706 0.34452,2.08179 0.69336,3.05078c1.35361,3.75793 1.38548,7.82015 -0.21289,11.41602l-0.49414,1.11523c-0.13735,0.30907 -0.10919,0.66662 0.07486,0.95037c0.18405,0.28375 0.49904,0.45526 0.83725,0.45588c3.44426,0 6.8403,-0.80251 9.91992,-2.3418l5.17578,-2.58789l13.56641,4.87109c0.36984,0.1335 0.78358,0.0379 1.05737,-0.24431c0.27379,-0.28221 0.3568,-0.69866 0.21216,-1.06429l-3.80469,-9.63281h2.88086c0.33143,0.00006 0.64136,-0.16409 0.82755,-0.43828c0.18619,-0.27419 0.22444,-0.62282 0.10214,-0.93086l-2.73437,-6.87305c0,-0.00065 0,-0.0013 0,-0.00195c-0.23028,-0.57565 -0.44949,-1.14355 -0.63672,-1.71094c-0.3502,-1.06187 -1.23334,-3.36163 -3.00586,-5.61523c-0.89972,-1.14391 -2.04258,-2.27536 -3.45312,-3.20898l9.30273,-9.30273c0.19912,-0.19865 0.30538,-0.47196 0.29274,-0.75294c-0.01264,-0.28098 -0.14301,-0.54365 -0.35915,-0.72362c-3.57773,-2.98509 -8.04201,-4.94317 -12.93555,-5.43555c-0.32444,-0.03266 -0.64443,0.0949 -0.85742,0.3418l-2.54297,2.95703v-2.30469c0.00009,-0.27036 -0.10929,-0.52924 -0.3032,-0.71764c-0.19392,-0.1884 -0.45584,-0.29025 -0.72609,-0.28236zM31.68359,4.08203c3.90244,0.48229 7.41611,2.06164 10.4082,4.31055l-5.69141,5.69336c-2.50936,-1.32726 -5.36855,-2.08594 -8.40039,-2.08594c-9.92942,0 -18,8.07058 -18,18c0,2.06226 0.35457,4.04476 0.99414,5.89258v2.82617c-2.58353,-4.23308 -4.34902,-9.8565 -3.92188,-14.80859c0.8595,-9.97512 9.08073,-18.14397 18.92188,-19.69922v3.78906c-0.00079,0.41896 0.25964,0.794 0.65248,0.93962c0.39283,0.14562 0.8348,0.03096 1.10729,-0.28728zM28,14c2.47987,0 4.82026,0.56784 6.91211,1.57227l-1.64453,1.64648c-0.93215,-0.4246 -1.94567,-0.76859 -3.06836,-0.97656c-0.99318,-0.18397 -1.98194,-0.2541 -2.95508,-0.2207c-6.54048,0.22447 -12.3042,5.14534 -13.13867,11.80078c-0.02512,0.0203 -0.04923,0.04181 -0.07227,0.06445c-0.83853,0.76983 -1.5068,1.70595 -2.00781,2.72656c-0.00776,-0.20473 -0.02539,-0.40655 -0.02539,-0.61328c0,-8.84858 7.15142,-16 16,-16zM27.30859,18.01953c0.83167,-0.02839 1.67828,0.03218 2.52734,0.18945c3.31412,0.61393 5.5777,2.47239 7.13867,4.45703c1.13938,1.44862 1.87487,2.94962 2.31055,4.01758c-0.2662,-0.03075 -0.53378,-0.05267 -0.80469,-0.05664c-2.70605,-0.03968 -5.5624,1.25682 -6.95703,3.9082l-0.22266,0.42578l0.19141,0.43945c0.92664,2.11736 3.04299,3.59961 5.49414,3.59961c0.39321,0 0.77267,-0.04513 1.13867,-0.11914l4.11914,10.43164l-11.88867,-4.26953c-0.25714,-0.09227 -0.54083,-0.07533 -0.78516,0.04688l-5.55859,2.7793c-2.3302,1.1647 -4.87546,1.74612 -7.46289,1.94922c1.62633,-3.9966 1.56344,-8.40762 0.11328,-12.43359c-0.5131,-1.42528 -0.75289,-2.97749 -0.65234,-4.60742c0,-0.00065 0,-0.0013 0,-0.00195c0.36904,-6.01487 5.47712,-10.55712 11.29883,-10.75586zM38.6543,28.67188c0.51518,0.0066 1.00396,0.09547 1.45898,0.23828c0.07503,0.19467 0.14205,0.39808 0.21875,0.58984l2.18945,5.5h-2.19922l-0.66797,-1.69141c-0.00129,-0.00261 -0.00259,-0.00521 -0.00391,-0.00781c-0.01108,-0.02855 -0.02346,-0.05657 -0.03711,-0.08398c-0.00065,-0.00065 -0.0013,-0.0013 -0.00195,-0.00195c-0.00064,-0.00196 -0.0013,-0.00391 -0.00195,-0.00586c-0.03005,-0.05596 -0.06537,-0.10894 -0.10547,-0.1582c-0.00194,-0.00261 -0.00389,-0.00522 -0.00586,-0.00781c-0.01913,-0.0237 -0.03933,-0.04651 -0.06055,-0.06836c-0.00194,-0.00196 -0.0039,-0.00391 -0.00586,-0.00586c-0.02122,-0.02117 -0.04338,-0.04137 -0.06641,-0.06055c-0.00259,-0.00197 -0.0052,-0.00392 -0.00781,-0.00586c-0.02325,-0.01931 -0.04736,-0.03756 -0.07227,-0.05469c-0.00259,-0.00197 -0.0052,-0.00392 -0.00781,-0.00586c-0.02532,-0.0168 -0.05138,-0.03244 -0.07812,-0.04687c-0.0026,-0.00131 -0.0052,-0.00262 -0.00781,-0.00391c-0.02674,-0.01426 -0.05411,-0.02729 -0.08203,-0.03906c-0.00325,-0.00132 -0.0065,-0.00262 -0.00977,-0.00391c-0.02755,-0.01101 -0.05557,-0.02078 -0.08398,-0.0293c-0.06744,-0.02027 -0.13684,-0.03336 -0.20703,-0.03906c-0.03964,-0.00302 -0.07942,-0.00367 -0.11914,-0.00195c-0.09701,0.00301 -0.19307,0.02011 -0.28516,0.05078c-0.00982,0.0031 -0.01958,0.00636 -0.0293,0.00977c-0.44595,0.1662 -0.90835,0.26172 -1.38867,0.26172c-1.4457,0 -2.60626,-0.83778 -3.30859,-1.97852c1.11397,-1.55718 3.1532,-2.37297 4.97656,-2.34961z"></path></g></g></svg>