<svg xmlns="http://www.w3.org/2000/svg" xmlns:xlink="http://www.w3.org/1999/xlink" viewBox="0,0,256,256" width="50px" height="50px" fill-rule="nonzero"><g fill="#4192ec" fill-rule="nonzero" stroke="none" stroke-width="1" stroke-linecap="butt" stroke-linejoin="miter" stroke-miterlimit="10" stroke-dasharray="" stroke-dashoffset="0" font-family="none" font-weight="none" font-size="none" text-anchor="none" style="mix-blend-mode: normal"><g transform="scale(5.12,5.12)"><path d="M25,2c-12.683,0 -23,10.318 -23,23c0,12.682 10.317,23 23,23c1.9,0 3.74472,-0.23588 5.51172,-0.67187c-0.434,-0.561 -0.82039,-1.15802 -1.15039,-1.79102c-1.408,0.299 -2.86533,0.46289 -4.36133,0.46289c-11.579,0 -21,-9.42 -21,-21c0,-11.58 9.421,-21 21,-21c11.579,0 21,9.42 21,21c0,1.496 -0.16389,2.95333 -0.46289,4.36133c0.633,0.33 1.23002,0.71739 1.79102,1.15039c0.436,-1.767 0.67188,-3.61172 0.67188,-5.51172c0,-12.682 -10.317,-23 -23,-23zM24.98438,6.98633c-0.55152,0.00862 -0.99193,0.46214 -0.98437,1.01367v14.17578c-0.8001,0.28422 -1.44229,0.89418 -1.7673,1.6786c-0.32501,0.78442 -0.3024,1.66983 0.06223,2.43664l-6.00195,6.00195c-0.26124,0.25082 -0.36648,0.62327 -0.27512,0.97371c0.09136,0.35044 0.36503,0.62411 0.71547,0.71547c0.35044,0.09136 0.72289,-0.01388 0.97371,-0.27512l6,-6c0.40375,0.19286 0.84552,0.29296 1.29297,0.29297c1.46078,-0.00042 2.7089,-1.05293 2.95594,-2.49267c0.24703,-1.43974 -0.57885,-2.84812 -1.95594,-3.33546v-14.17187c0.0037,-0.2703 -0.10218,-0.53059 -0.29351,-0.72155c-0.19133,-0.19097 -0.45182,-0.29634 -0.72212,-0.29212zM40,30c-5.5,0 -10,4.5 -10,10c0,5.5 4.5,10 10,10c5.5,0 10,-4.5 10,-10c0,-5.5 -4.5,-10 -10,-10zM40,32c4.4,0 8,3.6 8,8c0,4.4 -3.6,8 -8,8c-4.4,0 -8,-3.6 -8,-8c0,-4.4 3.6,-8 8,-8zM44.30078,35.40039l-5.40039,6.29883l-3.30078,-2.5l-1.19922,1.60156l4.69922,3.59961l6.70117,-7.70117z"></path></g></g></svg>