<svg xmlns="http://www.w3.org/2000/svg" xmlns:xlink="http://www.w3.org/1999/xlink" viewBox="0,0,256,256" width="50px" height="50px" fill-rule="nonzero"><g fill="#679941" fill-rule="nonzero" stroke="none" stroke-width="1" stroke-linecap="butt" stroke-linejoin="miter" stroke-miterlimit="10" stroke-dasharray="" stroke-dashoffset="0" font-family="none" font-weight="none" font-size="none" text-anchor="none" style="mix-blend-mode: normal"><g transform="scale(5.12,5.12)"><path d="M31.84375,0c-0.25,0.04297 -0.47266,0.17578 -0.625,0.375l-3,3.75c-0.47656,0.59766 -1.17969,0.98438 -1.9375,1.09375l-0.28125,0.0625c-3.53906,0.50391 -6.54687,2.86719 -7.875,6.1875l-0.625,1.53125h-1.28125c-2.33984,0 -4.54687,1.17969 -5.84375,3.125l-4.09375,6.15625l-5.84375,3.875c-0.34375,0.23438 -0.50391,0.66016 -0.40625,1.0625l4,18c0.10156,0.45313 0.50391,0.77734 0.96875,0.78125h5.15625c0.44531,1.71875 1.99219,3 3.84375,3c1.19922,0 2.26563,-0.55859 3,-1.40625c0.73438,0.84766 1.80078,1.40625 3,1.40625c1.19922,0 2.26563,-0.55859 3,-1.40625c0.73438,0.84766 1.80078,1.40625 3,1.40625c1.19922,0 2.26563,-0.55859 3,-1.40625c0.73438,0.84766 1.80078,1.40625 3,1.40625c1.85156,0 3.39844,-1.28125 3.84375,-3h4.65625c2.32422,0 4.30078,-1.80859 4.5,-4.125c0.11719,-1.35156 -0.40234,-2.60156 -1.28125,-3.5c1.22266,-0.70703 2.10156,-1.94922 2.25,-3.4375c0.13672,-1.36719 -0.37109,-2.64844 -1.25,-3.5625c1.21094,-0.70312 2.09375,-1.93359 2.25,-3.40625c0.14844,-1.38281 -0.35547,-2.67187 -1.25,-3.59375c1.22266,-0.69922 2.09375,-1.92187 2.25,-3.40625c0.19922,-1.91406 -0.86719,-3.65234 -2.46875,-4.46875l4.34375,-6.96875c0.15234,-0.24219 0.19531,-0.53516 0.12109,-0.80859c-0.07812,-0.27734 -0.26953,-0.50391 -0.52734,-0.62891l-17,-8c-0.18359,-0.08984 -0.39062,-0.125 -0.59375,-0.09375zM32.28125,2.25l15.28125,7.1875l-4.125,6.5625h-17.8125c-0.41016,-0.00391 -0.78516,0.24219 -0.9375,0.625l-3.40625,8.53125c-0.62109,1.55078 -2.35547,2.27734 -3.90625,1.65625c-1.55078,-0.62109 -2.27734,-2.35547 -1.65625,-3.90625l4.28125,-10.71875c1.0625,-2.65625 3.44922,-4.53125 6.28125,-4.9375l0.28125,-0.03125c1.25781,-0.17969 2.42578,-0.85156 3.21875,-1.84375zM16.21875,15h0.5l-2.875,7.1875c-1.02344,2.55469 0.23047,5.47656 2.78125,6.5c2.55469,1.02344 5.47656,-0.26172 6.5,-2.8125l3.15625,-7.875h17.21875c1.5,0 2.65625,1.25781 2.5,2.75c-0.13281,1.28125 -1.21094,2.25 -2.5,2.25h-1.5c-0.03125,0 -0.0625,0 -0.09375,0c-0.0625,0.00391 -0.125,0.01563 -0.1875,0.03125c-0.03125,0.00781 -0.0625,0.01953 -0.09375,0.03125c-0.125,0.03906 -0.24219,0.10156 -0.34375,0.1875c0,0.01172 0,0.01953 0,0.03125c-0.04687,0.03906 -0.08594,0.07813 -0.125,0.125c0,0.01172 0,0.01953 0,0.03125c-0.02344,0.01953 -0.04297,0.03906 -0.0625,0.0625c0,0.01172 0,0.01953 0,0.03125c-0.12891,0.22656 -0.16016,0.49609 -0.09375,0.75c0.01172,0.01172 0.01953,0.01953 0.03125,0.03125c0,0.01953 0,0.04297 0,0.0625c0.01172,0.01172 0.01953,0.01953 0.03125,0.03125c0.01953,0.04297 0.03906,0.08594 0.0625,0.125c0.01172,0.01172 0.01953,0.01953 0.03125,0.03125c0.00781,0.01953 0.01953,0.04297 0.03125,0.0625c0.01172,0.01172 0.01953,0.01953 0.03125,0.03125c0.07031,0.08594 0.15625,0.16016 0.25,0.21875c0.01953,0.01172 0.04297,0.02344 0.0625,0.03125c0.01172,0.01172 0.01953,0.01953 0.03125,0.03125c0.01953,0 0.04297,0 0.0625,0c0.01172,0.01172 0.01953,0.01953 0.03125,0.03125c0.01953,0 0.04297,0 0.0625,0c0.01172,0 0.01953,0 0.03125,0c0.0625,0.01563 0.125,0.02734 0.1875,0.03125c0.01172,0 0.01953,0 0.03125,0c0.01172,0 0.01953,0 0.03125,0h0.5c1.5,0 2.625,1.25781 2.46875,2.75c-0.13672,1.28125 -1.18359,2.25 -2.46875,2.25h-1.5c-0.03125,0 -0.0625,0 -0.09375,0c-0.0625,0.00391 -0.125,0.01563 -0.1875,0.03125c-0.03125,0.00781 -0.0625,0.01953 -0.09375,0.03125c-0.125,0.03906 -0.24219,0.10156 -0.34375,0.1875c0,0.01172 0,0.01953 0,0.03125c-0.04687,0.03906 -0.08594,0.07813 -0.125,0.125c0,0.01172 0,0.01953 0,0.03125c-0.02344,0.01953 -0.04297,0.03906 -0.0625,0.0625c0,0.01172 0,0.01953 0,0.03125c-0.12891,0.22656 -0.16016,0.49609 -0.09375,0.75c0.01172,0.01172 0.01953,0.01953 0.03125,0.03125c0,0.01953 0,0.04297 0,0.0625c0.01172,0.01172 0.01953,0.01953 0.03125,0.03125c0.01953,0.04297 0.03906,0.08594 0.0625,0.125c0.01172,0.01172 0.01953,0.01953 0.03125,0.03125c0.00781,0.01953 0.01953,0.04297 0.03125,0.0625c0.01172,0.01172 0.01953,0.01953 0.03125,0.03125c0.07031,0.08594 0.15625,0.16016 0.25,0.21875c0.01953,0.01172 0.04297,0.02344 0.0625,0.03125c0.01172,0.01172 0.01953,0.01953 0.03125,0.03125c0.01953,0 0.04297,0 0.0625,0c0.01172,0.01172 0.01953,0.01953 0.03125,0.03125c0.01953,0 0.04297,0 0.0625,0c0.01172,0 0.01953,0 0.03125,0c0.0625,0.01563 0.125,0.02734 0.1875,0.03125c0.01172,0 0.01953,0 0.03125,0c0.01172,0 0.01953,0 0.03125,0h0.5c1.49609,0 2.61719,1.26172 2.46875,2.75c-0.12891,1.28516 -1.17578,2.25 -2.46875,2.25h-1.78125c-0.03125,0 -0.0625,0 -0.09375,0c-0.55078,0.02734 -0.98047,0.49609 -0.95312,1.04688c0.02734,0.55078 0.49609,0.98047 1.04688,0.95313h0.78125c1.48047,0 2.62891,1.24219 2.5,2.71875c-0.11328,1.30078 -1.19531,2.28125 -2.5,2.28125h-4.5v-1c0,-2.19922 -1.80078,-4 -4,-4c-1.19922,0 -2.26562,0.55859 -3,1.40625c-0.73437,-0.84766 -1.80078,-1.40625 -3,-1.40625c-1.19922,0 -2.26562,0.55859 -3,1.40625c-0.73437,-0.84766 -1.80078,-1.40625 -3,-1.40625c-1.19922,0 -2.26562,0.55859 -3,1.40625c-0.73437,-0.84766 -1.80078,-1.40625 -3,-1.40625c-2.19922,0 -4,1.80078 -4,4v1h-4.21875l-3.65625,-16.53125l5.4375,-3.625c0.11328,-0.07422 0.20703,-0.16797 0.28125,-0.28125l4.21875,-6.34375c0.92578,-1.39062 2.48438,-2.21875 4.15625,-2.21875zM14,41c1.11719,0 2,0.88281 2,2v2c0,1.11719 -0.88281,2 -2,2c-1.05078,0 -1.90625,-0.78906 -2,-1.8125c0.02734,-0.13281 0.02734,-0.27344 0,-0.40625v-1.78125c0,-1.11719 0.88281,-2 2,-2zM20,41c1.11719,0 2,0.88281 2,2v2c0,1.11719 -0.88281,2 -2,2c-1.11719,0 -2,-0.88281 -2,-2v-2c0,-1.11719 0.88281,-2 2,-2zM26,41c1.11719,0 2,0.88281 2,2v2c0,1.11719 -0.88281,2 -2,2c-1.11719,0 -2,-0.88281 -2,-2v-2c0,-1.11719 0.88281,-2 2,-2zM32,41c1.11719,0 2,0.88281 2,2v1.8125c0,0.03125 0,0.0625 0,0.09375v0.09375c-0.00781,0.07422 -0.00781,0.14453 0,0.21875c-0.10937,1.01172 -0.95703,1.78125 -2,1.78125c-1.11719,0 -2,-0.88281 -2,-2v-2c0,-1.11719 0.88281,-2 2,-2z"></path></g></g></svg>