<?xml version="1.0" encoding="UTF-8" standalone="no"?><!DOCTYPE svg PUBLIC "-//W3C//DTD SVG 1.1//EN" "http://www.w3.org/Graphics/SVG/1.1/DTD/svg11.dtd"><svg width="100%" height="100%" viewBox="0 0 80 80" version="1.1" xmlns="http://www.w3.org/2000/svg" xmlns:xlink="http://www.w3.org/1999/xlink" xml:space="preserve" xmlns:serif="http://www.serif.com/" style="fill-rule:evenodd;clip-rule:evenodd;stroke-linejoin:round;stroke-miterlimit:2;"><path d="M48.386,46.162l-1.317,1.317l7.337,7.336l-7.38,7.394l1.303,1.304l7.394,-7.381l7.38,7.381l1.316,-1.318l-7.379,-7.38l7.336,-7.336l-1.317,-1.317l-7.336,7.337l-7.337,-7.337Z" style="fill:#d7dce3;fill-opacity:0.5;fill-rule:nonzero;stroke:#d7dce3;stroke-width:1px;"/><path d="M49.068,45.48l-0.682,-0.682l-2.681,2.681l7.337,7.337l-7.38,7.393l2.667,2.667l7.393,-7.38l7.38,7.38l2.682,-2.681l-7.38,-7.38l7.336,-7.336l-2.681,-2.681l-7.336,7.336l-6.655,-6.654Z" style="fill:#d7dce3;fill-opacity:0.5;stroke:#d7dce3;stroke-width:1px;"/><path d="M63.314,45.12l-17.116,17.116l2.095,2.095l17.116,-17.116l-2.095,-2.095Z" style="fill:#d7dce3;stroke:#d7dce3;stroke-opacity:0.5;stroke-width:1px;stroke-linecap:round;stroke-miterlimit:1.5;"/><path d="M65.683,62.215l-17.117,-17.117l-2.629,2.629l17.117,17.117l2.629,-2.629Z" style="fill:#d7dce3;stroke:#d7dce3;stroke-opacity:0.5;stroke-width:1px;stroke-linecap:round;stroke-miterlimit:1.5;"/><path d="M74.074,6.382l-68.376,0l0,68.376l68.376,0l0,-68.376Zm-3.561,3.561l0,61.254l-61.254,0l0,-61.254l61.254,0Z" style="fill:#d7dce3;stroke:#d7dce3;stroke-width:1px;"/><path d="M60.104,26.816c1.444,-0.786 2.437,-2.402 2.437,-4.149c0,-3.228 -2.38,-5.233 -6.208,-5.233l-7.903,0c-0.253,0 -0.457,0.204 -0.457,0.457l0,19.145c0,0.252 0.204,0.456 0.457,0.456l8.085,0c4.292,0 6.957,-2.259 6.957,-5.896c-0,-2.272 -1.313,-4.081 -3.368,-4.78Zm-8.028,-6.19l3.188,0c2.017,0 3.194,1.006 3.194,2.734c0,1.77 -1.256,2.736 -3.62,2.736l-2.762,0l0,-5.47Zm3.478,13.674l-3.478,0l0,-5.47l3.346,0c2.584,0 3.947,0.935 3.947,2.705c-0,1.808 -1.324,2.765 -3.815,2.765Z" style="fill:#d7dce3;fill-rule:nonzero;stroke:#d7dce3;stroke-width:1px;"/><path d="M27.806,16.159l-4.274,-0c-0.085,-0 -0.168,0.022 -0.241,0.066l-5.753,3.573c-0.134,0.083 -0.216,0.23 -0.216,0.387l0,3.467c0,0.165 0.09,0.317 0.234,0.399c0.145,0.08 0.321,0.076 0.462,-0.011l5.687,-3.526l-0,16.157c-0,0.25 0.204,0.455 0.454,0.455l3.647,-0c0.252,-0 0.456,-0.205 0.456,-0.455l0,-20.058c0,-0.25 -0.204,-0.454 -0.456,-0.454Z" style="fill:#d7dce3;fill-rule:nonzero;stroke:#d7dce3;stroke-width:1px;"/><path d="M26.098,44.831c5.563,0 10.08,4.517 10.08,10.081c0,5.564 -4.517,10.081 -10.08,10.081c-5.564,-0 -10.081,-4.517 -10.081,-10.081c-0,-5.564 4.517,-10.081 10.081,-10.081Zm-0,3.485c3.64,0 6.595,2.956 6.595,6.596c0,3.64 -2.955,6.595 -6.595,6.595c-3.641,0 -6.596,-2.955 -6.596,-6.595c0,-3.64 2.955,-6.596 6.596,-6.596Z" style="fill:#d7dce3;stroke:#d7dce3;stroke-width:1px;stroke-linecap:round;stroke-miterlimit:1.5;"/></svg>