<svg xmlns="http://www.w3.org/2000/svg" xmlns:xlink="http://www.w3.org/1999/xlink" viewBox="0,0,256,256" width="50px" height="50px" fill-rule="nonzero"><g fill="#679941" fill-rule="nonzero" stroke="none" stroke-width="1" stroke-linecap="butt" stroke-linejoin="miter" stroke-miterlimit="10" stroke-dasharray="" stroke-dashoffset="0" font-family="none" font-weight="none" font-size="none" text-anchor="none" style="mix-blend-mode: normal"><g transform="scale(5.12,5.12)"><path d="M38,5c-1.43867,0 -3.58872,0.0885 -5.50586,1.10156c-1.91714,1.01306 -3.49414,3.10802 -3.49414,6.44336c0,4.29439 2.66884,6.31544 3.42578,6.81055c0.18634,0.22226 0.46,0.35267 0.75,0.35742c0.46751,0.79621 1.09803,1.54547 1.60352,1.99805v0.06836c0.01,0.56 0.01094,1.06164 -0.03906,1.68164c-0.09,0.17 -0.2507,0.31875 -0.4707,0.46875c0.16,0.64 0.2307,1.34031 0.2207,2.07031v0.09961c1,-0.47 1.80992,-1.06906 2.16992,-2.03906c0.03,-0.08 0.05055,-0.16977 0.06055,-0.25977c0.07,-0.8 0.06859,-1.40102 0.05859,-2.04102v-0.5293c0,-0.37 -0.17,-0.69109 -0.5,-0.87109c-0.43,-0.28 -1.67,-1.78953 -1.75,-2.51953c-0.00264,-0.02419 -0.01725,-0.04282 -0.02148,-0.06641c0.76991,-2.25637 2.14007,-4.36965 3.51563,-6.12109c0.97597,1.19581 2.65854,3.4938 3.46875,5.98828c-0.02028,0.06421 -0.03402,0.1303 -0.04102,0.19727c-0.0218,0.20342 -0.37246,0.93715 -0.8125,1.50977c-0.22002,0.28631 -0.45186,0.54939 -0.64062,0.74023c-0.18877,0.19084 -0.41978,0.33428 -0.26953,0.25586c-0.33022,0.17247 -0.5372,0.51418 -0.53711,0.88672c0,0.8406 -0.03328,1.5537 0.05859,2.56641c0.02659,0.29308 0.18091,0.55957 0.42188,0.72852c0.44725,0.70109 1.09332,1.21542 1.8125,1.55469c0.88705,0.41845 1.87022,0.71336 2.80664,1.05273c0.93643,0.33938 1.81536,0.72009 2.46484,1.20703c0.64949,0.48694 1.07755,1.03418 1.26953,1.88086c0.0687,0.35904 0.32782,0.65198 0.67578,0.76401c0.34796,0.11203 0.72932,0.02529 0.9946,-0.22623c0.26527,-0.25151 0.37219,-0.62772 0.27884,-0.98115c-0.30301,-1.33632 -1.09261,-2.34217 -2.01953,-3.03711c-0.92692,-0.69494 -1.98322,-1.12616 -2.98242,-1.48828c-0.9992,-0.36212 -1.94915,-0.65704 -2.63477,-0.98047c-0.6712,-0.31663 -0.99044,-0.61651 -1.10352,-0.89453c-0.04221,-0.5953 -0.03797,-1.12757 -0.0332,-1.70312c0.0624,-0.06212 0.14615,-0.10433 0.21875,-0.17773c0.25395,-0.25675 0.53183,-0.57462 0.80469,-0.92969c0.21336,-0.27764 0.42128,-0.57521 0.61133,-0.88672c0.13309,-0.00469 0.2639,-0.0359 0.38477,-0.0918c0.01249,-0.00561 0.02486,-0.01147 0.03711,-0.01758c0.07541,-0.03849 0.14564,-0.0864 0.20898,-0.14258c0.55513,-0.34169 3.5332,-2.36107 3.5332,-6.88281c0,-3.33638 -1.58299,-5.43079 -3.50195,-6.44336c-1.89065,-0.99763 -3.99856,-1.09684 -5.42773,-1.09961c-0.02341,-0.00148 -0.04686,-0.00213 -0.07031,-0.00195zM12.02344,6.00391c-2.634,0 -4.72861,0.77836 -6.22461,2.31836c-2.963,3.039 -2.79844,8.67752 -2.77344,11.47852c0.004,0.44 0.01953,0.84117 0.01953,1.20117c0,1.70082 1.03263,3.06556 2.5,4.0625c-0.74553,0.25919 -1.5309,0.54941 -2.29883,0.93945c-1.41632,0.71936 -2.79222,1.88761 -3.2207,3.77539c-0.09541,0.35431 0.01087,0.73241 0.2769,0.98513c0.26603,0.25272 0.64908,0.33946 0.99803,0.22601c0.34895,-0.11345 0.60775,-0.40888 0.67429,-0.76973c0.27152,-1.19622 1.03405,-1.85271 2.17773,-2.43359c1.14368,-0.58089 2.59792,-0.96394 3.89063,-1.49805c0.0072,-0.00317 0.01436,-0.00643 0.02148,-0.00977c1.33163,0.46116 2.7337,0.7207 3.95898,0.7207c1.695,0 4.01986,-0.53984 5.50586,-1.83984c0.06,-0.77 0.21975,-1.49016 0.46875,-2.16016c0.21,-0.57 0.47959,-1.10984 0.80859,-1.58984c-0.00108,-0.0015 -0.00282,-0.00241 -0.00391,-0.00391c0.06916,-0.09879 0.13787,-0.19819 0.20703,-0.28711c0.00159,-0.00213 0.00426,-0.00373 0.00586,-0.00586c0.00057,0.00261 -0.00065,0.00521 0,0.00781c0.03,-0.04 0.05961,-0.07914 0.09961,-0.11914c0.498,-0.65 1.12747,-1.21039 1.85547,-1.65039c-0.189,-4.889 -1.22734,-8.73922 -2.90234,-10.69922c-2.284,-2.78 -5.93492,-2.65844 -6.04492,-2.64844zM38,7c0.42104,0 0.902,0.02605 1.39844,0.06836c-1.95371,1.88758 -5.22026,5.50176 -6.74414,9.94922c-0.75328,-0.75546 -1.6543,-2.12969 -1.6543,-4.47266c0,-2.76366 1.03738,-3.94109 2.42773,-4.67578c1.39036,-0.73469 3.24094,-0.86914 4.57227,-0.86914zM41.83008,7.55469c0.2537,0.09145 0.50157,0.19161 0.73438,0.31445c1.39328,0.73518 2.43555,1.91316 2.43555,4.67578c0,2.30098 -0.86852,3.66517 -1.61328,4.42969c-1.0066,-3.14044 -3.03497,-5.73692 -4.04883,-6.90039c1.13491,-1.27371 2.02014,-2.10063 2.49219,-2.51953zM12.12695,8.60547c1.35222,0 2.33633,0.47306 3.05469,1.31055c0.71836,0.83749 1.16992,2.09707 1.16992,3.7207c0,0.29412 -0.16043,1.74963 -0.26367,2.17969c-0.10066,0.41862 -0.59339,1.75821 -1.33594,2.83203c-0.74255,1.07382 -1.65767,1.83008 -2.62305,1.83008c-0.96738,0 -1.88192,-0.75825 -2.625,-1.83203c-0.48551,-0.70158 -0.84938,-1.49485 -1.08203,-2.0918c-0.09557,-0.39281 -0.17737,-0.79504 -0.23828,-1.20313c-0.15175,-1.0166 -0.18665,-1.99864 -0.1875,-2.91601c0.16565,-1.05228 0.54676,-1.90225 1.07617,-2.51953c0.71841,-0.83765 1.70257,-1.31055 3.05469,-1.31055zM6.00391,11.58398c-0.00645,0.21814 -0.00667,0.45052 -0.00781,0.68555c-0.06182,0.44074 -0.09375,0.89658 -0.09375,1.36719c0,1.28616 0.17342,2.04273 0.31836,2.64648c0.06372,0.26498 0.18039,0.61204 0.32227,0.98633c0.30347,1.17607 0.75541,2.32027 1.48242,3.29688c1.05971,1.42353 2.76032,2.43359 4.97461,2.43359h2h1.74023c-0.768,1.36 -3.0608,2 -4.7168,2c-3.143,0 -6.98438,-1.84805 -6.98438,-3.99805c0,-0.37 -0.00953,-0.79 -0.01953,-1.25c-0.05473,-2.3683 -0.12109,-5.67548 0.98438,-8.16797zM18.31445,14.17383c0.41152,1.78021 0.69127,4.03648 0.69141,6.82617h-3.62695c0.38525,-0.38002 0.72793,-0.79597 1.01758,-1.21484c0.9257,-1.33868 1.44738,-2.71458 1.63672,-3.50195c0.14785,-0.61588 0.24047,-1.43302 0.28125,-2.10937zM25.96094,19.99805c-0.00587,0.0006 -0.01173,0.00125 -0.01758,0.00195c-2.05158,0.03722 -3.68558,0.6279 -4.79687,1.69336c-1.11129,1.06546 -1.63159,2.54708 -1.66992,4.11133c-0.02476,1.03509 0.18835,1.96909 0.44141,3.00781c-0.2837,0.41025 -0.48802,0.91425 -0.40625,1.59375c0,0.00065 0,0.0013 0,0.00195c0.09407,0.77455 0.3069,1.36373 0.6543,1.80469c0.14086,0.17879 0.34568,0.18196 0.52148,0.29688c0.20403,0.78303 0.61014,1.46487 1.0625,2.05664c0.27154,0.35522 0.54756,0.67265 0.80078,0.92969c0.07219,0.07328 0.15669,0.11563 0.21875,0.17773c0.0046,0.58385 0.0074,1.12004 -0.03711,1.72852c-0.12231,0.27103 -0.41701,0.56186 -1.06836,0.86914c-0.68554,0.32341 -1.63746,0.6203 -2.63672,0.98242c-0.99925,0.36212 -2.05542,0.79335 -2.98242,1.48828c-0.927,0.69493 -1.71651,1.70076 -2.01953,3.03711c-0.09541,0.35431 0.01086,0.73241 0.27689,0.98513c0.26603,0.25272 0.64909,0.33946 0.99804,0.22601c0.34895,-0.11345 0.60775,-0.40889 0.67429,-0.76974c0.19198,-0.84665 0.61997,-1.39196 1.26953,-1.87891c0.64956,-0.48695 1.52835,-0.86765 2.46484,-1.20703c0.9365,-0.33938 1.92157,-0.63622 2.80859,-1.05469c0.88703,-0.41846 1.76321,-1.00124 2.14453,-2.02148c0.03102,-0.08359 0.05073,-0.17095 0.05859,-0.25977c0.09178,-1.01277 0.05859,-1.72597 0.05859,-2.56836c-0.00029,-0.37297 -0.20809,-0.71478 -0.53906,-0.88672c0.1537,0.07987 -0.07605,-0.0615 -0.26367,-0.25195c-0.18762,-0.19046 -0.41983,-0.45395 -0.63867,-0.74023c-0.43768,-0.57256 -0.78455,-1.30557 -0.80664,-1.51172c-0.04659,-0.43307 -0.3681,-0.78619 -0.79492,-0.87305c-0.04548,-0.05884 -0.17675,-0.27988 -0.24023,-0.79883v-0.00195c-0.01798,-0.16229 0.01989,-0.24723 0.04297,-0.28125c0.33826,-0.2404 0.49291,-0.66473 0.38867,-1.06641c-0.32098,-1.22522 -0.4742,-2.00199 -0.45117,-2.96484c0.02867,-1.16975 0.37773,-2.06776 1.05469,-2.7168c0.67507,-0.64723 1.74731,-1.10366 3.43555,-1.13672c1.1264,0.0023 1.73813,0.35788 1.83594,0.5293c0.1538,0.26897 0.42358,0.45147 0.73047,0.49414c0.83162,0.1151 1.2186,0.43736 1.51758,0.93359c0.29898,0.49623 0.44847,1.22785 0.43945,1.99805c-0.01481,1.24996 -0.21618,2.19489 -0.41797,2.79688c-0.14001,0.41913 0.01165,0.88047 0.37305,1.13477c0.02333,0.03525 0.05869,0.11788 0.03906,0.2793c-0.06293,0.52191 -0.19314,0.74237 -0.23828,0.80078c-0.42619,0.08664 -0.74754,0.43877 -0.79492,0.87109c-0.0218,0.20342 -0.37246,0.93715 -0.8125,1.50977c-0.22002,0.28631 -0.45186,0.54939 -0.64062,0.74023c-0.18877,0.19084 -0.41978,0.33428 -0.26953,0.25586c-0.33022,0.17247 -0.5372,0.51418 -0.53711,0.88672c0,0.8406 -0.03328,1.5537 0.05859,2.56641c0.02659,0.29308 0.18091,0.55957 0.42188,0.72852c0.44725,0.70109 1.09332,1.21542 1.8125,1.55469c0.88705,0.41845 1.87022,0.71336 2.80664,1.05273c0.93643,0.33938 1.81536,0.72009 2.46484,1.20703c0.64949,0.48694 1.07755,1.03418 1.26953,1.88086c0.0687,0.35904 0.32782,0.65198 0.67578,0.76401c0.34796,0.11203 0.72932,0.02529 0.9946,-0.22623c0.26527,-0.25151 0.37219,-0.62772 0.27884,-0.98115c-0.30301,-1.33632 -1.09261,-2.34217 -2.01953,-3.03711c-0.92692,-0.69494 -1.98322,-1.12616 -2.98242,-1.48828c-0.9992,-0.36212 -1.94915,-0.65704 -2.63477,-0.98047c-0.6712,-0.31663 -0.99044,-0.61651 -1.10352,-0.89453c-0.04221,-0.5953 -0.03797,-1.12757 -0.0332,-1.70312c0.0624,-0.06212 0.14615,-0.10433 0.21875,-0.17773c0.25395,-0.25675 0.53183,-0.57462 0.80469,-0.92969c0.45472,-0.59173 0.86142,-1.27381 1.06641,-2.05859c0.17626,-0.11494 0.38245,-0.11597 0.52344,-0.29492c0.34786,-0.44154 0.56279,-1.03158 0.65625,-1.80664h-0.00195c0.08308,-0.68321 -0.12251,-1.18976 -0.41016,-1.60156c0.21045,-0.76948 0.4174,-1.62448 0.43164,-2.82617c0.01198,-1.0228 -0.15629,-2.10817 -0.72656,-3.05469c-0.53283,-0.88438 -1.50029,-1.55287 -2.72266,-1.79492c-0.75689,-0.7719 -1.84232,-1.13086 -3.08008,-1.13086z"></path></g></g></svg>