<svg xmlns="http://www.w3.org/2000/svg" xmlns:xlink="http://www.w3.org/1999/xlink" viewBox="0,0,256,256" width="50px" height="50px" fill-rule="nonzero"><g fill="#4192ec" fill-rule="nonzero" stroke="none" stroke-width="1" stroke-linecap="butt" stroke-linejoin="miter" stroke-miterlimit="10" stroke-dasharray="" stroke-dashoffset="0" font-family="none" font-weight="none" font-size="none" text-anchor="none" style="mix-blend-mode: normal"><g transform="scale(5.12,5.12)"><path d="M25,2c-12.69071,0 -23,10.3093 -23,23c0,12.6907 10.30929,23 23,23c12.69071,0 23,-10.3093 23,-23c0,-12.6907 -10.30929,-23 -23,-23zM25,4c11.60983,0 21,9.39017 21,21c0,11.60983 -9.39017,21 -21,21c-11.60983,0 -21,-9.39017 -21,-21c0,-11.60982 9.39017,-21 21,-21zM24.98438,7.98633c-0.55152,0.00862 -0.99193,0.46214 -0.98437,1.01367v16c-0.0051,0.36064 0.18438,0.69608 0.49587,0.87789c0.3115,0.18181 0.69676,0.18181 1.00825,0c0.3115,-0.18181 0.50097,-0.51725 0.49587,-0.87789v-16c0.0037,-0.2703 -0.10218,-0.53059 -0.29351,-0.72155c-0.19133,-0.19097 -0.45182,-0.29634 -0.72212,-0.29212zM30.01563,8.81836c-0.49199,0.01642 -0.89887,0.38841 -0.95921,0.87696c-0.06034,0.48855 0.24381,0.94836 0.71702,1.08398c5.94106,1.99316 10.22656,7.59639 10.22656,14.2207c0,8.29548 -6.70452,15 -15,15c-8.29548,0 -15,-6.70452 -15,-15c0,-6.62431 4.2855,-12.22754 10.22656,-14.2207c0.46202,-0.14919 0.75015,-0.60866 0.68325,-1.08954c-0.06691,-0.48088 -0.46953,-0.84424 -0.95473,-0.86163c-0.12355,-0.00373 -0.24673,0.01547 -0.36328,0.05664c-6.73894,2.26084 -11.5918,8.62755 -11.5918,16.11523c0,9.37652 7.62348,17 17,17c9.37652,0 17,-7.62348 17,-17c0,-7.48769 -4.85286,-13.85439 -11.5918,-16.11523c-0.12509,-0.04822 -0.25859,-0.07081 -0.39258,-0.06641z"></path></g></g></svg>