<?xml version="1.0" encoding="UTF-8" standalone="no"?><!DOCTYPE svg PUBLIC "-//W3C//DTD SVG 1.1//EN" "http://www.w3.org/Graphics/SVG/1.1/DTD/svg11.dtd"><svg width="100%" height="100%" viewBox="0 0 543 154" version="1.1" xmlns="http://www.w3.org/2000/svg" xmlns:xlink="http://www.w3.org/1999/xlink" xml:space="preserve" xmlns:serif="http://www.serif.com/" style="fill-rule:evenodd;clip-rule:evenodd;stroke-linejoin:round;stroke-miterlimit:2;"><path d="M13.75,153.333c-7.5,0 -14.167,-5.833 -14.167,-14.166l0,-69.167c0,-7.083 4.584,-12.917 11.25,-13.75l45,-0c1.25,-0 2.084,-0.833 2.084,-2.083c-0,-10.417 -0,-20.417 0.416,-30.834c0,-0.833 -0.416,-1.666 -1.25,-2.083c-4.166,-2.5 -5.833,-6.25 -5.416,-10.833c0.416,-4.167 2.5,-7.5 6.666,-9.167c5,-2.5 11.667,-0.833 15,5c2.917,5.417 1.25,12.083 -3.75,15.417c-1.25,0.833 -1.666,1.25 -1.666,2.916l-0,30c-0,2.084 -0,2.084 2.083,2.084l45,-0c7.083,-0 12.917,5.833 12.917,12.916l-0,70.834c-0,6.666 -5.834,12.916 -13.334,12.916l-100.833,0Zm99.583,-48.75c0,-1.25 -0.416,-2.916 -0.416,-4.166c-0.417,-1.667 -0.834,-2.917 -1.25,-4.584c-3.75,-10 -14.584,-15.833 -25,-13.75c-12.917,2.917 -20.834,15.834 -17.5,28.75c3.333,11.667 15,18.75 26.25,16.25c10.416,-2.5 17.916,-11.666 17.916,-22.5Zm-77.083,22.917c12.5,0 22.5,-10.417 22.5,-22.917c0,-12.5 -10.417,-23.333 -22.5,-22.916c-12.5,-0 -22.5,10.416 -22.5,22.916c0,12.5 10,22.917 22.5,22.917Z" style="fill:#fff;fill-rule:nonzero;"/><path d="M51.25,104.583c0,8.334 -6.667,15.417 -15,15.417c-8.333,0 -15,-6.667 -15,-15.417c0,-8.333 6.667,-15.416 15,-15.416c8.333,-0 15,7.083 15,15.416Z" style="fill:#fff;fill-rule:nonzero;"/><path d="M105.833,104.583c0,8.334 -6.666,15.417 -15,15.417c-8.333,0 -15,-6.667 -15,-15.417c0,-8.333 6.667,-15.416 15,-15.416c8.334,-0 15,7.083 15,15.416Z" style="fill:#fff;fill-rule:nonzero;"/><g><g><path d="M199.583,102.083l0,-18.333l-27.5,0l0,18.333l-12.5,0c-1.25,0 -1.666,-0.416 -1.666,-1.666l-0,-60.417c0.416,-4.583 3.333,-7.083 7.5,-7.5l37.5,0c7.083,0 10,2.917 10,10l-0,59.583l-13.334,0Zm-0.416,-32.083l-0,-22.917l-27.5,0l-0,21.667c-0,1.25 0.416,1.25 1.666,1.25l25.834,0Z" style="fill:#fff;fill-rule:nonzero;"/><path d="M346.25,33.333l0,13.75l-41.25,0l0,41.25l27.5,0l-0,-13.75l-18.333,0c-0,-0.416 0.416,-0.833 0.416,-1.25c1.25,-3.75 2.5,-7.5 3.75,-11.25c0.417,-0.833 0.834,-1.25 1.667,-1.25l17.083,0c0.834,0 2.084,0 2.917,0.417c3.75,0.833 6.25,3.333 6.25,7.083l0,26.667c-0.417,4.167 -2.917,6.667 -7.083,7.083l-41.25,0c-4.167,-0.416 -6.667,-3.333 -7.084,-7.5l0,-52.5l0,-2.916c0.417,-2.917 2.917,-5.417 6.667,-5.834l48.75,0Z" style="fill:#fff;fill-rule:nonzero;"/><path d="M479.167,32.917c-1.25,3.75 -2.5,7.5 -3.75,10.833c-0.834,2.917 -0.834,2.917 -4.167,2.917l-33.75,-0l-0,13.75l33.333,-0c5,0.416 8.334,2.916 8.334,8.333l-0,25c-0,5 -2.917,7.917 -7.917,8.333l-47.083,0l-0,-13.75l41.25,0l-0,-13.75l-32.084,0c-6.25,0 -9.166,-2.916 -9.166,-9.166l-0,-23.334l-0,-2.916c0.833,-3.75 3.75,-5.834 7.5,-6.25l47.5,-0Z" style="fill:#fff;fill-rule:nonzero;"/><path d="M370.833,32.917l0,55.416l27.5,0l0,-55.416l14.167,-0l0,59.583c0,0.833 0,1.667 -0.417,2.5c-0.416,3.75 -2.916,6.25 -6.666,6.667c-1.25,-0 -2.084,0.416 -3.334,0.416l-36.666,0c-5.834,-0.416 -8.75,-3.333 -8.75,-8.75l-0,-60.416l14.166,-0Z" style="fill:#fff;fill-rule:nonzero;"/><path d="M265.833,32.917l13.75,-0l0,62.083c-0.416,4.167 -2.916,6.667 -6.666,7.083l-38.334,0c-7.083,0 -10,-2.916 -10,-10l0,-59.166l13.75,-0l0,55l27.5,-0l0,-55Z" style="fill:#fff;fill-rule:nonzero;"/><path d="M540.833,32.917l0,13.75l-18.333,-0l0,55.416l-13.75,0l0,-55.416l-18.333,-0l-0,-13.75l50.416,-0Z" style="fill:#fff;fill-rule:nonzero;"/></g><g><path d="M292.083,136.25c5,2.917 4.167,10.833 -0.833,13.333c-1.667,0.834 -3.75,1.667 -5.833,1.667l-16.667,0c-0.833,0 -1.25,-0.417 -1.25,-1.25l0,-26.25c0,-0.833 0.417,-1.25 1.25,-1.25l15,0c2.083,0 4.167,0.417 5.833,1.667c4.584,2.5 5.417,7.5 2.5,11.666l0,0.417Zm-17.083,8.333l9.583,0c0.417,0 0.834,0 1.25,-0.416c0.834,-0.417 1.25,-0.834 1.25,-2.084c0,-1.25 -0.416,-1.666 -1.25,-2.083c-0.833,-0.417 -1.25,-0.417 -2.083,-0.417l-8.333,0l-0,5l-0.417,0Zm0,-10.833l7.917,0c0.833,0 1.25,0 2.083,-0.417c0.833,-0.416 0.833,-0.833 0.833,-1.666c0,-0.834 -0.416,-1.25 -1.25,-1.667c-0.416,0 -0.833,-0.417 -1.25,-0.417l-8.75,0c0.417,2.084 0.417,2.084 0.417,4.167Z" style="fill:#fff;fill-rule:nonzero;"/><path d="M178.75,138.75c1.667,0.833 2.5,2.5 3.333,4.167c1.667,2.916 2.917,5.416 4.584,8.333c-0.834,0.417 -1.667,0.417 -2.5,0.417l-5,-0c-0.834,-0 -1.25,-0.417 -1.667,-1.25c-1.25,-2.084 -2.083,-3.75 -3.333,-5.834c-1.25,-2.083 -2.917,-3.333 -5,-3.333l-5.417,0l0,9.583c0,0.417 -0.417,0.834 -0.833,0.834l-5.834,-0c-0.416,-0 -0.833,-0.417 -0.833,-0.834l-0,-27.083c-0,-0.417 -0,-0.833 0.833,-0.833l16.25,-0c1.667,-0 3.334,0.416 5,1.25c5.834,2.5 6.667,10 1.25,13.75c-0.416,-0 -0.416,0.416 -0.833,0.833Zm-14.583,-4.167l7.916,0c0.834,0 1.25,0 2.084,-0.416c1.666,-0.834 1.666,-2.917 0.416,-4.167c-0.416,-0.417 -1.25,-0.833 -1.666,-0.833l-8.75,-0l-0,5.416Z" style="fill:#fff;fill-rule:nonzero;"/><path d="M515,146.25c1.667,-1.667 2.917,-2.917 4.583,-4.583l0.834,-0c2.083,1.25 4.166,2.5 6.666,2.916c1.667,0.417 3.334,0.417 5.417,0c1.25,0 3.75,-1.666 2.083,-2.916c-0.833,-0.834 -2.083,-0.834 -3.333,-1.25c-2.083,-0.417 -4.167,-0.834 -6.25,-1.667c-2.083,-0.417 -3.75,-1.25 -5.417,-2.083c-5,-2.917 -5,-8.75 -0.416,-12.084c1.666,-1.25 4.166,-2.083 6.25,-2.5c4.583,-0.833 9.166,-0.416 13.75,2.084c1.25,0.416 2.083,1.25 3.333,2.083c0.417,0.417 0.417,1.25 0,1.667c-1.25,1.25 -2.5,2.5 -4.167,3.75c-0.416,0.416 -0.833,0.416 -1.25,-0c-0.416,-0.417 -0.416,-0.417 -0.833,-0.834c-2.917,-2.083 -6.25,-2.916 -10,-2.083c-0.417,0 -0.417,0 -0.833,0.417c-0.834,0.416 -1.667,0.416 -1.667,1.25c0,0.833 0.833,0.833 1.667,1.25c2.5,0.833 5,1.25 7.916,2.083c2.084,0.417 4.167,1.25 5.834,2.083c5.416,3.334 5,10.834 -0.417,13.75c-1.667,0.834 -2.917,1.25 -4.583,1.25c-5.834,0.834 -11.667,0 -16.667,-3.333c-0.417,-0.417 -1.25,-0.833 -1.667,-1.25c-0.833,0.417 -0.833,0 -0.833,0Z" style="fill:#fff;fill-rule:nonzero;"/><path d="M435.417,149.583c-0,1.667 -0,1.667 -1.667,1.667l-5,0c-0.833,0 -1.25,0 -1.25,-1.25l-0,-26.25c-0,-0.833 0.417,-1.25 1.25,-1.25l5.417,0c1.25,0 1.25,0 1.25,1.25l-0,25.833Z" style="fill:#fff;fill-rule:nonzero;"/><path d="M350.417,132.5c-1.25,-4.583 -4.167,-7.5 -8.75,-9.167c-2.084,-0.833 -4.167,-0.833 -6.25,-0.833l-0.834,0c-1.666,0 -3.333,0.417 -5,0.833c-4.583,1.667 -7.5,4.584 -8.75,9.167c-0.833,2.917 -0.833,5.833 -0.416,8.75c1.25,5 4.166,8.333 8.75,9.583c2.083,0.834 4.166,0.834 6.25,0.834c2.083,-0 4.166,-0.417 6.25,-0.834c4.583,-1.666 7.916,-5 8.75,-9.583c0.833,-3.333 0.833,-6.25 -0,-8.75Zm-7.917,7.917c-0.417,1.666 -1.667,2.916 -3.333,3.75c-1.25,0.416 -2.917,0.833 -4.167,0.833l-0.417,0c-0.833,0 -2.083,-0.417 -2.916,-0.833c-1.667,-0.834 -2.917,-2.084 -3.334,-3.75c-0.833,-2.084 -0.833,-4.167 0,-6.667c0.834,-2.5 2.084,-4.167 4.584,-4.583c0.833,-0.417 1.666,-0.417 2.5,-0.417c0.833,0 1.666,0 2.916,0.417c2.5,0.833 4.167,2.083 4.584,4.583c0.416,2.5 0.416,4.583 -0.417,6.667Z" style="fill:#fff;fill-rule:nonzero;"/><path d="M240.833,132.5c-1.25,-4.583 -4.166,-7.5 -8.75,-9.167c-2.083,-0.833 -4.166,-0.833 -6.25,-0.833l-0.833,0c-1.667,0 -3.333,0.417 -5,0.833c-4.583,1.667 -7.5,4.584 -8.75,9.167c-0.833,2.917 -0.833,5.833 -0.417,8.75c1.25,5 4.167,8.333 8.75,9.583c2.084,0.834 4.167,0.834 6.25,0.834c2.084,-0 4.167,-0.417 6.25,-0.834c4.584,-1.666 7.917,-5 8.75,-9.583c0.834,-3.333 0.834,-6.25 0,-8.75Zm-7.916,7.917c-0.417,1.666 -1.667,2.916 -3.334,3.75c-1.25,0.416 -2.916,0.833 -4.166,0.833l-0.417,0c-0.833,0 -2.083,-0.417 -2.917,-0.833c-1.666,-0.834 -2.916,-2.084 -3.333,-3.75c-0.833,-2.084 -0.833,-4.167 0,-6.667c0.833,-2.5 2.083,-4.167 4.583,-4.583l2.5,-0c0.834,-0 1.667,-0 2.917,0.416c2.5,0.834 4.167,2.084 4.583,4.584c0.417,2.083 0.417,4.166 -0.416,6.25Z" style="fill:#fff;fill-rule:nonzero;"/><path d="M392.5,129.583l0,20.417c0,1.25 0,1.25 -1.25,1.667l-5,-0c-1.25,-0 -1.25,-0 -1.25,-1.25l0,-20.834l-8.75,0c-0.833,0 -1.25,-0.416 -1.25,-1.25l0,-4.583c0,-0.833 0.417,-0.833 0.833,-0.833l26.25,-0c0.417,-0 0.834,0.416 0.834,0.833l-0,5.417c-0,0.833 -0.417,0.833 -1.25,0.833c-2.5,-0.417 -8.334,-0.417 -9.167,-0.417Z" style="fill:#fff;fill-rule:nonzero;"/><path d="M490,145.417c-1.25,-1.25 -2.5,-2.5 -3.75,-3.75c-0.417,-0.417 -0.833,-0.417 -1.25,-0c-2.917,2.916 -6.25,3.75 -10,2.916c-2.917,-0.833 -4.583,-2.5 -5.417,-5.416c0,-0.834 -0.416,-1.25 -0.416,-2.084c-0,-0.833 -0,-1.25 0.416,-2.083c0.417,-2.917 2.5,-5 5.417,-5.417c3.75,-0.833 7.083,-0.416 10,2.917c0.417,0.417 0.833,0.417 1.25,0c1.25,-1.25 2.5,-2.5 3.75,-3.75c0.417,-0.417 0.417,-0.833 0,-1.667c-1.667,-1.666 -3.75,-2.916 -6.25,-3.75c-4.583,-1.25 -8.75,-1.25 -13.333,0.417c-4.584,1.667 -7.084,4.583 -8.334,9.167c-0.416,0.833 -0.416,1.666 -0.416,2.5l-0,3.333c-0,0.833 0.416,1.667 0.416,2.5c1.25,4.583 4.167,7.5 8.334,9.167c4.166,1.666 8.75,1.666 13.333,0.416c2.5,-0.833 4.583,-2.083 6.25,-3.75c0.417,-0.416 0.833,-0.833 0,-1.666Z" style="fill:#fff;fill-rule:nonzero;"/></g></g></svg>