<svg xmlns="http://www.w3.org/2000/svg" xmlns:xlink="http://www.w3.org/1999/xlink" viewBox="0,0,256,256" width="50px" height="50px" fill-rule="nonzero"><g fill="#679941" fill-rule="nonzero" stroke="none" stroke-width="1" stroke-linecap="butt" stroke-linejoin="miter" stroke-miterlimit="10" stroke-dasharray="" stroke-dashoffset="0" font-family="none" font-weight="none" font-size="none" text-anchor="none" style="mix-blend-mode: normal"><g transform="scale(5.12,5.12)"><path d="M37.99609,2c-2.74861,0 -4.99609,2.2526 -4.99609,5c0,2.7474 2.24748,5 4.99609,5c2.75465,0 5.00391,-2.2526 5.00391,-5c0,-2.7474 -2.24925,-5 -5.00391,-5zM37.99609,4c1.67535,0 3.00391,1.3334 3.00391,3c0,1.6666 -1.32856,3 -3.00391,3c-1.66539,0 -2.99609,-1.3334 -2.99609,-3c0,-1.6666 1.3307,-3 2.99609,-3zM23,9c-0.52325,0 -1.01609,0.14471 -1.44336,0.38281c-0.08967,0.03081 -0.1745,0.07421 -0.25195,0.12891l-6.93164,4.97266c-0.11938,0.08671 -0.21809,0.19877 -0.28906,0.32813c-0.62435,0.54702 -1.08398,1.29213 -1.08398,2.1875c0,1.64497 1.35503,3 3,3c0.49235,0 0.87441,-0.26286 1.2793,-0.47266c0.21149,0.00144 0.418,-0.0642 0.58984,-0.1875l5.58789,-4.01758l2.71289,0.85937l-4.26562,6.95508c-0.04328,0.07162 -0.0774,0.14839 -0.10156,0.22852c-0.44475,0.70589 -0.73982,1.5219 -0.78516,2.41016c-0.02312,0.02874 -0.04464,0.05873 -0.06445,0.08984l-3.25977,5.13477h-7.19336c-1.92144,0 -3.5,1.57856 -3.5,3.5c0,1.92144 1.57856,3.5 3.5,3.5h8.43359c1.62031,0 3.14166,-0.78709 4.07813,-2.10937l2.90039,-4.0918l4.72852,2.91602l-1.57617,8.10547c-0.01358,0.07077 -0.01948,0.14281 -0.01758,0.21484c-0.02152,0.14992 -0.04687,0.29667 -0.04687,0.46484c0,1.92144 1.57856,3.5 3.5,3.5c1.45419,0 2.56448,-0.98826 3.08789,-2.26367c0.18274,-0.14847 0.30723,-0.35665 0.35156,-0.58789l2.02734,-10.67188c0.01636,-0.08754 0.02096,-0.17687 0.01367,-0.26562c0.00882,-0.06786 0.01953,-0.10055 0.01953,-0.21094c0,-0.72779 -0.30757,-1.36324 -0.74023,-1.88086c-0.05747,-0.13734 -0.14489,-0.26012 -0.25586,-0.35937l-4.82617,-4.27734l1.68555,-3.33008l1.4043,3.09961c0.03029,0.06569 0.06762,0.12791 0.11133,0.18555c0.51071,0.92547 1.49284,1.5625 2.62109,1.5625h7c1.64497,0 3,-1.35503 3,-3c0,-1.64497 -1.35503,-3 -3,-3h-5.33594l-2.69336,-6.41797c-0.14455,-1.23612 -0.91486,-2.24833 -1.93945,-2.88476c-0.08906,-0.13729 -0.21045,-0.25063 -0.35352,-0.33008l-2.50781,-1.39453c-0.08558,-0.04771 -0.17771,-0.08259 -0.27344,-0.10351l-8.16406,-1.7793c-0.07701,-0.01636 -0.15568,-0.02357 -0.23437,-0.02148c-0.16122,-0.03 -0.31667,-0.06836 -0.49805,-0.06836zM23,11c0.06735,0 0.14835,0.01046 0.24023,0.03516c0.15172,0.04102 0.31097,0.0457 0.46484,0.01367l-0.18945,0.03906l7.81055,1.70508l2.10938,1.17188l-0.13477,-0.26758c0.10492,0.21032 0.28056,0.37697 0.49609,0.4707c0.70597,0.30617 1.20313,1.0042 1.20313,1.83203c0,0.34559 -0.09525,0.66821 -0.26953,0.97852c-0.16292,0.28924 -0.17171,0.64048 -0.02344,0.9375l-0.2168,-0.43359l-4.44531,8.78516c-0.20447,0.40569 -0.10981,0.89822 0.23047,1.19922l5.20508,4.61719l-0.07617,-0.22461c0.05438,0.15698 0.14701,0.29795 0.26953,0.41016c0.20234,0.18505 0.32617,0.43942 0.32617,0.73047c0,-0.02852 -0.0032,0.01206 -0.01953,0.13477c-0.02613,0.19961 0.00858,0.40247 0.09961,0.58203l-0.14258,-0.27344l-1.80859,9.51758h0.82422c-0.48186,0.00049 -0.89486,0.34452 -0.98242,0.81836c-0.12872,0.69449 -0.72685,1.2207 -1.4707,1.2207c-0.84456,0 -1.5,-0.65544 -1.5,-1.5c0,-0.08863 0.01034,-0.18774 0.03125,-0.29297c0.00479,-0.02394 0.0087,-0.04804 0.01172,-0.07227c0.00143,-0.0091 0.00273,-0.01821 0.00391,-0.02734l1.68945,-8.68945c0.07977,-0.40891 -0.10232,-0.82444 -0.45703,-1.04297l-7.27734,-4.48828l0.11133,0.33203c-0.08205,-0.24596 -0.25642,-0.45044 -0.48633,-0.57031c-0.96771,-0.50463 -1.62695,-1.48695 -1.62695,-2.64844c0,-0.65286 0.20978,-1.24697 0.56836,-1.74609c0.11824,-0.16346 0.18429,-0.35887 0.18945,-0.56055v0.24805l4.78516,-7.80273c0.16103,-0.26208 0.1925,-0.58367 0.08533,-0.872c-0.10717,-0.28832 -0.34105,-0.51129 -0.63416,-0.60457l-4.41016,-1.39648c-0.30119,-0.09588 -0.62997,-0.04374 -0.88672,0.14063l-5.30664,3.8125l0.59766,0.59766c-0.36749,-0.36692 -0.95466,-0.39152 -1.35156,-0.05664c-0.18485,0.15609 -0.39404,0.24023 -0.63672,0.24023c-0.56503,0 -1,-0.43497 -1,-1c0,-0.36615 0.1885,-0.66597 0.48242,-0.8457c0.05063,-0.03149 0.09835,-0.06744 0.14258,-0.10742l6.66406,-4.78125l-0.17578,0.0332c0.12793,-0.0237 0.25,-0.07213 0.35938,-0.14258c0.15393,-0.09946 0.32981,-0.15625 0.52734,-0.15625zM9.21289,16.38867c-0.51378,-0.01933 -1.03489,0.15538 -1.43555,0.52734v-0.00195l-3.17773,2.94922c-0.80219,0.74277 -0.85135,2.02486 -0.10742,2.82617l4.44336,4.78906c0.74331,0.80064 2.02611,0.84824 2.82617,0.10547l3.17773,-2.94922c0.80085,-0.74297 0.84897,-2.02533 0.10547,-2.82617h0.00195l-4.44336,-4.78711c-0.37143,-0.40105 -0.87685,-0.61348 -1.39063,-0.63281zM9.13672,18.38086l4.44336,4.78711v0.00195l-3.17773,2.94727l-4.44336,-4.78711zM36.11328,18.70508l1.96484,4.68164c0.15577,0.3714 0.51913,0.61312 0.92188,0.61328h6c0.56503,0 1,0.43497 1,1c0,0.56503 -0.43497,1 -1,1h-7c-0.40733,0 -0.74223,-0.23726 -0.9043,-0.58008c-0.07188,-0.15147 -0.18068,-0.28243 -0.31641,-0.38086l0.19336,0.12695l-1.95117,-4.30469zM21.70117,28.41797c0.4071,0.65507 0.96463,1.21417 1.61133,1.64453c0.08171,0.13666 0.19488,0.25183 0.33008,0.33594l0.56445,0.34766l-2.82617,3.98828c-0.56354,0.79572 -1.47358,1.26563 -2.44727,1.26563h-8.43359c-0.84456,0 -1.5,-0.65544 -1.5,-1.5c0,-0.84456 0.65544,-1.5 1.5,-1.5h7.74219c0.34226,-0.00036 0.66057,-0.17573 0.84375,-0.46484z"></path></g></g></svg>