<?xml version="1.0" encoding="UTF-8" standalone="no"?><!DOCTYPE svg PUBLIC "-//W3C//DTD SVG 1.1//EN" "http://www.w3.org/Graphics/SVG/1.1/DTD/svg11.dtd"><svg width="100%" height="100%" viewBox="0 0 18 18" version="1.1" xmlns="http://www.w3.org/2000/svg" xmlns:xlink="http://www.w3.org/1999/xlink" xml:space="preserve" xmlns:serif="http://www.serif.com/" style="fill-rule:evenodd;clip-rule:evenodd;stroke-linejoin:round;stroke-miterlimit:10;"><g><path d="M10.203,6.608c0,1.03 -1.139,2.348 -1.139,2.348c0,-0 -1.138,-1.295 -1.138,-2.348c-0,-0.628 0.508,-1.135 1.138,-1.135c0.631,-0 1.139,0.507 1.139,1.135Z" style="fill:none;fill-rule:nonzero;stroke:#b0bac9;stroke-width:0.27px;"/><path d="M9.064,6.142c-0.124,0 -0.243,0.057 -0.331,0.157c-0.088,0.101 -0.137,0.237 -0.137,0.379c-0,0.142 0.049,0.279 0.137,0.379c0.088,0.101 0.207,0.157 0.331,0.157c0.125,0 0.244,-0.056 0.332,-0.157c0.088,-0.1 0.137,-0.237 0.137,-0.379c0,-0.142 -0.049,-0.278 -0.137,-0.379c-0.088,-0.1 -0.207,-0.157 -0.332,-0.157Z" style="fill:none;fill-rule:nonzero;stroke:#b0bac9;stroke-width:0.27px;"/></g><clipPath id="_clip1"><rect id="icons8-mac-client-1.svg" serif:id="icons8-mac-client 1.svg" x="2.441" y="2.441" width="13.117" height="13.117"/></clipPath><g clip-path="url(#_clip1)"><path d="M9,12.673c-0.29,-0 -0.525,-0.235 -0.525,-0.525c0,-0.29 0.235,-0.525 0.525,-0.525c0.29,0 0.525,0.235 0.525,0.525c-0,0.29 -0.235,0.525 -0.525,0.525Z" style="fill:#fff;fill-rule:nonzero;stroke:#b0bac9;stroke-width:0.16px;stroke-miterlimit:2;"/><path d="M5.852,14.772c-0,-0.29 0.222,-0.525 0.495,-0.525l5.306,-0c0.273,-0 0.495,0.235 0.495,0.525l0,0.524l-6.296,0l-0,-0.524Z" style="fill:none;fill-rule:nonzero;stroke:#b0bac9;stroke-width:0.49px;stroke-linecap:round;stroke-linejoin:miter;"/><path d="M2.966,13.197c-0.145,0 -0.262,-0.117 -0.262,-0.262l-0,-9.444c-0,-0.145 0.117,-0.263 0.262,-0.263l12.068,0c0.145,0 0.262,0.118 0.262,0.263l0,9.444c0,0.145 -0.117,0.262 -0.262,0.262l-12.068,0Z" style="fill:none;fill-rule:nonzero;stroke:#b0bac9;stroke-width:0.49px;"/><path d="M4.015,11.099c-0.144,-0 -0.262,-0.118 -0.262,-0.263l0,-6.296c0,-0.145 0.118,-0.262 0.262,-0.262l9.97,-0c0.144,-0 0.262,0.117 0.262,0.262l-0,6.296c-0,0.145 -0.118,0.263 -0.262,0.263l-9.97,-0Z" style="fill:none;fill-rule:nonzero;stroke:#b0bac9;stroke-width:0.33px;"/><path d="M10.312,14.247l-0,-1.049m-2.624,1.049l0,-1.049" style="fill:none;fill-rule:nonzero;stroke:#b0bac9;stroke-width:0.49px;stroke-linecap:round;stroke-linejoin:miter;"/></g></svg>