<svg xmlns="http://www.w3.org/2000/svg" xmlns:xlink="http://www.w3.org/1999/xlink" viewBox="0,0,256,256" width="50px" height="50px" fill-rule="nonzero"><g fill="#d7dce3" fill-rule="nonzero" stroke="none" stroke-width="1" stroke-linecap="butt" stroke-linejoin="miter" stroke-miterlimit="10" stroke-dasharray="" stroke-dashoffset="0" font-family="none" font-weight="none" font-size="none" text-anchor="none" style="mix-blend-mode: normal"><g transform="scale(5.12,5.12)"><path d="M24.84375,2.03125c-0.4375,0 -0.875,0.00391 -1.3125,0.03125c-4.42187,0.27734 -8.82422,1.84375 -12.59375,4.75c-5.64062,4.35156 -8.93359,11.06641 -8.9375,18.1875c0,0.67188 -0.00781,1.375 0.09375,2.125l0.125,0.875h5.96875l-0.09375,-1.09375c-0.0625,-0.62891 -0.10156,-1.27344 -0.09375,-1.90625c0.02344,-9.40234 7.62891,-16.96094 17.03125,-16.9375c5.13672,0.01172 9.94922,2.37109 13.15625,6.34375l-2.90625,2.875l-1.6875,1.71875h13.40625v-13.40625l-1.71875,1.6875l-2.84375,2.875c-4.54297,-5.32812 -11.02344,-8.15234 -17.59375,-8.125zM24.90625,4.03125c6.30859,-0.01953 12.5625,2.76953 16.71875,8.15625l0.6875,0.90625l0.8125,-0.8125l1.875,-1.84375v6.5625h-6.5625l1.8125,-1.84375l0.625,-0.59375l-0.53125,-0.6875c-3.56641,-4.89453 -9.22656,-7.79687 -15.28125,-7.8125c-10.48047,-0.02734 -19.03516,8.45703 -19.0625,18.9375c-0.00391,0.33594 0.01563,0.66406 0.03125,1h-1.96875c-0.01172,-0.33203 -0.0625,-0.64062 -0.0625,-1c0.00391,-6.50391 3.03906,-12.65234 8.1875,-16.625c3.44922,-2.66016 7.43359,-4.05859 11.46875,-4.3125c0.42188,-0.02734 0.82813,-0.03125 1.25,-0.03125zM41.78125,22l0.125,1.125c1.04688,9.34375 -5.65625,17.73438 -15,18.78125c-0.63281,0.07031 -1.26953,0.09375 -1.90625,0.09375c-5.16406,0 -9.98437,-2.39844 -13.1875,-6.40625l2.90625,-2.875l1.6875,-1.71875h-13.40625v13.40625l1.71875,-1.6875l2.84375,-2.875c7.89844,9.26563 21.75391,10.85938 31.5,3.34375c5.64063,-4.35156 8.93359,-11.06641 8.9375,-18.1875c0,-0.67187 0.00781,-1.375 -0.09375,-2.125l-0.125,-0.875zM43.90625,24h2.03125c0.01172,0.33203 0.0625,0.64063 0.0625,1c-0.00391,6.50391 -3.03906,12.65234 -8.1875,16.625c-9.19141,7.08984 -22.34766,5.37891 -29.4375,-3.8125l-0.6875,-0.90625l-0.8125,0.8125l-1.875,1.84375v-6.5625h6.5625l-1.8125,1.84375l-0.59375,0.59375l0.46875,0.6875c3.55859,4.9375 9.28906,7.875 15.375,7.875c0.71094,0 1.41797,-0.04687 2.125,-0.125c10.03516,-1.12109 17.30078,-9.91797 16.78125,-19.875z"></path></g></g></svg>