<svg xmlns="http://www.w3.org/2000/svg" xmlns:xlink="http://www.w3.org/1999/xlink" viewBox="0,0,256,256" width="50px" height="50px" fill-rule="nonzero"><g fill="#679941" fill-rule="nonzero" stroke="none" stroke-width="1" stroke-linecap="butt" stroke-linejoin="miter" stroke-miterlimit="10" stroke-dasharray="" stroke-dashoffset="0" font-family="none" font-weight="none" font-size="none" text-anchor="none" style="mix-blend-mode: normal"><g transform="scale(5.12,5.12)"><path d="M25,2c-12.682,0 -23,10.318 -23,23c0,12.682 10.318,23 23,23c3.658,0 7.11545,-0.86267 10.18945,-2.38867c-0.333,-0.608 -0.58934,-1.23623 -0.77734,-1.86523c-2.836,1.43 -6.02611,2.25391 -9.41211,2.25391c-11.58,0 -21,-9.42 -21,-21c0,-11.58 9.42,-21 21,-21c11.58,0 21,9.42 21,21c0,0.164 -0.02139,0.32233 -0.02539,0.48633c0.75,0.267 1.4008,0.63722 1.9668,1.07422c0.035,-0.517 0.05859,-1.03555 0.05859,-1.56055c0,-12.682 -10.318,-23 -23,-23zM24.98438,6.98633c-0.55152,0.00862 -0.99193,0.46214 -0.98437,1.01367v14.17578c-0.8001,0.28422 -1.44229,0.89418 -1.7673,1.6786c-0.32501,0.78442 -0.3024,1.66983 0.06223,2.43664l-6.00195,6.00195c-0.26124,0.25082 -0.36648,0.62327 -0.27512,0.97371c0.09136,0.35044 0.36503,0.62411 0.71547,0.71547c0.35044,0.09136 0.72289,-0.01388 0.97371,-0.27512l6,-6c0.40375,0.19286 0.84552,0.29296 1.29297,0.29297c1.46078,-0.00042 2.7089,-1.05293 2.95594,-2.49267c0.24703,-1.43974 -0.57885,-2.84812 -1.95594,-3.33546v-14.17187c0.0037,-0.2703 -0.10218,-0.53059 -0.29351,-0.72155c-0.19133,-0.19097 -0.45182,-0.29634 -0.72212,-0.29212zM42,25v2.06836c-2.10976,0.28619 -3.43331,1.4567 -4.07422,2.61328c-0.73699,1.32997 -0.72656,2.64844 -0.72656,2.64844c0,1.78763 0.91281,3.15764 2.0957,4.02734c1.1829,0.8697 2.60897,1.3734 3.95898,1.87109c1.35001,0.49769 2.62469,0.98838 3.4668,1.60742c0.84211,0.61904 1.2793,1.233 1.2793,2.41406c0,0 -0.0064,0.90878 -0.5957,1.8418c-0.58927,0.93302 -1.66819,1.9082 -4.4043,1.9082c-2.67011,0 -3.72842,-1.17492 -4.35742,-2.41992c-0.629,-1.245 -0.64258,-2.51758 -0.64258,-2.51758h-2c0,0 -0.01358,1.69593 0.85742,3.41992c0.77901,1.54191 2.42347,3.12896 5.14258,3.44922v2.06836h2v-2.05469c2.65842,-0.25474 4.28294,-1.50024 5.0957,-2.78711c0.91073,-1.44198 0.9043,-2.9082 0.9043,-2.9082c0,-1.78743 -0.91281,-3.15584 -2.0957,-4.02539c-1.18289,-0.86955 -2.609,-1.37341 -3.95898,-1.87109c-1.34999,-0.49768 -2.62274,-0.98828 -3.46484,-1.60742c-0.8421,-0.61914 -1.28125,-1.23465 -1.28125,-2.41602c0,0 0.0116,-0.84416 0.47461,-1.67969c0.46301,-0.83553 1.22694,-1.65039 3.32617,-1.65039c2.16667,0 2.97473,0.93578 3.48047,1.94727c0.50574,1.01149 0.51953,2.05273 0.51953,2.05273h2c0,0 0.01379,-1.45875 -0.73047,-2.94727c-0.65212,-1.30424 -2.03197,-2.6651 -4.26953,-2.98242v-2.07031z"></path></g></g></svg>