<?xml version="1.0" encoding="UTF-8" standalone="no"?>
<!DOCTYPE svg PUBLIC "-//W3C//DTD SVG 1.1//EN" "http://www.w3.org/Graphics/SVG/1.1/DTD/svg11.dtd">
<svg width="100%" height="100%" viewBox="0 0 100 100" version="1.1" xmlns="http://www.w3.org/2000/svg" xmlns:xlink="http://www.w3.org/1999/xlink" xml:space="preserve" xmlns:serif="http://www.serif.com/" style="fill-rule:evenodd;clip-rule:evenodd;stroke-linejoin:round;stroke-miterlimit:10;">
    <g id="icons8-location-1.svg" serif:id="icons8-location 1.svg" transform="matrix(0.744241,0,0,0.744241,27.2867,29.287)">
        <g transform="matrix(1,0,0,1,-56.5,-56.5)">
            <g>
                <path d="M96,66.478C96,74.165 87.5,84 87.5,84C87.5,84 79,74.335 79,66.478C79,61.787 82.797,58 87.5,58C92.203,58 96,61.787 96,66.478Z" style="fill:none;fill-rule:nonzero;stroke:white;stroke-width:2px;"/>
                <path d="M87.5,63C86.572,63 85.682,63.421 85.025,64.172C84.369,64.922 84,65.939 84,67C84,68.061 84.369,69.078 85.025,69.828C85.682,70.579 86.572,71 87.5,71C88.428,71 89.319,70.579 89.975,69.828C90.631,69.078 91,68.061 91,67C91,65.939 90.631,64.922 89.975,64.172C89.319,63.421 88.428,63 87.5,63Z" style="fill:none;fill-rule:nonzero;stroke:white;stroke-width:2px;"/>
            </g>
        </g>
    </g>
    <g id="icons8-mac-client-1.svg" serif:id="icons8-mac-client 1.svg" transform="matrix(0.910916,0,0,0.910916,50,50)">
        <g transform="matrix(1,0,0,1,-40,-40)">
            <clipPath id="_clip1">
                <rect x="0" y="0" width="80" height="80"/>
            </clipPath>
            <g clip-path="url(#_clip1)">
                <path d="M40,62.4C38.234,62.4 36.8,60.968 36.8,59.2C36.8,57.432 38.234,56 40,56C41.766,56 43.2,57.432 43.2,59.2C43.2,60.968 41.766,62.4 40,62.4Z" style="fill:white;fill-rule:nonzero;"/>
                <path d="M20.8,75.2C20.8,73.437 22.157,72 23.822,72L56.178,72C57.843,72 59.2,73.437 59.2,75.2L59.2,78.4L20.8,78.4L20.8,75.2Z" style="fill:none;fill-rule:nonzero;stroke:white;stroke-width:3px;stroke-linecap:round;stroke-linejoin:miter;"/>
                <path d="M3.2,65.6C2.317,65.6 1.6,64.883 1.6,64L1.6,6.4C1.6,5.517 2.317,4.8 3.2,4.8L76.8,4.8C77.683,4.8 78.4,5.517 78.4,6.4L78.4,64C78.4,64.883 77.683,65.6 76.8,65.6L3.2,65.6Z" style="fill:none;fill-rule:nonzero;stroke:white;stroke-width:3px;"/>
                <path d="M9.6,52.8C8.717,52.8 8,52.083 8,51.2L8,12.8C8,11.917 8.717,11.2 9.6,11.2L70.4,11.2C71.283,11.2 72,11.917 72,12.8L72,51.2C72,52.083 71.283,52.8 70.4,52.8L9.6,52.8Z" style="fill:none;fill-rule:nonzero;stroke:white;stroke-width:2px;"/>
                <path d="M48,72L48,65.6M32,72L32,65.6" style="fill:none;fill-rule:nonzero;stroke:white;stroke-width:3px;stroke-linecap:round;stroke-linejoin:miter;"/>
            </g>
        </g>
    </g>
</svg>
