<?xml version="1.0" encoding="UTF-8" standalone="no"?><!DOCTYPE svg PUBLIC "-//W3C//DTD SVG 1.1//EN" "http://www.w3.org/Graphics/SVG/1.1/DTD/svg11.dtd"><svg width="100%" height="100%" viewBox="0 0 50 50" version="1.1" xmlns="http://www.w3.org/2000/svg" xmlns:xlink="http://www.w3.org/1999/xlink" xml:space="preserve" xmlns:serif="http://www.serif.com/" style="fill-rule:evenodd;clip-rule:evenodd;stroke-linejoin:round;stroke-miterlimit:2;"><g><g><path d="M25,0c-1.844,0 -3.34,1.293 -3.797,3l-12.203,0c-1.645,0 -3,1.355 -3,3l0,39c0,1.645 1.355,3 3,3l32,0c1.645,0 3,-1.355 3,-3l0,-39c0,-1.645 -1.355,-3 -3,-3l-12.203,0c-0.457,-1.707 -1.953,-3 -3.797,-3l0,0Zm0,2c1.117,0 2,0.883 2,2c0,0.551 0.449,1 1,1l3,0l0,2l-12,0l0,-2l3,0c0.551,0 1,-0.449 1,-1c0,-1.117 0.883,-2 2,-2Zm-16,3l8,0l0,3c0,0.551 0.449,1 1,1l14,0c0.551,0 1,-0.449 1,-1l0,-3l8,0c0.566,0 1,0.434 1,1l0,39c0,0.566 -0.434,1 -1,1l-32,0c-0.566,0 -1,-0.434 -1,-1l0,-39c0,-0.566 0.434,-1 1,-1Zm24,7c0,0 -3.262,3 -3,3l2,0l0,2.031c-0.004,0.36 0.184,0.696 0.496,0.875c0.313,0.184 0.695,0.184 1.008,0c0.312,-0.179 0.5,-0.515 0.496,-0.875l-0,-2.031l2,0l-3,-3Zm-18.012,5.988c-0.406,0.004 -0.769,0.25 -0.926,0.625c-0.152,0.379 -0.062,0.809 0.231,1.094l1.293,1.293l-1.293,1.293c-0.262,0.25 -0.367,0.625 -0.273,0.973c0.089,0.351 0.363,0.625 0.714,0.714c0.348,0.094 0.723,-0.011 0.973,-0.273l1.293,-1.293l1.293,1.293c0.25,0.262 0.625,0.367 0.973,0.273c0.351,-0.089 0.625,-0.363 0.714,-0.714c0.094,-0.348 -0.011,-0.723 -0.273,-0.973l-1.293,-1.293l1.293,-1.293c0.297,-0.289 0.383,-0.727 0.223,-1.105c-0.16,-0.383 -0.535,-0.625 -0.95,-0.614c-0.261,0.008 -0.507,0.117 -0.687,0.305l-1.293,1.293l-1.293,-1.293c-0.187,-0.195 -0.445,-0.301 -0.719,-0.305Zm18.012,1.012c-1.105,0 -2,0.895 -2,2c-0,1.105 0.895,2 2,2c1.105,0 2,-0.895 2,-2c-0,-1.105 -0.895,-2 -2,-2Zm-3.453,3.223c-0.192,0.004 -0.379,0.062 -0.535,0.168l-10.008,6.472c-0.309,0.192 -0.492,0.535 -0.477,0.899c0.016,0.363 0.227,0.687 0.551,0.851c0.328,0.16 0.715,0.137 1.016,-0.07l10,-6.473c0.383,-0.238 0.558,-0.703 0.429,-1.132c-0.128,-0.43 -0.527,-0.723 -0.976,-0.715l-0,-0Zm3.441,5.765c-0.406,0.004 -0.769,0.25 -0.925,0.625c-0.153,0.379 -0.063,0.809 0.23,1.094l1.293,1.293l-1.293,1.293c-0.262,0.25 -0.367,0.625 -0.273,0.973c0.089,0.351 0.363,0.625 0.714,0.714c0.348,0.094 0.723,-0.011 0.973,-0.273l1.293,-1.293l1.293,1.293c0.25,0.262 0.625,0.367 0.973,0.273c0.351,-0.089 0.625,-0.363 0.714,-0.714c0.094,-0.348 -0.011,-0.723 -0.273,-0.973l-1.293,-1.293l1.293,-1.293c0.297,-0.289 0.383,-0.727 0.223,-1.105c-0.16,-0.383 -0.535,-0.625 -0.95,-0.614c-0.261,0.008 -0.507,0.117 -0.687,0.305l-1.293,1.293l-1.293,-1.293c-0.187,-0.195 -0.445,-0.301 -0.719,-0.305Zm-16.988,2.012c-1.105,0 -2,0.895 -2,2c0,1.105 0.895,2 2,2c1.105,0 2,-0.895 2,-2c0,-1.105 -0.895,-2 -2,-2Zm3.449,3.621c-0.426,0.016 -0.793,0.301 -0.918,0.707c-0.121,0.41 0.028,0.848 0.371,1.098l4.821,3.617c0.285,0.227 0.672,0.281 1.007,0.141c0.336,-0.141 0.571,-0.454 0.61,-0.817c0.043,-0.359 -0.121,-0.715 -0.418,-0.926l-4.817,-3.613c-0.187,-0.144 -0.421,-0.219 -0.656,-0.207l0,0Zm8.551,5.379c-1.105,0 -2,0.895 -2,2c0,1.105 0.895,2 2,2c1.105,0 2,-0.895 2,-2c0,-1.105 -0.895,-2 -2,-2Z" style="fill:#d7dce3;fill-rule:nonzero;"/></g></g></svg>