<?xml version="1.0" encoding="UTF-8" standalone="no"?><!DOCTYPE svg PUBLIC "-//W3C//DTD SVG 1.1//EN" "http://www.w3.org/Graphics/SVG/1.1/DTD/svg11.dtd"><svg width="100%" height="100%" viewBox="0 0 69 61" version="1.1" xmlns="http://www.w3.org/2000/svg" xmlns:xlink="http://www.w3.org/1999/xlink" xml:space="preserve" xmlns:serif="http://www.serif.com/" style="fill-rule:evenodd;clip-rule:evenodd;stroke-linejoin:round;stroke-miterlimit:2;"><g><path d="M34.02,2.024c0.214,-0 0.392,0.187 0.392,0.41l-0,0.624c-0,0.224 0.178,0.41 0.392,0.41l0.788,0c0.214,0 0.392,0.187 0.392,0.411l0,5.395c0,0.224 -0.178,0.411 -0.392,0.411l-3.158,-0c-0.214,-0 -0.392,-0.187 -0.392,-0.411l0,-5.386c0,-0.224 0.178,-0.41 0.392,-0.41l0.779,-0c0.214,-0 0.392,-0.187 0.392,-0.411l0,-0.624c0,-0.223 0.178,-0.41 0.392,-0.41l0.018,-0m0,-1.094l-0.018,0c-0.802,0 -1.458,0.647 -1.486,1.449l-0.082,0c-0.82,0 -1.485,0.675 -1.485,1.504l-0,5.396c-0,0.829 0.665,1.504 1.485,1.504l3.159,0c0.82,0 1.485,-0.675 1.485,-1.504l0,-5.4c0,-0.83 -0.665,-1.504 -1.485,-1.504l-0.087,-0c-0.027,-0.807 -0.684,-1.449 -1.486,-1.449l0,0.004Z" style="fill:#679941;fill-rule:nonzero;"/><path d="M47.515,17.481c0.209,0 0.383,0.183 0.383,0.401l-0,4.672c-0,0.218 -0.174,0.401 -0.383,0.401l-0.743,-0c-0.21,-0 -0.497,-0.142 -0.638,-0.306l-0.037,-0.054l-0.009,-0.009c-0.141,-0.164 -0.246,-0.488 -0.246,-0.707l0,-3.997c0,-0.218 0.173,-0.401 0.383,-0.401l1.285,0m0.005,-1.093l-1.29,-0c-0.816,-0 -1.477,0.67 -1.477,1.494l0,3.997c0,0.397 0.146,0.966 0.474,1.377l0.032,0.05l0.041,0.045c0.351,0.415 0.944,0.697 1.477,0.697l0.743,0c0.816,0 1.476,-0.669 1.476,-1.494l0,-4.672c0,-0.824 -0.665,-1.494 -1.476,-1.494Z" style="fill:#679941;fill-rule:nonzero;"/><path d="M44.844,12.669l-0,1.641l-0.57,0c-0.784,0 -1.422,0.643 -1.422,1.436l0,6.699c-0.62,-1.185 -1.736,-2.06 -3.03,-2.315c-0.288,-0.064 -0.584,-0.091 -0.88,-0.091c-1.167,-0 -2.315,0.487 -3.154,1.358c-0.473,0.506 -0.793,1.267 -0.966,1.768l-4.552,-0c-0.174,-0.511 -0.493,-1.271 -0.985,-1.782c-0.834,-0.861 -1.955,-1.335 -3.163,-1.335c-0.278,-0 -0.56,0.027 -0.852,0.082c-1.417,0.287 -2.597,1.28 -3.176,2.588l-0,-10.049l22.75,0Zm0.765,-1.093l-24.281,-0c-0.328,-0 -0.328,0.159 -0.328,0.341l0,12c0,0.182 0.146,0.342 0.328,0.342l1.176,-0c0.182,-0 0.328,-0.096 0.328,-0.219l0.023,-0.109c0.246,-1.358 1.308,-2.457 2.629,-2.726c0.21,-0.041 0.424,-0.059 0.634,-0.059c0.889,0 1.741,0.351 2.374,1.003c0.552,0.574 0.857,1.786 0.857,1.786c0.05,0.182 0.232,0.328 0.415,0.328l5.541,0c0.174,0 0.356,-0.146 0.415,-0.328c0,0 0.319,-1.212 0.857,-1.786c0.629,-0.647 1.481,-1.012 2.356,-1.012c0.219,-0 0.437,0.023 0.652,0.068c1.321,0.255 2.374,1.358 2.629,2.726l0.023,0.109c0,0.123 0.146,0.219 0.328,0.219l1.039,-0c0.173,-0 0.328,-0.16 0.328,-0.342l0,-8.171c0,-0.183 0.146,-0.342 0.328,-0.342l1.336,-0c0.182,-0 0.328,-0.16 0.328,-0.342l-0,-3.145c-0,-0.182 -0.146,-0.341 -0.328,-0.341l0.013,-0Z" style="fill:#679941;fill-rule:nonzero;"/><path d="M26.059,22.996c0.815,0 1.476,0.661 1.476,1.477c0,0.815 -0.661,1.476 -1.476,1.476c-0.816,0 -1.477,-0.661 -1.477,-1.476c0,-0.816 0.661,-1.477 1.477,-1.477Zm-0,-1.094c-1.418,0 -2.571,1.153 -2.571,2.571c0,1.417 1.153,2.57 2.571,2.57c1.417,-0 2.57,-1.153 2.57,-2.57c-0,-1.418 -1.153,-2.571 -2.57,-2.571Z" style="fill:#679941;fill-rule:nonzero;"/><path d="M38.874,22.996c0.815,0 1.476,0.661 1.476,1.477c0,0.815 -0.661,1.476 -1.477,1.476c-0.815,0 -1.476,-0.661 -1.476,-1.476c-0,-0.816 0.661,-1.477 1.476,-1.477Zm0,-1.094c-1.417,0 -2.57,1.153 -2.57,2.571c0,1.417 1.153,2.57 2.57,2.57c1.418,-0 2.571,-1.153 2.571,-2.57c-0,-1.418 -1.153,-2.571 -2.571,-2.571Z" style="fill:#679941;fill-rule:nonzero;"/></g><g><path d="M13.02,35.024c0.214,-0 0.392,0.187 0.392,0.41l-0,0.624c-0,0.224 0.178,0.41 0.392,0.41l0.788,0c0.214,0 0.392,0.187 0.392,0.411l0,5.395c0,0.224 -0.178,0.411 -0.392,0.411l-3.158,-0c-0.214,-0 -0.392,-0.187 -0.392,-0.411l0,-5.386c0,-0.224 0.178,-0.41 0.392,-0.41l0.779,-0.001c0.215,0 0.392,-0.186 0.392,-0.41l0,-0.624c0,-0.223 0.178,-0.41 0.392,-0.41l0.018,-0m0,-1.094l-0.018,0c-0.802,0 -1.458,0.647 -1.485,1.449l-0.082,0c-0.821,0 -1.486,0.675 -1.486,1.504l-0,5.396c-0,0.829 0.665,1.504 1.486,1.504l3.158,0c0.82,0 1.485,-0.675 1.485,-1.504l0,-5.4c0,-0.83 -0.665,-1.504 -1.485,-1.504l-0.087,-0c-0.027,-0.807 -0.683,-1.449 -1.486,-1.449l0,0.004Z" style="fill:#679941;fill-rule:nonzero;"/><path d="M26.515,50.481c0.209,0 0.383,0.183 0.383,0.401l-0,4.672c-0,0.218 -0.174,0.401 -0.383,0.401l-0.743,-0c-0.21,-0 -0.497,-0.142 -0.638,-0.306l-0.037,-0.054l-0.009,-0.009c-0.141,-0.164 -0.246,-0.488 -0.246,-0.707l0,-3.997c0,-0.218 0.173,-0.401 0.383,-0.401l1.285,0m0.005,-1.093l-1.29,-0c-0.816,-0 -1.477,0.67 -1.477,1.494l0,3.997c0,0.397 0.146,0.966 0.474,1.377l0.032,0.05l0.041,0.045c0.351,0.415 0.944,0.697 1.477,0.697l0.743,0c0.816,0 1.476,-0.669 1.476,-1.494l0,-4.672c0,-0.824 -0.665,-1.494 -1.476,-1.494Z" style="fill:#679941;fill-rule:nonzero;"/><path d="M23.844,45.669l-0,1.641l-0.57,0c-0.784,0 -1.422,0.643 -1.422,1.436l0,6.699c-0.62,-1.185 -1.736,-2.06 -3.03,-2.315c-0.287,-0.064 -0.584,-0.091 -0.88,-0.091c-1.167,-0 -2.315,0.487 -3.154,1.358c-0.473,0.506 -0.793,1.267 -0.966,1.768l-4.552,-0c-0.174,-0.511 -0.493,-1.271 -0.985,-1.782c-0.834,-0.861 -1.955,-1.335 -3.163,-1.335c-0.278,-0 -0.56,0.027 -0.852,0.082c-1.417,0.287 -2.597,1.28 -3.176,2.588l-0,-10.049l22.75,0Zm0.765,-1.093l-24.281,-0c-0.328,-0 -0.328,0.159 -0.328,0.342l-0,11.999c-0,0.182 0.146,0.342 0.328,0.342l1.176,-0c0.182,-0 0.328,-0.096 0.328,-0.219l0.023,-0.109c0.246,-1.358 1.308,-2.457 2.629,-2.726c0.21,-0.041 0.424,-0.059 0.634,-0.059c0.889,0 1.741,0.351 2.374,1.003c0.552,0.574 0.857,1.786 0.857,1.786c0.05,0.182 0.232,0.328 0.415,0.328l5.541,0c0.173,0 0.356,-0.146 0.415,-0.328c-0,0 0.319,-1.212 0.857,-1.786c0.629,-0.647 1.481,-1.012 2.356,-1.012c0.219,-0 0.437,0.023 0.652,0.068c1.321,0.255 2.374,1.358 2.629,2.726l0.023,0.109c-0,0.123 0.146,0.219 0.328,0.219l1.039,-0c0.173,-0 0.328,-0.16 0.328,-0.342l0,-8.171c0,-0.183 0.146,-0.342 0.328,-0.342l1.336,-0c0.182,-0 0.328,-0.16 0.328,-0.342l-0,-3.145c-0,-0.182 -0.146,-0.341 -0.328,-0.341l0.013,-0Z" style="fill:#679941;fill-rule:nonzero;"/><path d="M5.059,55.996c0.815,0 1.476,0.661 1.476,1.477c0,0.815 -0.661,1.476 -1.476,1.476c-0.816,0 -1.477,-0.661 -1.477,-1.476c0,-0.816 0.661,-1.477 1.477,-1.477Zm-0,-1.094c-1.418,0 -2.571,1.153 -2.571,2.571c0,1.417 1.153,2.57 2.571,2.57c1.417,0 2.57,-1.153 2.57,-2.57c-0,-1.418 -1.153,-2.571 -2.57,-2.571Z" style="fill:#679941;fill-rule:nonzero;"/><path d="M17.874,55.996c0.815,0 1.476,0.661 1.476,1.477c0,0.815 -0.661,1.476 -1.476,1.476c-0.816,0 -1.477,-0.661 -1.477,-1.476c0,-0.816 0.661,-1.477 1.477,-1.477Zm-0,-1.094c-1.418,0 -2.571,1.153 -2.571,2.571c0,1.417 1.153,2.57 2.571,2.57c1.417,0 2.57,-1.153 2.57,-2.57c-0,-1.418 -1.153,-2.571 -2.57,-2.571Z" style="fill:#679941;fill-rule:nonzero;"/></g><g><path d="M54.02,35.024c0.214,-0 0.392,0.187 0.392,0.41l-0,0.624c-0,0.224 0.178,0.41 0.392,0.41l0.788,0c0.214,0 0.392,0.187 0.392,0.411l0,5.395c0,0.224 -0.178,0.411 -0.392,0.411l-3.158,-0c-0.214,-0 -0.392,-0.187 -0.392,-0.411l0,-5.386c0,-0.224 0.178,-0.41 0.392,-0.41l0.779,-0.001c0.214,0 0.392,-0.186 0.392,-0.41l0,-0.624c0,-0.223 0.178,-0.41 0.392,-0.41l0.018,-0m0,-1.094l-0.018,0c-0.802,0 -1.458,0.647 -1.486,1.449l-0.082,0c-0.82,0 -1.485,0.675 -1.485,1.504l-0,5.396c-0,0.829 0.665,1.504 1.485,1.504l3.159,0c0.82,0 1.485,-0.675 1.485,-1.504l0,-5.4c0,-0.83 -0.665,-1.504 -1.485,-1.504l-0.087,-0c-0.027,-0.807 -0.684,-1.449 -1.486,-1.449l0,0.004Z" style="fill:#679941;fill-rule:nonzero;"/><path d="M67.515,50.481c0.209,0 0.383,0.183 0.383,0.401l-0,4.672c-0,0.218 -0.174,0.401 -0.383,0.401l-0.743,-0c-0.21,-0 -0.497,-0.142 -0.638,-0.306l-0.037,-0.054l-0.009,-0.009c-0.141,-0.164 -0.246,-0.488 -0.246,-0.707l0,-3.997c0,-0.218 0.173,-0.401 0.383,-0.401l1.285,0m0.005,-1.093l-1.29,-0c-0.816,-0 -1.476,0.67 -1.476,1.494l-0,3.997c-0,0.397 0.145,0.966 0.474,1.377l0.031,0.05l0.041,0.045c0.351,0.415 0.944,0.697 1.477,0.697l0.743,0c0.816,0 1.476,-0.669 1.476,-1.494l0,-4.672c0,-0.824 -0.665,-1.494 -1.476,-1.494Z" style="fill:#679941;fill-rule:nonzero;"/><path d="M64.844,45.669l-0,1.641l-0.57,0c-0.784,0 -1.422,0.643 -1.422,1.436l0,6.699c-0.62,-1.185 -1.736,-2.06 -3.03,-2.315c-0.288,-0.064 -0.584,-0.091 -0.88,-0.091c-1.167,-0 -2.315,0.487 -3.154,1.358c-0.474,0.506 -0.793,1.267 -0.966,1.768l-4.553,-0c-0.173,-0.511 -0.492,-1.271 -0.984,-1.782c-0.834,-0.861 -1.955,-1.335 -3.163,-1.335c-0.278,-0 -0.56,0.027 -0.852,0.082c-1.417,0.287 -2.597,1.28 -3.176,2.588l-0,-10.049l22.75,0Zm0.765,-1.093l-24.281,-0c-0.328,-0 -0.328,0.159 -0.328,0.342l-0,11.999c-0,0.182 0.146,0.342 0.328,0.342l1.176,-0c0.182,-0 0.328,-0.096 0.328,-0.219l0.023,-0.109c0.246,-1.358 1.308,-2.457 2.629,-2.726c0.21,-0.041 0.424,-0.059 0.634,-0.059c0.888,0 1.741,0.351 2.374,1.003c0.552,0.574 0.857,1.786 0.857,1.786c0.05,0.182 0.232,0.328 0.415,0.328l5.541,0c0.173,0 0.356,-0.146 0.415,-0.328c-0,0 0.319,-1.212 0.857,-1.786c0.629,-0.647 1.481,-1.012 2.356,-1.012c0.219,-0 0.437,0.023 0.652,0.068c1.321,0.255 2.374,1.358 2.629,2.726l0.023,0.109c-0,0.123 0.146,0.219 0.328,0.219l1.039,-0c0.173,-0 0.328,-0.16 0.328,-0.342l0,-8.171c0,-0.183 0.146,-0.342 0.328,-0.342l1.336,-0c0.182,-0 0.328,-0.16 0.328,-0.342l-0,-3.145c-0,-0.182 -0.146,-0.341 -0.328,-0.341l0.013,-0Z" style="fill:#679941;fill-rule:nonzero;"/><path d="M46.059,55.996c0.815,0 1.476,0.661 1.476,1.477c0,0.815 -0.661,1.476 -1.476,1.476c-0.816,0 -1.477,-0.661 -1.477,-1.476c0,-0.816 0.661,-1.477 1.477,-1.477Zm-0,-1.094c-1.418,0 -2.571,1.153 -2.571,2.571c0,1.417 1.153,2.57 2.571,2.57c1.417,0 2.57,-1.153 2.57,-2.57c-0,-1.418 -1.153,-2.571 -2.57,-2.571Z" style="fill:#679941;fill-rule:nonzero;"/><path d="M58.874,55.996c0.815,0 1.476,0.661 1.476,1.477c0,0.815 -0.661,1.476 -1.477,1.476c-0.815,0 -1.476,-0.661 -1.476,-1.476c-0,-0.816 0.661,-1.477 1.476,-1.477Zm0,-1.094c-1.417,0 -2.57,1.153 -2.57,2.571c0,1.417 1.153,2.57 2.57,2.57c1.418,0 2.571,-1.153 2.571,-2.57c-0,-1.418 -1.153,-2.571 -2.571,-2.571Z" style="fill:#679941;fill-rule:nonzero;"/></g></svg>