<svg xmlns="http://www.w3.org/2000/svg" xmlns:xlink="http://www.w3.org/1999/xlink" viewBox="0,0,256,256" width="50px" height="50px" fill-rule="nonzero"><g fill="#679941" fill-rule="nonzero" stroke="none" stroke-width="1" stroke-linecap="butt" stroke-linejoin="miter" stroke-miterlimit="10" stroke-dasharray="" stroke-dashoffset="0" font-family="none" font-weight="none" font-size="none" text-anchor="none" style="mix-blend-mode: normal"><g transform="scale(5.12,5.12)"><path d="M35,2c-2.96875,0 -5.56641,1.73047 -6.94922,4.26563c-0.95312,-0.15234 -1.91797,-0.24609 -2.85156,-0.25781v-0.00781h-0.19922c-11.60156,0 -21,9.39844 -21,21c0,11.60156 9.39844,21 21,21c11.60156,0 21,-9.39844 21,-21c0,-4.48828 -1.52344,-8.88281 -4.16016,-12.4375c0.69531,-1.59375 1.16016,-3.0625 1.16016,-4.16016c0,-4.60156 -3.60156,-8.40234 -8,-8.40234zM35,4c3.30078,0 6,2.89844 6,6.40234c0,2.39844 -3.19922,7.99609 -6,12.09766c-2.80078,-4.10156 -6,-9.69922 -6,-12.09766c0,-3.50391 2.69922,-6.40234 6,-6.40234zM35,6c-2.19922,0 -4,1.80078 -4,4c0,2.19922 1.80078,4 4,4c2.19922,0 4,-1.80078 4,-4c0,-2.19922 -1.80078,-4 -4,-4zM35,8c1.11719,0 2,0.88281 2,2c0,1.11719 -0.88281,2 -2,2c-1.11719,0 -2,-0.88281 -2,-2c0,-1.11719 0.88281,-2 2,-2zM26,8.04688c0.42578,0.01953 0.86328,0.05859 1.30078,0.10938c-0.1875,0.71875 -0.30078,1.46875 -0.30078,2.24609c0,1.42188 0.76953,3.46094 1.82813,5.59766h-2.82812zM24,8.13281v7.86719h-6.28125c1.46094,-4.25391 3.71875,-7.24219 6.28125,-7.86719zM19.39844,8.83984c-1.57422,1.73828 -2.87891,4.19531 -3.8125,7.16016h-6.0625c2.39453,-3.35937 5.83984,-5.91797 9.875,-7.16016zM40.85547,16.61328c1.87891,2.76172 2.92969,6.01953 3.10547,9.38672h-7.96875c-0.00391,-0.45703 -0.02344,-0.89844 -0.05078,-1.35156c1.15625,-1.66797 3.21875,-4.75781 4.91406,-8.03516zM8.26563,18h6.76563c-0.58594,2.43359 -0.9375,5.12891 -1.00391,8h-7.97656c0.14844,-2.88281 0.91797,-5.59766 2.21484,-8zM17.10938,18h6.89063v8h-7.97266c0.07422,-2.86328 0.44922,-5.58594 1.08203,-8zM26,18h3.89844c1.44141,2.58984 2.97656,4.92969 4.00391,6.42188c0.03125,0.51563 0.05078,1.04688 0.06641,1.57813h-7.96875zM6.05078,28h7.97656c0.06641,2.87109 0.41797,5.56641 1.00391,8h-6.76562c-1.29687,-2.40234 -2.06641,-5.11719 -2.21484,-8zM16.02734,28h7.97266v8h-6.89062c-0.63281,-2.41406 -1.00781,-5.13672 -1.08203,-8zM26,28h7.97266c-0.07422,2.86328 -0.44922,5.58594 -1.08203,8h-6.89062zM35.97266,28h7.97656c-0.14844,2.88281 -0.91797,5.59766 -2.21484,8h-6.76562c0.58594,-2.43359 0.9375,-5.12891 1.00391,-8zM9.52344,38h6.0625c0.93359,2.96484 2.23828,5.42188 3.8125,7.16016c-4.03516,-1.24219 -7.48047,-3.80078 -9.875,-7.16016zM17.71875,38h6.28125v7.87109c-2.55859,-0.62891 -4.82031,-3.61719 -6.28125,-7.87109zM26,38h6.28125c-1.46094,4.25391 -3.72266,7.24219 -6.28125,7.87109zM34.41406,38h6.0625c-2.39453,3.35938 -5.83984,5.91797 -9.875,7.16016c1.57422,-1.73828 2.87891,-4.19531 3.8125,-7.16016z"></path></g></g></svg>