<svg xmlns="http://www.w3.org/2000/svg" xmlns:xlink="http://www.w3.org/1999/xlink" viewBox="0,0,256,256" width="50px" height="50px" fill-rule="nonzero"><g fill="#4192ec" fill-rule="nonzero" stroke="none" stroke-width="1" stroke-linecap="butt" stroke-linejoin="miter" stroke-miterlimit="10" stroke-dasharray="" stroke-dashoffset="0" font-family="none" font-weight="none" font-size="none" text-anchor="none" style="mix-blend-mode: normal"><g transform="scale(5.12,5.12)"><path d="M26,1c-4.40625,0 -8,3.59375 -8,8c0,1.85547 0.9375,3.66406 2.21875,5.4375c1.28125,1.77344 2.9375,3.5 4.59375,5.03125c3.3125,3.05859 6.625,5.34375 6.625,5.34375l0.5625,0.40625l0.5625,-0.40625c0,0 3.31641,-2.28125 6.625,-5.34375c1.65625,-1.53125 3.3125,-3.26172 4.59375,-5.03125c1.28125,-1.76953 2.21875,-3.58984 2.21875,-5.4375c0,-4.40625 -3.59375,-8 -8,-8c-2.42187,0 -4.53516,1.13672 -6,2.84375c-1.46484,-1.70703 -3.57812,-2.84375 -6,-2.84375zM26,3c2.19141,0 4.10547,1.1875 5.15625,2.9375l0.84375,1.40625l0.84375,-1.40625c1.05078,-1.75 2.96484,-2.9375 5.15625,-2.9375c3.32422,0 6,2.67578 6,6c0,1.11719 -0.6875,2.64844 -1.84375,4.25c-1.15625,1.60156 -2.75,3.27344 -4.34375,4.75c-2.90625,2.69141 -5.31641,4.36719 -5.8125,4.71875c-0.49609,-0.35156 -2.90625,-2.03516 -5.8125,-4.71875c-1.59375,-1.47266 -3.1875,-3.11719 -4.34375,-4.71875c-1.15625,-1.60156 -1.84375,-3.14844 -1.84375,-4.28125c0,-3.32422 2.67578,-6 6,-6zM46,26.03125c-0.96875,0.05859 -1.9375,0.5 -2.65625,1.21875l-9.78125,9.75h-9.125l-0.40625,-0.40625l5.84375,-1.15625c1.49219,-0.29687 2.77344,-1.42969 3.0625,-3c0.42578,-2.33203 -1.39844,-4.4375 -3.6875,-4.4375h-13.9375c-2.38672,0 -4.6875,0.9375 -6.375,2.625l-8.65625,8.65625l-0.6875,0.71875l0.6875,0.71875l9,9l0.71875,0.6875l0.71875,-0.6875l3.40625,-3.4375c0.1875,-0.1875 0.42188,-0.28125 0.6875,-0.28125h18.53125c1.32422,0 2.59375,-0.53125 3.53125,-1.46875l12,-12c1.53516,-1.53516 1.47266,-4.09766 -0.15625,-5.5625c-0.78125,-0.70312 -1.75,-0.99609 -2.71875,-0.9375zM46.09375,28.03125c0.47656,-0.03516 0.95703,0.11719 1.3125,0.4375c0.80078,0.71875 0.80859,1.91016 0.0625,2.65625l-12,12c-0.5625,0.5625 -1.32812,0.875 -2.125,0.875h-18.53125c-0.79687,0 -1.53125,0.3125 -2.09375,0.875l-2.71875,2.6875l-7.5625,-7.5625l7.9375,-7.9375c1.3125,-1.3125 3.08203,-2.0625 4.9375,-2.0625h13.9375c1.08594,0 1.92969,0.93359 1.71875,2.09375c-0.125,0.67969 -0.75,1.22656 -1.5,1.375l-7.65625,1.5625l-1.84375,0.34375l1.3125,1.34375l2,2l0.3125,0.28125h10.8125l0.3125,-0.28125l10.03125,-10.0625c0.36328,-0.36328 0.86719,-0.58984 1.34375,-0.625z"></path></g></g></svg>