<svg xmlns="http://www.w3.org/2000/svg" xmlns:xlink="http://www.w3.org/1999/xlink" viewBox="0,0,256,256" width="50px" height="50px" fill-rule="nonzero"><g fill="#b0bac9" fill-rule="nonzero" stroke="none" stroke-width="1" stroke-linecap="butt" stroke-linejoin="miter" stroke-miterlimit="10" stroke-dasharray="" stroke-dashoffset="0" font-family="none" font-weight="none" font-size="none" text-anchor="none" style="mix-blend-mode: normal"><g transform="scale(5.12,5.12)"><path d="M22.20508,2c-0.49016,0.00042 -0.90778,0.35602 -0.98633,0.83984l-0.79883,4.89258c-1.55543,0.41319 -3.01977,1.02588 -4.37695,1.81445l-4.04687,-2.89258c-0.39813,-0.28429 -0.94348,-0.23885 -1.28906,0.10742l-3.88867,3.88867c-0.34275,0.34265 -0.39048,0.88175 -0.11328,1.2793l2.85742,4.08203c-0.79495,1.3621 -1.41201,2.83315 -1.82812,4.39453l-4.89844,0.81641c-0.48228,0.08025 -0.83584,0.49742 -0.83594,0.98633v5.5c0.00024,0.48506 0.3485,0.90002 0.82617,0.98438l4.90039,0.86914c0.41311,1.56114 1.02634,3.03162 1.81836,4.39453l-2.89258,4.04297c-0.28429,0.39813 -0.23885,0.94348 0.10742,1.28906l3.88867,3.88867c0.34265,0.34275 0.88175,0.39048 1.2793,0.11328l4.08203,-2.85547c1.36199,0.79669 2.8318,1.41309 4.39258,1.82813l0.81836,4.90234c0.08025,0.48228 0.49742,0.83584 0.98633,0.83594h5.5c0.48506,-0.00024 0.90002,-0.34851 0.98438,-0.82617l0.86914,-4.90039c1.57784,-0.41689 3.06263,-1.03939 4.4375,-1.84375l4.07422,2.85742c0.39749,0.27882 0.93781,0.23187 1.28125,-0.11133l3.88867,-3.88867c0.34612,-0.34687 0.38995,-0.89343 0.10352,-1.29102l-2.89648,-4.02539c0.79832,-1.36894 1.41793,-2.84838 1.83203,-4.41992l4.89258,-0.85937c0.47767,-0.08436 0.82594,-0.49932 0.82617,-0.98437v-5.5c-0.00026,-0.48953 -0.35484,-0.90693 -0.83789,-0.98633l-4.89258,-0.80078c-0.41694,-1.56996 -1.03756,-3.04821 -1.83789,-4.41602l2.85742,-4.07031c0.27882,-0.39749 0.23187,-0.93781 -0.11133,-1.28125l-3.88867,-3.88867c-0.34636,-0.34674 -0.89297,-0.39139 -1.29102,-0.10547l-4.02734,2.89453c-1.37004,-0.79891 -2.84991,-1.41727 -4.42187,-1.83203l-0.85742,-4.89453c-0.08364,-0.47917 -0.49991,-0.82867 -0.98633,-0.82812zM23.05664,4h3.80859l0.81836,4.66016c0.0694,0.39887 0.37243,0.71655 0.76758,0.80469c1.82824,0.40513 3.5332,1.12685 5.06836,2.10352c0.34532,0.21924 0.78935,0.20609 1.12109,-0.0332l3.83594,-2.75586l2.69336,2.69531l-2.72266,3.87695c-0.23279,0.33203 -0.24204,0.77175 -0.02344,1.11328c0.97724,1.53176 1.70041,3.23807 2.10742,5.06445c0.08881,0.39879 0.41127,0.70346 0.81445,0.76953l4.6543,0.75977v3.81055l-4.66016,0.81836c-0.39812,0.07011 -0.71488,0.373 -0.80273,0.76758c-0.4041,1.82692 -1.12602,3.53341 -2.10156,5.06641c-0.21981,0.34493 -0.20744,0.78895 0.03125,1.12109l2.75977,3.83398l-2.69336,2.69336l-3.88281,-2.72266c-0.33159,-0.23192 -0.77026,-0.24117 -1.11133,-0.02344c-1.53668,0.9802 -3.24252,1.70223 -5.07422,2.10938c-0.39401,0.08758 -0.69675,0.40342 -0.76758,0.80078l-0.82812,4.66797h-3.81445l-0.77734,-4.66602c-0.06752,-0.40168 -0.3719,-0.72228 -0.76953,-0.81055c-1.81831,-0.40616 -3.51239,-1.12348 -5.03906,-2.09766c-0.34107,-0.21773 -0.77974,-0.20848 -1.11133,0.02344l-3.88867,2.71875l-2.69531,-2.69531l2.75195,-3.84961c0.23754,-0.33089 0.25067,-0.77278 0.0332,-1.11719c-0.96951,-1.53012 -1.68762,-3.22411 -2.0918,-5.04102c-0.08758,-0.39401 -0.40342,-0.69675 -0.80078,-0.76758l-4.66602,-0.82812v-3.81445l4.66211,-0.77539c0.40168,-0.06752 0.72228,-0.3719 0.81055,-0.76953c0.40703,-1.81801 1.12742,-3.51403 2.09961,-5.04297c0.21628,-0.34101 0.20626,-0.77862 -0.02539,-1.10937l-2.7207,-3.88867l2.69727,-2.69727l3.85352,2.75391c0.33086,0.23606 0.77168,0.24842 1.11523,0.03125c1.5263,-0.96665 3.22135,-1.68378 5.03516,-2.08789c0.39879,-0.08881 0.70346,-0.41127 0.76953,-0.81445zM25,13c-6.61569,0 -12,5.38531 -12,11.99805c0,6.61455 5.38431,12.00195 12,12.00195c6.61569,0 12,-5.3874 12,-12.00195c0,-6.61273 -5.38431,-11.99805 -12,-11.99805zM25,15c5.53431,0 10,4.46678 10,9.99805c0,5.53345 -4.46569,10.00195 -10,10.00195c-5.53431,0 -10,-4.46851 -10,-10.00195c0,-5.53127 4.46569,-9.99805 10,-9.99805zM25,19c-3.30186,0 -6,2.69814 -6,6c0,3.30186 2.69814,6 6,6c3.30186,0 6,-2.69814 6,-6c0,-3.30186 -2.69814,-6 -6,-6zM25,21c2.22098,0 4,1.77902 4,4c0,2.22098 -1.77902,4 -4,4c-2.22098,0 -4,-1.77902 -4,-4c0,-2.22098 1.77902,-4 4,-4z"></path></g></g></svg>