<svg width="47" height="47" viewBox="0 0 47 47" fill="none" xmlns="http://www.w3.org/2000/svg">
<path d="M21.855 3.39659C22.2145 3.39659 22.5128 3.71016 22.5128 4.08506V5.13302C22.5128 5.50791 22.8111 5.82149 23.1706 5.82149H24.4941C24.8536 5.82149 25.152 6.13525 25.152 6.50997V15.5674C25.152 15.9421 24.8536 16.2559 24.4941 16.2559H19.1929C18.8332 16.2559 18.5349 15.9421 18.5349 15.5674V6.52539C18.5349 6.15049 18.8332 5.83691 19.1929 5.83691H20.501C20.8605 5.83691 21.1588 5.52315 21.1588 5.14844V4.1003C21.1588 3.72559 21.4571 3.41182 21.8166 3.41182H21.8473M21.8473 1.57589H21.8166C20.4703 1.57589 19.3688 2.66221 19.3229 4.0085H19.1852C17.8082 4.0085 16.6914 5.14073 16.6914 6.53292V15.5903C16.6914 16.9825 17.8082 18.1147 19.1852 18.1147H24.4864C25.8634 18.1147 26.9802 16.9825 26.9802 15.5903V6.52539C26.9802 5.13302 25.8634 4.00098 24.4864 4.00098H24.341C24.2951 2.64697 23.1936 1.56836 21.8473 1.56836V1.57589Z" fill="#69A343"/>
<path d="M44.5067 29.3442C44.8585 29.3442 45.1493 29.6503 45.1493 30.0175V37.8584C45.1493 38.2256 44.8585 38.5316 44.5067 38.5316H43.2598C42.9078 38.5316 42.4259 38.2944 42.1889 38.019L42.1275 37.9272L42.1123 37.912C41.8751 37.6366 41.6992 37.0935 41.6992 36.7264V30.0175C41.6992 29.6503 41.9898 29.3442 42.3418 29.3442H44.499M44.5067 27.5083H42.3418C40.9726 27.5083 39.8633 28.6328 39.8633 30.0175V36.7264C39.8633 37.3919 40.108 38.348 40.6588 39.0365L40.7124 39.1206L40.7812 39.1972C41.3702 39.8934 42.3647 40.3676 43.2598 40.3676H44.5067C45.876 40.3676 46.9853 39.2431 46.9853 37.8584V30.0175C46.9853 28.6328 45.8683 27.5083 44.5067 27.5083Z" fill="#69A343"/>
<path d="M40.0234 21.2661V24.02H39.0673C37.7515 24.02 36.6806 25.0986 36.6806 26.4297V37.6748C35.6401 35.6859 33.766 34.2172 31.5934 33.7889C31.1114 33.6816 30.6143 33.6357 30.1171 33.6357C28.1587 33.6357 26.231 34.4544 24.8233 35.9154C24.0278 36.7645 23.4923 38.042 23.2017 38.8836H15.5596C15.2689 38.0268 14.7334 36.7493 13.9072 35.8925C12.5073 34.4467 10.6255 33.6512 8.59825 33.6512C8.13173 33.6512 7.65733 33.6971 7.16787 33.7889C4.78868 34.2708 2.80752 35.9384 1.83594 38.1338V21.2661H40.0234ZM41.3086 19.4302H0.550781C0 19.4302 0 19.698 0 20.0039V40.1458C0 40.4517 0.24473 40.7195 0.550781 40.7195H2.52441C2.83046 40.7195 3.0752 40.5589 3.0752 40.3523L3.11338 40.1687C3.52647 37.8891 5.30898 36.0454 7.52734 35.5941C7.87929 35.5253 8.23877 35.4946 8.59072 35.4946C10.0824 35.4946 11.5128 36.0838 12.5762 37.1776C13.5019 38.1415 14.0143 40.1763 14.0143 40.1763C14.0985 40.4823 14.4044 40.727 14.7104 40.727H24.0126C24.3032 40.727 24.6093 40.4823 24.7086 40.1763C24.7086 40.1763 25.2441 38.1415 26.1469 37.1776C27.2025 36.0913 28.6329 35.4794 30.1017 35.4794C30.4689 35.4794 30.836 35.5176 31.1957 35.5941C33.4141 36.0225 35.1812 37.8738 35.6095 40.1687L35.6479 40.3523C35.6479 40.5589 35.8926 40.7195 36.1986 40.7195H37.9428C38.2334 40.7195 38.4936 40.4517 38.4936 40.1458V26.4297C38.4936 26.1238 38.7383 25.856 39.0443 25.856H41.2856C41.5917 25.856 41.8364 25.5883 41.8364 25.2822V20.0039C41.8364 19.698 41.5917 19.4302 41.2856 19.4302H41.3086Z" fill="#69A343"/>
<path d="M8.49121 38.6006C9.86045 38.6006 10.9697 39.7099 10.9697 41.0791C10.9697 42.4483 9.86045 43.5576 8.49121 43.5576C7.12197 43.5576 6.0127 42.4483 6.0127 41.0791C6.0127 39.7099 7.12197 38.6006 8.49121 38.6006ZM8.49121 36.7646C6.1122 36.7646 4.17676 38.7001 4.17676 41.0791C4.17676 43.4581 6.1122 45.3936 8.49121 45.3936C10.8702 45.3936 12.8057 43.4581 12.8057 41.0791C12.8057 38.7001 10.8702 36.7646 8.49121 36.7646Z" fill="#69A343"/>
<path d="M30.002 38.6006C31.3712 38.6006 32.4805 39.7099 32.4805 41.0791C32.4805 42.4483 31.3712 43.5576 30.002 43.5576C28.6325 43.5576 27.5234 42.4483 27.5234 41.0791C27.5234 39.7099 28.6325 38.6006 30.002 38.6006ZM30.002 36.7646C27.6228 36.7646 25.6875 38.7001 25.6875 41.0791C25.6875 43.4581 27.6228 45.3936 30.002 45.3936C32.381 45.3936 34.3164 43.4581 34.3164 41.0791C34.3164 38.7001 32.381 36.7646 30.002 36.7646Z" fill="#69A343"/>
</svg>
