<svg xmlns="http://www.w3.org/2000/svg" xmlns:xlink="http://www.w3.org/1999/xlink" viewBox="0,0,256,256" width="50px" height="50px" fill-rule="nonzero"><g fill="#679941" fill-rule="nonzero" stroke="none" stroke-width="1" stroke-linecap="butt" stroke-linejoin="miter" stroke-miterlimit="10" stroke-dasharray="" stroke-dashoffset="0" font-family="none" font-weight="none" font-size="none" text-anchor="none" style="mix-blend-mode: normal"><g transform="scale(5.12,5.12)"><path d="M3,6c-1.64453,0 -3,1.35547 -3,3v32c0,1.64453 1.35547,3 3,3h18c0.35938,0.00391 0.69531,-0.18359 0.87891,-0.49609c0.17969,-0.3125 0.17969,-0.69531 0,-1.00781c-0.18359,-0.3125 -0.51953,-0.5 -0.87891,-0.49609h-18c-0.56641,0 -1,-0.43359 -1,-1v-32c0,-0.56641 0.43359,-1 1,-1h11.1875c0.26563,0 0.5,0.09375 0.6875,0.28125l2.40625,2.4375c0.19141,0.1875 0.45313,0.28906 0.71875,0.28125h15c0.35938,0.00391 0.69531,-0.18359 0.87891,-0.49609c0.17969,-0.3125 0.17969,-0.69531 0,-1.00781c-0.18359,-0.3125 -0.51953,-0.5 -0.87891,-0.49609h-14.5625l-2.15625,-2.125c-0.5625,-0.5625 -1.29687,-0.875 -2.09375,-0.875zM36.90625,6.96875c-0.04297,0.00781 -0.08594,0.01953 -0.125,0.03125c-0.46484,0.10547 -0.79297,0.52344 -0.78125,1c0,7.16797 5.83203,13 13,13c0.35938,0.00391 0.69531,-0.18359 0.87891,-0.49609c0.17969,-0.3125 0.17969,-0.69531 0,-1.00781c-0.18359,-0.3125 -0.51953,-0.5 -0.87891,-0.49609c-6.08594,0 -11,-4.91406 -11,-11c0.01172,-0.28906 -0.10547,-0.56641 -0.3125,-0.76172c-0.21094,-0.19922 -0.49609,-0.29687 -0.78125,-0.26953zM40.90625,6.96875c-0.04297,0.00781 -0.08594,0.01953 -0.125,0.03125c-0.46484,0.10547 -0.79297,0.52344 -0.78125,1c0,4.95703 4.04297,9 9,9c0.35938,0.00391 0.69531,-0.18359 0.87891,-0.49609c0.17969,-0.3125 0.17969,-0.69531 0,-1.00781c-0.18359,-0.3125 -0.51953,-0.5 -0.87891,-0.49609c-3.87891,0 -7,-3.12109 -7,-7c0.01172,-0.28906 -0.10547,-0.56641 -0.3125,-0.76172c-0.21094,-0.19922 -0.49609,-0.29687 -0.78125,-0.26953zM44.90625,6.96875c-0.04297,0.00781 -0.08594,0.01953 -0.125,0.03125c-0.46484,0.10547 -0.79297,0.52344 -0.78125,1c0,2.75 2.25,5 5,5c0.35938,0.00391 0.69531,-0.18359 0.87891,-0.49609c0.17969,-0.3125 0.17969,-0.69531 0,-1.00781c-0.18359,-0.3125 -0.51953,-0.5 -0.87891,-0.49609c-1.66797,0 -3,-1.33203 -3,-3c0.01172,-0.28906 -0.10547,-0.56641 -0.3125,-0.76172c-0.21094,-0.19922 -0.49609,-0.29687 -0.78125,-0.26953zM49,7c-0.55078,0 -1,0.44922 -1,1c0,0.55078 0.44922,1 1,1c0.55078,0 1,-0.44922 1,-1c0,-0.55078 -0.44922,-1 -1,-1zM46.90625,22.96875c-0.04297,0.00781 -0.08594,0.01953 -0.125,0.03125c-0.46484,0.10547 -0.79297,0.52344 -0.78125,1v17c0,0.56641 -0.43359,1 -1,1h-16c-0.35937,-0.00391 -0.69531,0.18359 -0.87891,0.49609c-0.17969,0.3125 -0.17969,0.69531 0,1.00781c0.18359,0.3125 0.51953,0.5 0.87891,0.49609h16c1.64453,0 3,-1.35547 3,-3v-17c0.01172,-0.28906 -0.10547,-0.56641 -0.3125,-0.76172c-0.21094,-0.19922 -0.49609,-0.29687 -0.78125,-0.26953zM24.90625,23.96875c-0.04297,0.00781 -0.08594,0.01953 -0.125,0.03125c-0.03125,0.00781 -0.0625,0.01953 -0.09375,0.03125c-0.03125,0.00781 -0.0625,0.01953 -0.09375,0.03125c-0.06641,0.03516 -0.12891,0.07813 -0.1875,0.125c-0.09766,0.06641 -0.18359,0.15234 -0.25,0.25l-6.875,6.84375c-0.39844,0.39844 -0.39844,1.03906 0,1.4375c0.39844,0.39844 1.03906,0.39844 1.4375,0l5.28125,-5.28125v20.5625c-0.00391,0.35938 0.18359,0.69531 0.49609,0.87891c0.3125,0.17969 0.69531,0.17969 1.00781,0c0.3125,-0.18359 0.5,-0.51953 0.49609,-0.87891v-20.5625l5.28125,5.28125c0.39844,0.39844 1.03906,0.39844 1.4375,0c0.39844,-0.39844 0.39844,-1.03906 0,-1.4375l-6.875,-6.84375c-0.11328,-0.17187 -0.27734,-0.30078 -0.46875,-0.375c-0.05859,-0.02734 -0.125,-0.04687 -0.1875,-0.0625c-0.08984,-0.02344 -0.1875,-0.03516 -0.28125,-0.03125z"></path></g></g></svg>