<svg xmlns="http://www.w3.org/2000/svg" xmlns:xlink="http://www.w3.org/1999/xlink" viewBox="0,0,256,256" width="50px" height="50px" fill-rule="nonzero"><g fill="#4192ec" fill-rule="nonzero" stroke="none" stroke-width="1" stroke-linecap="butt" stroke-linejoin="miter" stroke-miterlimit="10" stroke-dasharray="" stroke-dashoffset="0" font-family="none" font-weight="none" font-size="none" text-anchor="none" style="mix-blend-mode: normal"><g transform="scale(5.12,5.12)"><path d="M44,2c-1.85156,0 -3.40625,1.28516 -3.85547,3h-24.14453c-3.74219,0 -6.89062,2.59766 -7.75781,6.07813c-1.83594,0.35547 -3.24219,1.98438 -3.24219,3.92188c0,1.86719 1.30859,3.4375 3.04688,3.87109c0.4375,4 3.83984,7.12891 7.95313,7.12891h18c2.70703,0 4.98047,1.77344 5.73438,4.22656c-1.57812,0.53516 -2.73437,2.01953 -2.73437,3.77344c0,1.82813 1.25391,3.36328 2.9375,3.83594c-0.40625,2.92578 -2.89844,5.16406 -5.9375,5.16406h-24.14453c-0.44922,-1.71484 -2.00391,-3 -3.85547,-3c-2.19922,0 -4,1.80078 -4,4c0,2.19922 1.80078,4 4,4c1.85156,0 3.40625,-1.28516 3.85547,-3h24.14453c4.11328,0 7.51563,-3.12891 7.95313,-7.12891c1.73828,-0.43359 3.04688,-2.00391 3.04688,-3.87109c0,-1.9375 -1.40625,-3.56641 -3.24609,-3.92187c-0.86328,-3.48047 -4.01172,-6.07812 -7.75391,-6.07812h-18c-3.03906,0 -5.53125,-2.23828 -5.9375,-5.16406c1.68359,-0.47266 2.9375,-2.00781 2.9375,-3.83594c0,-1.75391 -1.15625,-3.23828 -2.73437,-3.77344c0.75391,-2.45312 3.02734,-4.22656 5.73438,-4.22656h24.14453c0.44922,1.71484 2.00391,3 3.85547,3c2.19922,0 4,-1.80078 4,-4c0,-2.19922 -1.80078,-4 -4,-4zM44,4c1.11719,0 2,0.88281 2,2c0,1.11719 -0.88281,2 -2,2c-1.11719,0 -2,-0.88281 -2,-2c0,-1.11719 0.88281,-2 2,-2zM9,13c1.11719,0 2,0.88281 2,2c0,1.11719 -0.88281,2 -2,2c-1.11719,0 -2,-0.88281 -2,-2c0,-1.11719 0.88281,-2 2,-2zM41,32c1.11719,0 2,0.88281 2,2c0,1.11719 -0.88281,2 -2,2c-1.11719,0 -2,-0.88281 -2,-2c0,-1.11719 0.88281,-2 2,-2zM6,42c1.11719,0 2,0.88281 2,2c0,1.11719 -0.88281,2 -2,2c-1.11719,0 -2,-0.88281 -2,-2c0,-1.11719 0.88281,-2 2,-2z"></path></g></g></svg>