<svg xmlns="http://www.w3.org/2000/svg" xmlns:xlink="http://www.w3.org/1999/xlink" viewBox="0,0,256,256" width="50px" height="50px" fill-rule="nonzero"><g fill="#679941" fill-rule="nonzero" stroke="none" stroke-width="1" stroke-linecap="butt" stroke-linejoin="miter" stroke-miterlimit="10" stroke-dasharray="" stroke-dashoffset="0" font-family="none" font-weight="none" font-size="none" text-anchor="none" style="mix-blend-mode: normal"><g transform="scale(5.12,5.12)"><path d="M4,4v5v7h6v-6h6v-6h-1h-6zM34,4v1v5h6v6h6v-7v-5h-5zM6,6h3h5v2h-6v6h-2v-5zM36,6h5h3v3v5h-2v-6h-6zM25,22c-1.64501,0 -3,1.35499 -3,3c0,1.64501 1.35499,3 3,3c1.64501,0 3,-1.35499 3,-3c0,-1.64501 -1.35499,-3 -3,-3zM25,24c0.56413,0 1,0.43587 1,1c0,0.56413 -0.43587,1 -1,1c-0.56413,0 -1,-0.43587 -1,-1c0,-0.56413 0.43587,-1 1,-1zM4,34v7v5h5h7v-1v-5h-6v-6zM40,34v6h-6v6h1h6h5v-5v-7zM6,36h2v6h6v2h-5h-3v-3zM42,36h2v5v3h-3h-5v-2h6z"></path></g></g></svg>