<svg xmlns="http://www.w3.org/2000/svg" xmlns:xlink="http://www.w3.org/1999/xlink" viewBox="0,0,256,256" width="50px" height="50px" fill-rule="nonzero"><g fill="#4192ec" fill-rule="nonzero" stroke="none" stroke-width="1" stroke-linecap="butt" stroke-linejoin="miter" stroke-miterlimit="10" stroke-dasharray="" stroke-dashoffset="0" font-family="none" font-weight="none" font-size="none" text-anchor="none" style="mix-blend-mode: normal"><g transform="scale(5.12,5.12)"><path d="M2.75,1.8125c-0.04297,0.00781 -0.08594,0.01953 -0.125,0.03125c-0.375,0.06641 -0.67578,0.33984 -0.78125,0.70313c-0.10547,0.36719 0.00391,0.75781 0.28125,1.01563l28.6875,28.65625l1.4375,1.4375l14.1875,14.21875c0.39844,0.39844 1.03906,0.39844 1.4375,0c0.39844,-0.39844 0.39844,-1.03906 0,-1.4375l-14.21875,-14.21875c0.35938,-0.42578 0.70703,-0.86328 1,-1.34375c0.35547,0.18359 0.74609,0.45313 1.09375,0.78125c0.79297,0.74609 1.34375,1.625 1.34375,1.625c0.10547,0.16406 0.25781,0.29688 0.4375,0.375c0.01172,0 0.01953,0 0.03125,0c0.75391,1.05469 1.88672,1.84375 3.28125,1.84375c2.28906,0 4.15625,-1.86719 4.15625,-4.15625c0,-2.28906 -1.86719,-4.1875 -4.15625,-4.1875c-0.64453,0 -1.20312,0.26953 -1.75,0.53125c-0.14062,0.00391 -0.27734,0.03516 -0.40625,0.09375c-0.69531,0.30078 -1.19141,0.18359 -1.84375,-0.125c-0.26562,-0.125 -0.53516,-0.28906 -0.8125,-0.46875c0.14063,-0.71484 0.25,-1.4375 0.25,-2.1875c0,-0.125 0,-0.25 0,-0.375c0.03906,-0.02344 0.09766,-0.04297 0.1875,-0.09375c0.25,-0.14844 0.64453,-0.35156 1.125,-0.5c0.94922,-0.29297 2.17969,-0.43359 3.09375,-0.25c0.01172,0.00391 0.01953,-0.00391 0.03125,0c0.01172,0.00391 0.01953,-0.00391 0.03125,0c0.05469,0.01172 0.12891,0.01953 0.1875,0.03125c0.17578,0.03125 0.35938,0.0625 0.5625,0.0625c1.85156,0 3.375,-1.52344 3.375,-3.375c0,-1.85156 -1.52344,-3.375 -3.375,-3.375c-1.26172,0 -2.36328,0.72656 -2.9375,1.75c-0.27734,0.41016 -1.14062,0.92578 -1.96875,1.0625c-0.82812,0.13672 -1.39062,-0.03906 -1.625,-0.4375c-0.08594,-0.14062 -0.20312,-0.25781 -0.34375,-0.34375c-1.42969,-2.35937 -3.67187,-4.15625 -6.375,-4.96875c-0.08984,-0.03516 -0.18359,-0.05469 -0.28125,-0.0625c-0.0625,-0.00781 -0.125,-0.00781 -0.1875,0c-0.03125,0.00781 -0.0625,0.01953 -0.09375,0.03125c-0.10547,-0.11719 -0.21094,-0.23437 -0.28125,-0.375c-0.17578,-0.34766 -0.26562,-0.78906 -0.25,-1.28125c0.03516,-0.98437 0.5625,-2.17187 0.65625,-2.3125c0.51953,-0.76562 1.34375,-1.62891 1.34375,-3.03125c0,-2.28906 -1.86719,-4.15625 -4.15625,-4.15625c-2.28906,0 -4.15625,1.86719 -4.15625,4.15625c0,0.53125 0.12891,0.95703 0.25,1.34375c0.0625,0.19531 0.13672,0.36328 0.1875,0.5c0.05078,0.13672 0.03516,0.18359 0.09375,0.3125c0.01172,0 0.01953,0 0.03125,0c0.99609,2.10547 1.45703,3.63281 1.5625,4.5625c0,0.01172 0,0.01953 0,0.03125c-1.57812,0.28516 -3.03516,0.88281 -4.3125,1.75c-0.54687,-0.59766 -0.86719,-1.55859 -0.78125,-1.96875c0.01953,-0.07422 0.02734,-0.14453 0.03125,-0.1875c0.11719,-0.40234 0.1875,-0.78516 0.1875,-1.15625c0,-2.29687 -1.89062,-4.1875 -4.1875,-4.1875c-1.19141,0 -2.24219,0.50391 -3,1.3125l-7.34375,-7.34375c-0.20703,-0.22266 -0.50781,-0.33594 -0.8125,-0.3125zM25,5c1.20703,0 2.15625,0.94531 2.15625,2.15625c0,0.58984 -0.35937,0.96484 -1,1.90625c-0.48437,0.71484 -0.94922,1.88281 -1,3.34375c-0.02344,0.73047 0.09375,1.53906 0.46875,2.28125c0.375,0.74219 1.03906,1.40234 1.96875,1.78125c0.31641,0.16797 0.69531,0.15625 1,-0.03125c1.92578,0.8125 3.52734,2.24609 4.53125,4.0625c0.08203,0.15234 0.19922,0.28125 0.34375,0.375c0.83203,1.02344 2.25,1.22656 3.4375,1.03125c1.30859,-0.21484 2.57422,-0.81641 3.3125,-1.90625c0.02344,-0.03906 0.04297,-0.08203 0.0625,-0.125c0.23047,-0.44531 0.68359,-0.75 1.21875,-0.75c0.77344,0 1.375,0.60156 1.375,1.375c0,0.77344 -0.60156,1.375 -1.375,1.375c-0.08594,0 -0.20312,-0.00781 -0.3125,-0.03125c-0.01562,-0.00391 -0.01562,0.00391 -0.03125,0c-0.02734,-0.00391 -0.03516,0.00391 -0.0625,0c-1.41016,-0.28516 -2.86328,-0.08594 -4.0625,0.28125c-0.60547,0.18359 -1.15234,0.42969 -1.59375,0.6875c-0.21875,0.12891 -0.41016,0.26172 -0.59375,0.4375c-0.14453,0.13672 -0.27734,0.30078 -0.375,0.5625c-0.13672,0.19141 -0.20312,0.42188 -0.1875,0.65625c0.01172,0.17969 0,0.35156 0,0.53125c0,0.39063 -0.04687,0.78125 -0.09375,1.15625c-0.01953,0 -0.04297,0 -0.0625,0c-0.03125,0 -0.0625,0 -0.09375,0c-0.41406,0.07031 -0.73828,0.39063 -0.8125,0.80078c-0.07812,0.41406 0.10938,0.82813 0.46875,1.04297c0.12109,0.08203 0.33594,0.21094 0.5,0.3125c0.13281,0.15234 0.30469,0.26172 0.5,0.3125c0.16016,0.10156 0.28125,0.17969 0.4375,0.28125c-0.67578,-0.25781 -1.46484,-0.37891 -2.25,-0.09375c-0.34375,0.10156 -0.60937,0.37891 -0.69141,0.72656c-0.08594,0.34766 0.02344,0.71484 0.28516,0.96094c-0.07422,0.10156 -0.14062,0.21484 -0.21875,0.3125l-12.75,-12.75c0.33594,-0.02734 0.68359,-0.13281 1,-0.3125c0.39063,-0.22266 0.5625,-0.67969 0.46875,-1.09375c0.4375,-0.21094 0.90234,-0.39062 1.375,-0.53125c0.08594,0.28906 0.29688,0.52344 0.57813,0.64063c0.27734,0.11328 0.59375,0.09766 0.85938,-0.04687c0.48047,-0.26562 0.84766,-0.74219 1.03125,-1.28125c0.18359,-0.53906 0.19922,-1.12109 0.125,-1.78125c-0.14453,-1.3125 -0.6875,-3 -1.71875,-5.1875c0.00391,0.00391 -0.03125,-0.00391 -0.03125,0c0.00391,0.00781 0,-0.03125 0,-0.03125c0,-0.00391 0,-0.04297 -0.03125,-0.125c-0.03906,-0.10937 -0.10547,-0.28125 -0.15625,-0.4375c-0.09766,-0.3125 -0.15625,-0.71484 -0.15625,-0.71875c0,-1.20703 0.94922,-2.15625 2.15625,-2.15625zM35.28125,8.5625c-1.96875,0 -3.59375,1.625 -3.59375,3.59375c0,0.80078 -0.10937,1.16797 -0.15625,1.28125c0,0.01172 0,0.01953 0,0.03125c-0.33594,0.34766 -0.375,0.89063 -0.08984,1.28125c0.28516,0.39063 0.80859,0.52344 1.24609,0.3125c0,0 0.21875,-0.14062 0.34375,-0.28125c0.125,-0.14062 0.24609,-0.33594 0.34375,-0.5625c0.19141,-0.45703 0.3125,-1.08203 0.3125,-2.0625c0,-0.89062 0.70313,-1.59375 1.59375,-1.59375c0.89063,0 1.59375,0.70313 1.59375,1.59375c0,0.875 -0.74609,1.59375 -1.59375,1.59375c-1.45703,0 -2.03125,1.28125 -2.03125,1.28125c-0.28516,0.47656 -0.13281,1.08984 0.34375,1.375c0.47266,0.28516 1.08984,0.13281 1.375,-0.34375c0,0 0.35547,-0.3125 0.3125,-0.3125c1.95313,0 3.59375,-1.60937 3.59375,-3.59375c0,-1.96875 -1.625,-3.59375 -3.59375,-3.59375zM13.90625,10.15625c1.19531,0 2.1875,0.99219 2.1875,2.1875c0,0.20703 -0.04297,0.40234 -0.125,0.65625c-0.01953,0.05859 -0.05469,0.125 -0.0625,0.1875c-0.00781,0.04688 0,0.08203 0,0.125c-0.06641,0.36719 -0.01953,0.79688 0.0625,1.21875l-3.65625,-3.65625c0.39453,-0.42969 0.96484,-0.71875 1.59375,-0.71875zM29,19c-1.64453,0 -3,1.35547 -3,3c0,1.64453 1.35547,3 3,3c1.64453,0 3,-1.35547 3,-3c0,-1.64453 -1.35547,-3 -3,-3zM8.375,19.25c-1.85156,0 -3.375,1.52344 -3.375,3.375c0,1.85156 1.52344,3.375 3.375,3.375c0.625,0 1.19922,-0.18359 1.6875,-0.46875c0.01953,-0.01172 0.04297,-0.01953 0.0625,-0.03125c0.8125,-0.39844 1.39453,-0.62891 2.1875,-0.5c0.36719,0.08984 0.75,-0.03516 0.99609,-0.32031c0.24609,-0.28516 0.30859,-0.6875 0.16406,-1.03516c-0.14453,-0.34766 -0.47266,-0.58594 -0.84766,-0.61328c-1.42578,-0.23437 -2.57422,0.27734 -3.46875,0.71875c-0.01953,0.00781 -0.04297,0.01953 -0.0625,0.03125c-0.21875,0.13281 -0.46484,0.21875 -0.71875,0.21875c-0.77344,0 -1.375,-0.60156 -1.375,-1.375c0,-0.77344 0.60156,-1.375 1.375,-1.375c0.41406,0 0.77344,0.16797 1.03125,0.46875c0.02734,0.03516 0.05859,0.06641 0.09375,0.09375c0.50391,0.45703 1.07031,0.63281 1.65625,0.75c0.58594,0.11719 1.13672,0.19531 1.78125,-0.0625c0.51953,-0.20703 0.76953,-0.79297 0.5625,-1.3125c-0.20703,-0.51953 -0.79297,-0.76953 -1.3125,-0.5625c0.0625,-0.02734 -0.3125,0.03516 -0.65625,-0.03125c-0.34375,-0.06641 -0.66797,-0.23437 -0.6875,-0.25c-0.60937,-0.65234 -1.49609,-1.09375 -2.46875,-1.09375zM15.1875,19.40625c-0.97266,1.69531 -1.46875,3.60547 -1.46875,5.59375c0,0.61719 0.05469,1.23438 0.15625,1.84375c-0.00391,0.09375 0.00781,0.19141 0.03125,0.28125c0.00781,0.03125 0.02344,0.0625 0.03125,0.09375c0.01563,0.11328 -0.00781,0.17578 -0.03125,0.21875c-0.02734,0.05469 -0.11328,0.11719 -0.25,0.1875c-0.27344,0.14063 -0.8125,0.125 -0.8125,0.125c-0.61328,-0.35937 -1.32812,-0.59375 -2.09375,-0.59375c-2.28906,0 -4.15625,1.89844 -4.15625,4.1875c0,2.28906 1.86719,4.15625 4.15625,4.15625c1.37109,0 2.58984,-0.66797 3.34375,-1.6875c0.01953,-0.02344 0.01172,-0.03906 0.03125,-0.0625h0.03125c0.41016,-0.57812 0.98828,-1.07031 1.4375,-1.25c0.45313,-0.18359 0.63672,-0.19141 0.96875,0.125c0.01953,0.01953 0.48047,0.51172 1.25,1.125c-0.03125,0 -0.0625,0 -0.09375,0c-0.03125,0 -0.0625,0 -0.09375,0c-0.40625,0.07031 -0.72656,0.37891 -0.8125,0.78125c-0.07031,0.29688 -0.26562,0.62109 -0.5,0.84375c-0.17578,0.16797 -0.42969,0.25781 -0.4375,0.28125c-1.70312,0.17969 -3.03125,1.57031 -3.03125,3.25c0,1.85156 1.52344,3.375 3.375,3.375c1.83203,0 3.375,-1.5 3.375,-3.375c0,-0.72656 1,-1.90625 1,-1.90625c0.38672,-0.39844 0.38281,-1.03516 -0.01562,-1.42187c-0.39844,-0.38672 -1.03516,-0.38281 -1.42187,0.01563c0,0 -1.5625,1.33203 -1.5625,3.3125c0,0.82813 -0.58203,1.375 -1.375,1.375c-0.77344,0 -1.375,-0.60156 -1.375,-1.375c0,-0.73828 0.42578,-1.21484 1.28125,-1.28125c0.71484,-0.05859 1.10156,-0.375 1.5625,-0.8125c0.46094,-0.4375 0.87891,-1.03125 1.0625,-1.8125c0.05078,-0.19531 0.03906,-0.40234 -0.03125,-0.59375c1.23438,0.82813 2.91016,1.65625 4.78125,1.78125c0.12891,0.48438 0.16797,0.94922 0.125,1.375c-0.08594,0.87109 -0.52344,1.55469 -0.75,1.71875v0.03125c-1.19922,0.72656 -2.03125,2.02344 -2.03125,3.53125c0,2.28906 1.86719,4.15625 4.15625,4.15625c2.28906,0 4.15625,-1.86719 4.15625,-4.15625c0,-1.6875 -0.48047,-3.69531 -0.8125,-5.40625c-0.11719,-0.59375 -0.19531,-1.125 -0.25,-1.59375c0.88281,-0.25 1.71875,-0.58594 2.5,-1.03125l-1.5,-1.5c-0.21484,0.10547 -0.43359,0.19141 -0.65625,0.28125c-0.14453,-0.44141 -0.57031,-0.72656 -1.03125,-0.6875c-0.05469,0.00781 -0.10547,0.01563 -0.15625,0.03125c-0.1875,0.03516 -0.35937,0.12109 -0.5,0.25c-0.75,0.60156 -0.74609,1.40234 -0.71875,2.15625c0.02734,0.75391 0.17188,1.58203 0.34375,2.46875c0.34375,1.77344 0.78125,3.77734 0.78125,5.03125c0,1.20703 -0.94922,2.15625 -2.15625,2.15625c-1.20703,0 -2.15625,-0.94922 -2.15625,-2.15625c0,-0.8125 0.42969,-1.5 1.09375,-1.875c0.03125,-0.01953 0.0625,-0.03906 0.09375,-0.0625c0.91016,-0.66016 1.46094,-1.8125 1.59375,-3.15625c0.13281,-1.34375 -0.21094,-2.90625 -1.3125,-4.34375c-0.25781,-0.35156 -0.71094,-0.49609 -1.12109,-0.35937c-0.41406,0.13281 -0.69141,0.51953 -0.69141,0.95313c-2.36719,-0.70312 -4.53125,-2.78125 -4.53125,-2.78125c-0.01172,-0.01172 -0.01953,-0.01953 -0.03125,-0.03125c-0.87891,-0.84375 -2.13672,-0.91797 -3.09375,-0.53125c-0.85547,0.34375 -1.52734,0.98828 -2.09375,1.71875c0,0 -0.04687,0.05078 -0.0625,0.0625c-0.04687,0.03516 -0.10547,0.04297 -0.1875,0.15625c0,0.01172 0,0.01953 0,0.03125c-0.39844,0.53906 -1.03125,0.875 -1.75,0.875c-1.20703,0 -2.15625,-0.94922 -2.15625,-2.15625c0,-1.20703 0.94922,-2.1875 2.15625,-2.1875c0.42578,0 0.8125,0.125 1.15625,0.34375c0.05078,0.03516 0.10156,0.06641 0.15625,0.09375c0.82813,0.35156 1.67188,0.23438 2.5,-0.1875c0.41406,-0.21094 0.82813,-0.51562 1.09375,-1c0.26563,-0.48437 0.35547,-1.11328 0.21875,-1.71875c-0.01562,-0.0625 -0.03516,-0.12891 -0.0625,-0.1875c-0.07812,-0.49609 -0.09375,-1 -0.09375,-1.5c0,-1.38672 0.29688,-2.71094 0.875,-3.9375c0.08984,0.02344 0.16016,0.03125 0.25,0.03125zM29,21c0.5625,0 1,0.4375 1,1c0,0.5625 -0.4375,1 -1,1c-0.5625,0 -1,-0.4375 -1,-1c0,-0.5625 0.4375,-1 1,-1zM21,25c-1.64453,0 -3,1.35547 -3,3c0,1.64453 1.35547,3 3,3c1.64453,0 3,-1.35547 3,-3c0,-1.64453 -1.35547,-3 -3,-3zM21,27c0.5625,0 1,0.4375 1,1c0,0.5625 -0.4375,1 -1,1c-0.5625,0 -1,-0.4375 -1,-1c0,-0.5625 0.4375,-1 1,-1zM40.84375,29.15625c1.20703,0 2.15625,0.98047 2.15625,2.1875c0,1.20703 -0.94922,2.15625 -2.15625,2.15625c-0.85156,0 -1.58203,-0.50391 -1.9375,-1.21875c-0.08594,-0.16797 -0.21484,-0.30859 -0.375,-0.40625c0,-0.00391 -0.03125,0.00391 -0.03125,0c-0.17187,-0.25781 -0.53516,-0.86328 -1.375,-1.65625c-0.29297,-0.27734 -0.70312,-0.47656 -1.0625,-0.71875c0.85156,0.38672 1.92188,0.49609 3.03125,0.15625v0.03125c0.10547,-0.00391 0.21094,-0.02344 0.3125,-0.0625c0.03125,-0.00781 0.0625,-0.01953 0.09375,-0.03125c0.05469,-0.01562 0.10547,-0.03906 0.15625,-0.0625c0.34375,-0.22656 0.75,-0.375 1.1875,-0.375zM31.8125,36.03125c-0.52344,0.03125 -0.9375,0.4375 -0.9375,0.96875c0,0.51172 0.38281,0.94141 0.875,1c0.19922,0.18359 0.5625,0.9375 0.5625,1.875c0,1.89453 1.38672,3.28125 3.28125,3.28125c0.92188,0 1.75,-0.38672 2.34375,-1l-1.40625,-1.40625c-0.23437,0.25391 -0.57031,0.40625 -0.9375,0.40625c-0.30078,0 -1.28125,-0.10156 -1.28125,-1.28125c0,-0.53516 -0.07031,-1.05469 -0.21875,-1.5625z"></path></g></g></svg>